<?xml version="1.0" encoding="utf-8"?>
<!-- Generator: Adobe Illustrator 19.0.0, SVG Export Plug-In . SVG Version: 6.00 Build 0)  -->
<svg version="1.1" id="rlg-logo" xmlns="http://www.w3.org/2000/svg" xmlns:xlink="http://www.w3.org/1999/xlink" x="0px" y="0px"
	 viewBox="249.4 -30.3 169.4 181.1" style="enable-background:new 249.4 -30.3 169.4 181.1;" xml:space="preserve" onmouseover="toggleHover();" onmouseout="toggleHover();">

	 <script xmlns="http://www.w3.org/2000/svg" type="text/ecmascript"><![CDATA[function toggleHover(){var e=document.getElementById("car");e.setAttribute("class",e.getAttribute("class")=="is-hovered"?"":"is-hovered")}]]></script>
<style type="text/css">
	.st0{fill:#FFFFFF;}
	.st1{fill:url(#SVGID_1_);}
	.st2{fill:#FFAA00;}
	.st3{display:none;}
	.st4{display:inline;}
	.st5{fill:#00A3FF;}
</style>
<g>
	<g>
		<path class="st0" d="M334.4,150.8c-0.2,0-0.3,0-0.4,0c0,0-0.1,0-0.1,0c-3.9,0-18.7-1.9-44.8-25.7c-11.7-10.7-19.4-33.7-22.7-68.2
			c-2.6-27.1-1.9-54.5-1.6-66.2c0.1-2.3,0.1-4.1,0.1-5.1c0-7.4,9.7-11.5,33.3-14c15.6-1.6,32.3-1.9,35.5-2c0,0,0.8,0,0.8,0
			c0.1,0,0.3,0,0.4,0c3.9,0.1,20.1,0.4,35.2,2c23.7,2.5,33.3,6.5,33.3,14c0,1,0,2.8,0.1,5.1c0.3,11.7,1,39-1.6,66.2
			c-3.3,34.5-11,57.4-22.7,68.2C353.1,148.9,338.3,150.8,334.4,150.8L334.4,150.8z"/>
		<linearGradient id="SVGID_1_" gradientUnits="userSpaceOnUse" x1="334.1498" y1="146.7051" x2="334.1498" y2="-26.2448">
			<stop  offset="0" style="stop-color:#FFAC2A"/>
			<stop  offset="1" style="stop-color:#FFDA3F"/>
		</linearGradient>
		<path class="st1" d="M399.4-14.4c0-10.7-57.5-11.8-64.8-11.8l0,0c0,0-0.3,0-0.7,0c0,0,0,0,0,0v0c-7.3,0.1-64.8,1.1-64.8,11.8
			c0,11.4-5.5,110.5,22.9,136.4c26.5,24.3,40.5,24.7,42.2,24.6c0.5,0,14.6,0.8,42.4-24.6C404.8,96.1,399.4-3,399.4-14.4z"/>
	</g>
	<g>
		<g>
			<g id="car">
				<polygon class="st2" points="257.3,-1.3 262.9,0.3 270.2,0.7 277.1,-4.3 290.7,2 294.6,8.4 310.5,3.7 323.5,0.6 337.3,2.2
					370.3,10.3 390.9,28.2 376.7,45.3 386.5,46.6 402.6,48.1 399.7,55.8 410.5,67 414.3,70.3 413.6,82.1 404.6,93.1 392.8,87
					392.3,61.8 383.3,72.7 364.1,64.6 345.1,59.6 333.7,57.4 327,68.5 310.6,74.7 295.6,55.9 292.3,38.6 284.3,40.3 276.5,42.4
					260.1,37.4 251.9,23 252.6,12.5 253.9,1.4 				"/>
				<path class="st0" d="M418.9,44.4c-2.8-3-6.6-4.5-10-5.2l0,0c0,0-0.1,0-0.1,0c-3.9-0.8-7.1-0.6-7.1-0.6l0.5-0.5
					c-11.9-0.4-21.3,8-21.3,8c7.3-8.3,18.7-10.3,24.1-10.8l-9.6-11.4c-5.8-12.7-13.1-12.6-13.1-12.6c5.6-7.8-14.6-11.4-14.6-11.4
					l-0.4,4.9l4.2,2.6l-2.3-0.1C357.5,0.4,323-2.1,323-2.1l-14.7,5.7l-14.7-0.3C287.9-4.2,276.5-6,276.5-6l-6.3,6.7l-7.6-2.5
					c-15.2-6-10.5,19.4-10.5,19.4s-2.6,3-2.6,11.4c0,8.4,14.1,16.7,21.3,16.7c7.2-0.1,11.1-3.8,11.1-3.8l8.9,3.1
					c-3.4,3-1.7,15-1.7,15s8,15.8,23.3,17.5s23.7-17.5,23.7-17.5c9,7.7,16.5,3.5,16.5,3.5c2.5,3.9,27.5,13,27.4,16.6
					c-0.1,3.6,5.5,15.5,17.7,15.8c12.3,0.3,19-13,19.1-25.3c0.1-12.3-12.9-14.2-12.9-14.2l0.6-3.1C415.4,49.1,418.9,44.4,418.9,44.4
					z M375.2,17.2c0,0,11,6.2,12.2,11.5c0,0-5.5-2.1-10.5-2.2c0,0-1.3-7.3-3.6-8.3L375.2,17.2z M365.8,10.6c0,0,6.6,10.7,6.3,14.9
					l-32,0.5c0,0-8.3-5.8-7.2-8.8c0,0,6.2-8.8,11.2-8.9S365.8,10.6,365.8,10.6z M345.6,42.3l-5.4,0.2c0,0-1.9-6.8-6.3-9.8
					C333.9,32.8,344.4,37.6,345.6,42.3z M323.5,0.6L338.1,6c0,0-8.3,2.5-10.9,5.8c0,0-6,0.2-19.2-6.1C308,5.8,316.7,2.2,323.5,0.6z
					 M330.4,20.6c-7.4-2.3-14.3-2.7-14.3-2.7c1.7-0.3,1.8-3.6,1.8-3.6C325.9,16.6,330.4,20.6,330.4,20.6z M312.5,17.4
					c-5.7-2.8,2-4.5,2-4.5C311.8,15.3,312.5,17.4,312.5,17.4z M316.1,13.1c0,0,0.3,4-2,4.7C314,17.8,316.2,13.9,316.1,13.1z
					 M277.5-2.6c9.2,2.3,12.9,7,11.8,6.6c-5.4-1.9-13.5-3.2-13.5-3.2C276.1,0,277.5-2.6,277.5-2.6z M257.7,7.6l-0.5,15.2l-1.9,0
					l0.2-7.1l-1.7,0l0.4-10.5l3.1-6.5l2,0.1l-3.5,7.4L257.7,7.6z M263.4,26.7L261,27l0.5-6.1l-0.6-0.7l-0.8-11.7l3.7-6.5l6.2,1.3
					c0,0,0.7-0.9,1.1-1.5c0.4-0.6,8.2,2.8,8.8,2.8L265,7l0,3.9l4.7,2.3l-1.1,7l-4.3-0.9L263.4,26.7z M267,24.2l1-1.2
					c0,0,4.7,3.8,9,4.4l-0.9,1.2C276.1,28.5,271.2,27.7,267,24.2z M275.5,29.7l-0.9,1.2c0,0-5-0.8-9.1-4.4l1-1.2
					C266.5,25.4,271.2,29.2,275.5,29.7z M307.4,51.1l6.2,3.8l-7.1,8C305.2,59.4,305.4,55.1,307.4,51.1z M310.8,46.4
					c3.4-3.3,7.9-4.9,12-4.1l-6.5,9.2L310.8,46.4z M310.8,68.4c-0.5-0.3-1-0.7-1.5-1.2l6.6-7l2.5,9.7
					C315.7,70.3,313,69.9,310.8,68.4z M328.9,62.6c-1.4,2.2-3.2,4-5.2,5.2l-3.4-10.5l10.7,0.6C330.6,59.5,329.9,61.1,328.9,62.6z
					 M320.2,52.7l5.9-9.2c0.1,0.1,0.2,0.1,0.4,0.2c3.1,2,4.9,5.5,5.1,9.3L320.2,52.7z M347,57c-0.5-0.3-3.9-2-10-2.7
					c0,0,1.3-8.5-3.1-14.7c-2.3-3.3-8.2-7.4-10-8.6c-21.3-7.2-28.1,6.6-28.1,6.6l-9-0.8c0,0-3.1,1.8-5.3,2.9c-1.8,0.9,1.3-5,1.8-5.7
					c-0.6,0.8-3.8,7.1-11.9,5.4c-9.3-2-6.4-10.3-6.4-10.3c0.6,0.8,3.3,4.7,7.7,4.6c6.8-0.1,7.3-7.3,7.3-7.3c-5.3-5.4-4.2-8-4.2-8
					c3.8,8.9,8,7.9,8,7.9c0.1-2.9,6.5-6.2,6.5-6.2c-7.4,4.6-5.8,11.1,0.9,11.3c7.4,0.3,5.9-8.5,5.9-8.5c1.9-1.6,9.4-0.7,15.7-0.4
					c-1.5-0.9-2.9-1.6-3.8-1.6c-3.5-0.1-8.1-4.6-8.1-4.6l0.8,0.6c0,0,15.6,1.7,19.8,11.1l0.7,0.6c2,0.3,9.8,2.4,16,14.2
					C344.4,54.8,346.5,56.7,347,57c0,0,0.1,0.1,0.1,0.1S347.1,57.1,347,57z M348.5,38.9c0,0-1.2-4.6-6.8-9.6c0,0,26.3-0.6,38.5,2
					C380.2,31.3,360.1,29.8,348.5,38.9z M366.5,62.5l0.3-1.3l7.5-7l3.1,1.6l-7.8,8.2L366.5,62.5z M382.3,70.7l-5.3-2.7
					c0,0,7.5-7.5,8.1-8l3.9,1.6C388.9,61.7,383.3,65,382.3,70.7z M376.8,51.6l5.7-4.5l16.1,6.9l-6.4,4.4L376.8,51.6z M397.7,83.7
					c-0.1-2.4,0.6-5.2,2.1-7.9c0.1-0.2,0.3-0.5,0.4-0.7l1.6,1.2L397.7,83.7z M400.3,88.8c-0.9-0.5-1.6-1.4-2-2.5l4.8-6.1l1.4,8.7
					C402.9,89.4,401.5,89.4,400.3,88.8z M411.5,82.1c-1.2,2.3-2.8,4.1-4.4,5.3l-1.9-9.2l7.9-0.1C412.7,79.4,412.2,80.8,411.5,82.1z
					 M413.6,75.1l-7.1,0.1l4.8-6C412.9,70.2,413.7,72.4,413.6,75.1z M408.6,68.6l-4.6,5.4l-2-1.4C404.1,70.2,406.5,68.7,408.6,68.6z
					"/>
			</g>
			<g class="st3">
				<g class="st4">
					<g>
						<path class="st0" d="M308.2,99.1c-0.2,0-0.4,0-0.5,0c-0.2,0.1-0.4,0.1-0.5,0.1c-0.6,0.1-1.2,0.1-1.7,0.2
							c-1.5,0.2-2.8-0.9-2.8-2.4c0-1.8,0-3.5,0-5.3c0-1.5,1.2-3,2.8-3.1c0.8-0.1,1.5-0.2,2.3-0.3c0.4-0.1,0.9-0.1,1.3,0
							c0.6,0.1,1.2,0.2,1.7,0.5c0.6,0.3,1.1,0.8,1.4,1.4c0.4,0.6,0.5,1.3,0.5,2.1c0,0.6-0.1,1.1-0.3,1.6c0.1,0.1,0.2,0.3,0.3,0.4
							c0.5,0.8,0.6,1.9,0.1,2.8c-0.5,0.9-1.4,1.6-2.4,1.7C309.6,99,308.9,99.1,308.2,99.1z"/>
						<path class="st0" d="M305.4,91.4c0.8-0.1,1.5-0.2,2.3-0.3c0.3,0,0.5,0,0.8,0c0.3,0,0.5,0.1,0.7,0.2c0.2,0.1,0.4,0.3,0.5,0.5
							c0.1,0.2,0.2,0.5,0.2,0.8c0,0.3-0.1,0.6-0.2,0.9c-0.2,0.3-0.4,0.5-0.7,0.6c0.4,0.7,0.9,1.3,1.3,2c-0.7,0.1-1.4,0.1-2.1,0.2
							c-0.3-0.6-0.7-1.2-1-1.8c0,0,0,0-0.1,0c0,0.6,0,1.3,0,1.9c-0.6,0.1-1.2,0.1-1.7,0.2C305.4,94.9,305.4,93.2,305.4,91.4z
							 M307.2,93.4c0.1,0,0.2,0,0.3,0c0.1,0,0.1,0,0.2,0c0.1,0,0.1,0,0.2-0.1c0.1,0,0.1-0.1,0.2-0.2c0-0.1,0.1-0.1,0.1-0.2
							c0-0.1,0-0.2-0.1-0.2c0-0.1-0.1-0.1-0.1-0.1c-0.1,0-0.1,0-0.2,0c-0.1,0-0.1,0-0.2,0c-0.1,0-0.3,0-0.4,0.1
							C307.2,92.9,307.2,93.1,307.2,93.4z"/>
						<path class="st0" d="M313.5,98.7c-0.8,0.1-1.5,0-2.2-0.2c-0.7-0.2-1.3-0.5-1.9-1c-0.5-0.4-1-1-1.3-1.7
							c-0.3-0.7-0.5-1.4-0.5-2.2c0-0.8,0.2-1.6,0.5-2.3c0.3-0.7,0.7-1.4,1.3-2c0.5-0.5,1.2-1,1.9-1.3c0.7-0.3,1.4-0.5,2.1-0.6
							c0.7-0.1,1.5,0,2.1,0.2c0.7,0.2,1.3,0.5,1.9,1c0.6,0.5,1,1,1.3,1.7c0.3,0.7,0.5,1.4,0.5,2.2c0,0.8-0.2,1.6-0.5,2.3
							c-0.3,0.7-0.7,1.4-1.3,1.9c-0.5,0.5-1.2,1-1.9,1.3C315,98.5,314.3,98.7,313.5,98.7z"/>
						<path class="st0" d="M310.6,93.4c0-0.4,0.1-0.8,0.2-1.2c0.1-0.4,0.4-0.7,0.6-0.9c0.3-0.3,0.6-0.5,0.9-0.6
							c0.4-0.2,0.8-0.3,1.2-0.3c0.4,0,0.8,0,1.2,0.1c0.4,0.1,0.7,0.3,0.9,0.5c0.3,0.2,0.5,0.5,0.6,0.8c0.2,0.3,0.2,0.7,0.2,1.1
							c0,0.4-0.1,0.8-0.2,1.2c-0.2,0.4-0.4,0.7-0.6,0.9c-0.3,0.3-0.6,0.5-0.9,0.7c-0.4,0.2-0.8,0.3-1.2,0.3c-0.4,0-0.8,0-1.2-0.1
							c-0.4-0.1-0.7-0.3-0.9-0.5c-0.3-0.2-0.5-0.5-0.6-0.8C310.6,94.2,310.6,93.8,310.6,93.4z M312.5,93.2c0,0.2,0,0.3,0.1,0.5
							c0.1,0.1,0.1,0.3,0.2,0.4c0.1,0.1,0.2,0.2,0.3,0.2c0.1,0,0.3,0.1,0.4,0c0.2,0,0.3-0.1,0.4-0.1c0.1-0.1,0.2-0.2,0.3-0.3
							c0.1-0.1,0.2-0.2,0.2-0.4c0.1-0.1,0.1-0.3,0.1-0.5c0-0.2,0-0.3-0.1-0.5c-0.1-0.1-0.1-0.2-0.2-0.3c-0.1-0.1-0.2-0.2-0.3-0.2
							c-0.1,0-0.3-0.1-0.4,0c-0.2,0-0.3,0.1-0.4,0.1c-0.1,0.1-0.2,0.2-0.3,0.3c-0.1,0.1-0.2,0.2-0.2,0.4
							C312.5,92.9,312.5,93.1,312.5,93.2z"/>
						<path class="st0" d="M319.9,98.2c-0.7,0-1.5,0-2.1-0.2c-0.7-0.2-1.3-0.6-1.9-1c-0.5-0.5-0.9-1-1.2-1.7
							c-0.3-0.7-0.5-1.4-0.5-2.2c0-0.8,0.2-1.6,0.5-2.3c0.3-0.7,0.7-1.4,1.3-1.9c0.5-0.5,1.2-1,1.9-1.3c0.7-0.3,1.4-0.5,2.1-0.5
							c0.7,0,1.4,0,2.1,0.2c0.7,0.2,1.3,0.6,1.9,1c1.1,0.9,1.2,2.6,0.3,3.8c-0.1,0.1-0.1,0.2-0.2,0.3c0.1,0.1,0.1,0.2,0.2,0.2
							c0.9,1.1,0.9,2.7-0.2,3.8c-0.5,0.5-1.1,1-1.8,1.3C321.4,98,320.7,98.2,319.9,98.2z"/>
						<path class="st0" d="M317,92.9c0-0.4,0.1-0.8,0.2-1.2c0.2-0.4,0.4-0.7,0.6-0.9c0.3-0.3,0.6-0.5,0.9-0.6
							c0.4-0.2,0.7-0.2,1.1-0.3c0.4,0,0.8,0,1.2,0.1c0.4,0.1,0.7,0.3,0.9,0.5c-0.4,0.5-0.7,0.9-1.1,1.4c-0.1-0.1-0.2-0.2-0.4-0.3
							c-0.2-0.1-0.3-0.1-0.5-0.1c-0.2,0-0.3,0-0.4,0.1c-0.1,0.1-0.2,0.1-0.3,0.3c-0.1,0.1-0.2,0.2-0.2,0.4c-0.1,0.1-0.1,0.3-0.1,0.5
							c0,0.2,0,0.3,0.1,0.5c0.1,0.1,0.1,0.2,0.2,0.3c0.1,0.1,0.2,0.2,0.3,0.2c0.1,0,0.3,0.1,0.4,0.1c0.2,0,0.4-0.1,0.5-0.2
							c0.1-0.1,0.3-0.2,0.4-0.3c0.4,0.4,0.7,0.8,1.1,1.2c-0.2,0.3-0.5,0.5-0.9,0.6c-0.4,0.2-0.8,0.3-1.2,0.3c-0.4,0-0.8,0-1.1-0.1
							c-0.4-0.1-0.7-0.3-0.9-0.5c-0.3-0.2-0.5-0.5-0.6-0.8C317.1,93.7,317,93.3,317,92.9z"/>
						<path class="st0" d="M325.6,97.8c-0.2,0-0.5,0-0.7-0.1c-0.2,0.1-0.5,0.1-0.7,0.1c-0.6,0-1.2,0.1-1.7,0.1
							c-1.5,0.1-2.8-1.1-2.8-2.6c0-1.8,0-3.5,0-5.3c0-1.5,1.3-2.9,2.8-3c0.6,0,1.2-0.1,1.7-0.1c0.2,0,0.5,0,0.7,0.1
							c0.2-0.1,0.5-0.1,0.7-0.1c0.7,0,1.4-0.1,2.1-0.1c1.1,0,2.1,0.6,2.5,1.5c0.5,1,0.3,2.1-0.4,3c-0.2,0.3-0.4,0.5-0.6,0.8
							c0.3,0.4,0.6,0.7,0.8,1.1c0.6,0.8,0.7,1.9,0.2,2.9c-0.5,0.9-1.4,1.6-2.5,1.6C327.1,97.7,326.4,97.7,325.6,97.8z"/>
						<path class="st0" d="M324.2,92.9C324.2,92.9,324.2,92.9,324.2,92.9c0,0.7,0,1.4,0,2.1c-0.6,0-1.2,0.1-1.7,0.1
							c0-1.8,0-3.5,0-5.3c0.6,0,1.2-0.1,1.7-0.1c0,0.6,0,1.3,0,1.9c0,0,0,0,0,0c0.5-0.7,0.9-1.3,1.4-2c0.7,0,1.4-0.1,2.1-0.1
							c-0.7,0.8-1.3,1.7-2,2.5c0.7,0.9,1.4,1.9,2.1,2.8c-0.7,0-1.5,0.1-2.2,0.1C325.2,94.3,324.7,93.6,324.2,92.9z"/>
						<path class="st0" d="M328.2,97.7c-1.5,0-2.8-1.1-2.8-2.7c0-1.8,0-3.5,0-5.3c0-1.5,1.3-2.8,2.8-2.9c1.2,0,2.4-0.1,3.7-0.1
							c1.6,0,2.8,1.2,2.8,2.7c0,0.5,0,1,0,1.5c0,0.3,0,0.6-0.1,0.8c0,0.1,0,0.2,0,0.4c0.2,0.3,0.2,0.7,0.2,1.1c0,0.5,0,1,0,1.5
							c0,1.5-1.3,2.8-2.8,2.8C330.7,97.6,329.5,97.6,328.2,97.7z"/>
						<path class="st0" d="M328.2,89.6c1.2,0,2.4-0.1,3.7-0.1c0,0.5,0,1,0,1.5c-0.7,0-1.3,0-2,0c0,0.2,0,0.3,0,0.5
							c0.6,0,1.2,0,1.9,0c0,0.5,0,0.9,0,1.4c-0.6,0-1.2,0-1.9,0c0,0.2,0,0.3,0,0.5c0.7,0,1.4,0,2.1,0c0,0.5,0,1,0,1.5
							c-1.3,0-2.5,0.1-3.8,0.1C328.2,93.1,328.2,91.4,328.2,89.6z"/>
						<path class="st0" d="M333.6,97.5c-1.6,0-2.8-1.2-2.8-2.7c0-0.5,0-1,0-1.4c-0.8-0.5-1.3-1.3-1.3-2.3c0-0.5,0-1,0-1.5
							c0-1.5,1.3-2.8,2.8-2.8c1.5,0,2.9,0,4.4,0c1.6,0,2.8,1.3,2.8,2.8c0,0.5,0,1,0,1.5c0,1-0.5,1.9-1.3,2.3c0,0.5,0,1,0,1.4
							c0,1.5-1.3,2.8-2.8,2.8C334.8,97.5,334.2,97.5,333.6,97.5z"/>
						<path class="st0" d="M335.4,94.8c-0.6,0-1.2,0-1.8,0c0-1.3,0-2.5,0-3.8c-0.4,0-0.9,0-1.3,0c0-0.5,0-1,0-1.5c1.5,0,2.9,0,4.4,0
							c0,0.5,0,1,0,1.5c-0.4,0-0.9,0-1.3,0C335.4,92.2,335.4,93.5,335.4,94.8z"/>
						<path class="st0" d="M339,97.6c-1.6,0-2.8-1.3-2.8-2.8c0-1.8,0-3.5,0-5.3c0-1.5,1.3-2.8,2.8-2.8c0.6,0,1.2,0,1.8,0
							c1.5,0,2.8,1.3,2.8,2.8c0,0.4,0,0.8,0,1.2c1,0.4,1.8,1.5,1.8,2.6c0,0.5,0,1,0,1.5c0,1.5-1.3,2.7-2.8,2.7
							C341.4,97.6,340.2,97.6,339,97.6z"/>
						<path class="st0" d="M339,89.5c0.6,0,1.2,0,1.8,0c0,1.3,0,2.5,0,3.8c0.6,0,1.2,0,1.8,0c0,0.5,0,1,0,1.5
							c-1.2,0-2.4-0.1-3.6-0.1C339,93,339,91.2,339,89.5z"/>
						<path class="st0" d="M343.1,97.6c-1.5,0-2.8-1.3-2.8-2.8c0-1.8,0-3.5,0-5.3c0-1.5,1.3-2.8,2.8-2.7c1.2,0,2.4,0.1,3.7,0.1
							c1.5,0.1,2.8,1.4,2.8,2.9c0,0.5,0,1,0,1.5c0,0.3,0,0.6-0.1,0.8c0,0.1,0,0.2,0,0.4c0.2,0.4,0.2,0.8,0.2,1.2c0,0.5,0,1,0,1.5
							c0,1.5-1.3,2.7-2.8,2.6C345.7,97.7,344.4,97.7,343.1,97.6z"/>
						<path class="st0" d="M343.1,89.6c1.2,0,2.4,0.1,3.7,0.1c0,0.5,0,1,0,1.5c-0.7,0-1.3-0.1-2-0.1c0,0.2,0,0.3,0,0.5
							c0.6,0,1.2,0,1.9,0.1c0,0.5,0,0.9,0,1.4c-0.6,0-1.2-0.1-1.9-0.1c0,0.2,0,0.3,0,0.5c0.7,0,1.4,0.1,2.1,0.1c0,0.5,0,1,0,1.5
							c-1.3-0.1-2.5-0.1-3.8-0.1C343.1,93.1,343.1,91.3,343.1,89.6z"/>
						<path class="st0" d="M351.2,98c-0.4,0-0.8-0.1-1.1-0.3c-0.3,0.1-0.7,0.2-1.1,0.2c-0.6,0-1.3-0.1-1.9-0.1
							c-0.9,0-1.8-0.5-2.3-1.3c-0.5-0.8-0.6-1.7-0.3-2.6c0.7-1.7,1.4-3.5,2.1-5.2c0.4-1,1.5-1.7,2.6-1.6c0.6,0,1.3,0.1,1.9,0.1
							c1.2,0.1,2.2,0.8,2.6,1.9c0.7,1.8,1.4,3.6,2.1,5.4c0.3,0.9,0.2,1.8-0.3,2.6c-0.5,0.7-1.4,1.1-2.3,1
							C352.5,98.1,351.8,98,351.2,98z"/>
						<path class="st0" d="M349.2,89.8c0.6,0,1.3,0.1,1.9,0.1c0.7,1.8,1.4,3.6,2.1,5.4c-0.6,0-1.3-0.1-1.9-0.1
							c-0.1-0.3-0.2-0.5-0.3-0.8c-0.6,0-1.1-0.1-1.7-0.1c-0.1,0.3-0.2,0.5-0.3,0.8c-0.6,0-1.3-0.1-1.9-0.1
							C347.8,93.3,348.5,91.5,349.2,89.8z M350.1,91.7c-0.1,0.4-0.3,0.9-0.4,1.3c0.3,0,0.6,0,0.9,0
							C350.4,92.6,350.2,92.2,350.1,91.7z"/>
						<path class="st0" d="M356.1,98.5c-0.7-0.1-1.5-0.2-2.1-0.5c-0.7-0.3-1.3-0.7-1.9-1.3c-0.5-0.5-1-1.2-1.3-1.9
							c-0.3-0.7-0.5-1.5-0.5-2.3c0-0.8,0.2-1.6,0.5-2.2c0.3-0.7,0.7-1.2,1.3-1.7c0.5-0.5,1.2-0.8,1.8-1c0.7-0.2,1.4-0.3,2.1-0.2
							c0.7,0.1,1.5,0.2,2.1,0.6c0.8,0.3,1.4,0.8,1.9,1.4c0.7,0.7,0.9,1.7,0.8,2.6c0.1,0.3,0.1,0.6,0.1,0.9c0,1,0,1.9,0,2.9
							c0,1-0.5,1.8-1.4,2.2c-0.3,0.1-0.6,0.2-0.9,0.3c-0.3,0.1-0.6,0.1-0.9,0.2c-0.3,0-0.6,0.1-0.9,0.1
							C356.7,98.5,356.4,98.5,356.1,98.5z"/>
						<path class="st0" d="M356.1,95.7c-0.4,0-0.8-0.1-1.2-0.3c-0.4-0.2-0.7-0.4-0.9-0.6c-0.3-0.3-0.5-0.6-0.6-0.9
							c-0.2-0.4-0.2-0.7-0.2-1.2c0-0.4,0.1-0.8,0.2-1.1c0.2-0.3,0.4-0.6,0.6-0.8c0.3-0.2,0.6-0.4,0.9-0.5c0.4-0.1,0.7-0.1,1.1-0.1
							c0.4,0,0.8,0.1,1.2,0.3c0.4,0.2,0.7,0.4,0.9,0.6c-0.3,0.4-0.7,0.8-1,1.2c-0.1-0.1-0.2-0.3-0.4-0.3c-0.2-0.1-0.3-0.1-0.6-0.2
							c-0.1,0-0.3,0-0.4,0.1c-0.1,0-0.3,0.1-0.4,0.2c-0.1,0.1-0.2,0.2-0.3,0.4c-0.1,0.1-0.1,0.3-0.1,0.5c0,0.4,0.1,0.7,0.3,0.9
							c0.2,0.2,0.5,0.4,0.9,0.4c0.1,0,0.2,0,0.2,0c0.1,0,0.1,0,0.2,0c0-0.1,0-0.3,0-0.4c-0.3,0-0.6,0-0.9-0.1c0-0.5,0-0.9,0-1.4
							c0.8,0.1,1.6,0.1,2.4,0.2c0,1,0,1.9,0,2.9c-0.1,0.1-0.3,0.1-0.4,0.2c-0.2,0-0.3,0.1-0.5,0.1c-0.2,0-0.4,0-0.6,0.1
							C356.5,95.7,356.3,95.7,356.1,95.7z"/>
						<path class="st0" d="M361.5,99c-0.7-0.1-1.4-0.3-2.1-0.6c-0.7-0.3-1.3-0.7-1.7-1.2c-0.5-0.5-0.9-1.1-1.1-1.8
							c-0.2-0.6-0.3-1.2-0.3-1.9c0-1.1,0-2.1,0-3.2c0-1.5,1.3-2.7,2.8-2.5c0.6,0.1,1.2,0.1,1.8,0.2c0.2,0,0.5,0.1,0.7,0.2
							c0.2,0,0.5,0,0.7,0c0.6,0.1,1.2,0.1,1.8,0.2c1.5,0.2,2.8,1.6,2.8,3.1c0,1.1,0,2.1,0,3.2c0,0.7-0.1,1.3-0.4,1.9
							c-0.3,0.6-0.6,1.1-1.1,1.6c-0.5,0.4-1.1,0.7-1.7,0.9C362.9,99.1,362.2,99.1,361.5,99z"/>
						<path class="st0" d="M361.5,96.2c-0.4,0-0.8-0.1-1.1-0.3c-0.3-0.1-0.6-0.3-0.8-0.5c-0.2-0.2-0.4-0.5-0.5-0.7
							c-0.1-0.3-0.2-0.6-0.2-0.9c0-1.1,0-2.1,0-3.2c0.6,0.1,1.2,0.1,1.8,0.2c0,1,0,2,0,3c0,0.3,0.1,0.5,0.2,0.6
							c0.1,0.2,0.3,0.2,0.5,0.3c0.2,0,0.4,0,0.5-0.2c0.1-0.1,0.2-0.3,0.2-0.6c0-1,0-2,0-3c0.6,0.1,1.2,0.1,1.8,0.2
							c0,1.1,0,2.1,0,3.2c0,0.3-0.1,0.6-0.2,0.9c-0.1,0.3-0.3,0.5-0.5,0.7c-0.2,0.2-0.5,0.3-0.8,0.4
							C362.3,96.3,361.9,96.3,361.5,96.2z"/>
						<path class="st0" d="M364.9,99.3c-1.5-0.2-2.8-1.6-2.8-3.1c0-1.8,0-3.5,0-5.3c0-1.5,1.3-2.6,2.8-2.5c1.2,0.1,2.4,0.3,3.7,0.5
							c1.5,0.2,2.8,1.6,2.8,3.2c0,0.5,0,1,0,1.5c0,0.3,0,0.5-0.1,0.8c0,0.1,0,0.3,0,0.4c0.2,0.4,0.2,0.8,0.2,1.2c0,0.5,0,1,0,1.5
							c0,1.5-1.2,2.6-2.8,2.4C367.4,99.6,366.2,99.4,364.9,99.3z"/>
						<path class="st0" d="M364.9,91.2c1.2,0.1,2.4,0.3,3.7,0.5c0,0.5,0,1,0,1.5c-0.7-0.1-1.3-0.2-2-0.3c0,0.2,0,0.3,0,0.5
							c0.6,0.1,1.2,0.2,1.9,0.2c0,0.5,0,0.9,0,1.4c-0.6-0.1-1.2-0.2-1.9-0.2c0,0.2,0,0.3,0,0.5c0.7,0.1,1.4,0.2,2.1,0.3
							c0,0.5,0,1,0,1.5c-1.3-0.2-2.5-0.3-3.8-0.5C364.9,94.7,364.9,93,364.9,91.2z"/>
					</g>
					<g>
						<path class="st0" d="M278.9,127.7c-0.9,0.2-1.9,0.4-2.7,0.4c-0.9,0.1-1.8,0-2.6,0c-0.8-0.1-1.6-0.3-2.3-0.5
							c-0.8-0.2-1.5-0.5-2.1-0.9c-0.5-0.3-0.9-0.9-0.9-1.7c0-0.7,0.2-1.5,0.7-2.2c0.9-1.3,1.9-2.6,2.8-3.9c0,0,0,0-0.1,0
							c-0.7-0.5-1.3-1.2-1.7-2c-0.4-0.8-0.6-1.9-0.6-3.1c0-1.7,0.4-3.3,1.1-4.8c0.7-1.4,1.6-2.6,2.6-3.7c1-1,2.2-1.8,3.5-2.5
							c1.2-0.6,2.3-1,3.5-1.3c1.6-0.4,3.2-0.4,4.8-0.2c1.6,0.3,3.1,0.9,4.4,1.8c0.5,0.4,0.9,1.1,0.9,1.8c0,0.7-0.3,1.5-0.8,2.2
							c-0.8,1-1.7,2.1-2.5,3.1c0.7,0.4,1.3,1,1.8,1.7c0.7,1,1,2.2,1,3.8c0,1.6-0.3,3.1-1,4.5c-0.6,1.3-1.5,2.5-2.6,3.6
							c-1,1-2.1,1.8-3.4,2.5C281.4,126.9,280.1,127.4,278.9,127.7z"/>
						<path class="st0" d="M278.9,124.9c-0.8,0.2-1.5,0.3-2.3,0.4c-0.7,0.1-1.5,0-2.1,0c-0.7-0.1-1.3-0.2-1.9-0.4
							c-0.6-0.2-1.1-0.4-1.6-0.7c1.3-1.8,2.6-3.6,3.9-5.3c0.4,0.4,1,0.7,1.8,0.8c0.7,0.2,1.5,0.2,2.3,0c0.4-0.1,0.7-0.2,1-0.4
							c0.3-0.2,0.4-0.5,0.4-0.8c0-0.2,0-0.3-0.1-0.4c-0.1-0.1-0.3-0.2-0.5-0.3c-0.3-0.1-0.6-0.1-1-0.2c-0.4-0.1-1-0.1-1.6-0.2
							c-0.6-0.1-1.3-0.2-1.8-0.3c-0.6-0.1-1.1-0.4-1.6-0.7c-0.5-0.3-0.8-0.7-1.1-1.3c-0.3-0.5-0.4-1.2-0.4-2.1
							c0-1.2,0.2-2.3,0.7-3.2c0.5-1,1.1-1.8,1.9-2.5c0.8-0.7,1.6-1.3,2.6-1.8c0.9-0.5,1.9-0.8,2.8-1c1.3-0.3,2.5-0.3,3.8-0.1
							c1.3,0.2,2.4,0.7,3.4,1.4c-1.3,1.6-2.7,3.3-4,4.9c-0.4-0.4-1-0.7-1.6-0.9c-0.6-0.1-1.2-0.1-1.7,0c-0.5,0.1-0.8,0.3-1.1,0.5
							c-0.3,0.2-0.4,0.5-0.4,0.8c0,0.3,0.1,0.5,0.4,0.5c0.3,0.1,0.8,0.1,1.4,0.2c0.7,0.1,1.4,0.1,2.1,0.3c0.8,0.1,1.4,0.3,2.1,0.7
							c0.6,0.3,1.2,0.8,1.6,1.4c0.4,0.6,0.6,1.4,0.6,2.4c0,1.2-0.2,2.2-0.7,3.2c-0.5,1-1.1,1.8-1.8,2.5c-0.7,0.7-1.6,1.3-2.5,1.8
							C280.8,124.3,279.9,124.7,278.9,124.9z"/>
						<path class="st0" d="M292,124.3c-1.5,0.3-2.8-0.7-2.8-2.3c0-3.7,0-7.3,0-11c-0.6,0.1-1.3,0.3-1.9,0.4
							c-1.5,0.3-2.8-0.7-2.8-2.2c0-1.8,0-3.6,0-5.5c0-1.5,1.2-3,2.8-3.4c5.3-1.1,10.6-2,15.9-2.7c1.5-0.2,2.8,0.9,2.8,2.4
							c0,1.8,0,3.6,0,5.5c0,1.5-1.2,2.9-2.8,3.1c-0.6,0.1-1.3,0.2-1.9,0.3c0,3.7,0,7.3,0,11c0,1.5-1.2,3-2.8,3.2
							C296.3,123.6,294.2,123.9,292,124.3z"/>
						<path class="st0" d="M298.5,120.5c-2.2,0.3-4.3,0.7-6.4,1.1c0-4.6,0-9.2,0-13.7c-1.6,0.3-3.1,0.6-4.7,0.9c0-1.8,0-3.6,0-5.5
							c5.3-1.1,10.6-2,15.9-2.7c0,1.8,0,3.6,0,5.5c-1.6,0.2-3.2,0.4-4.7,0.7C298.5,111.3,298.5,115.9,298.5,120.5z"/>
						<path class="st0" d="M316.3,121.1c-1.2,0.1-2.2-0.5-2.6-1.6c-0.1-0.3-0.2-0.6-0.3-0.9c-0.7,0.1-1.4,0.1-2.2,0.2
							c-0.1,0.3-0.2,0.6-0.3,1c-0.4,1.2-1.4,2-2.6,2.2c-2.3,0.3-4.6,0.6-6.9,0.9c-0.9,0.1-1.8-0.2-2.3-0.9c-0.5-0.7-0.6-1.6-0.3-2.5
							c2.5-6.8,5.1-13.5,7.6-20.3c0.4-1.1,1.5-1.9,2.6-2.1c2.3-0.3,4.6-0.5,6.9-0.7c1.2-0.1,2.2,0.5,2.6,1.6
							c2.5,6.2,5,12.5,7.6,18.8c0.3,0.8,0.2,1.8-0.3,2.6c-0.5,0.8-1.4,1.3-2.3,1.3C321,120.8,318.7,120.9,316.3,121.1z"/>
						<path class="st0" d="M308.9,99.9c2.3-0.3,4.6-0.5,6.9-0.7c2.5,6.2,5,12.4,7.5,18.7c-2.4,0.1-4.7,0.3-7.1,0.5
							c-0.3-0.9-0.7-1.8-1-2.7c-2,0.2-4.1,0.4-6.1,0.6c-0.3,1-0.6,2-1,2.9c-2.3,0.3-4.6,0.6-6.9,0.9
							C303.9,113.3,306.4,106.5,308.9,99.9z M312.3,106.2c-0.5,1.6-1.1,3.3-1.6,4.9c1-0.1,2.1-0.2,3.1-0.3
							C313.3,109.3,312.8,107.7,312.3,106.2z"/>
						<path class="st0" d="M324.8,120.6c-1.5,0.1-2.8-1.1-2.8-2.6c0-6.4,0-12.8,0-19.2c0-1.5,1.3-2.9,2.8-2.9
							c2.4-0.1,4.8-0.2,7.2-0.2c1.7,0,3.4,0.1,5,0.5c1.8,0.4,3.3,1.1,4.7,2c1.4,1,2.6,2.4,3.4,4c0.8,1.6,1.3,3.6,1.3,5.9
							c0,2.1-0.4,4-1.2,5.5c-0.8,1.6-1.9,2.9-3.2,3.9c-1.3,1-2.8,1.7-4.5,2.2c-1.6,0.4-3.2,0.7-4.9,0.7
							C330,120.4,327.4,120.5,324.8,120.6z M333.8,108.9c0.1,0,0.1-0.1,0.2-0.1c0,0,0.2-0.3,0.2-1.1c0-0.6-0.2-0.7-0.2-0.8
							c0,0-0.1-0.1-0.1-0.1C333.8,107.6,333.8,108.3,333.8,108.9z"/>
						<path class="st0" d="M324.8,117.8c0-6.4,0-12.8,0-19.2c2.4-0.1,4.8-0.2,7.2-0.2c1.5,0,3,0.1,4.4,0.4c1.4,0.3,2.6,0.8,3.7,1.6
							c1.1,0.8,1.9,1.7,2.6,3c0.6,1.2,1,2.8,1,4.6c0,1.7-0.3,3.1-0.9,4.3c-0.6,1.2-1.4,2.2-2.5,3c-1,0.8-2.2,1.3-3.5,1.7
							c-1.3,0.4-2.7,0.6-4.2,0.6C330,117.6,327.4,117.7,324.8,117.8z M331,103.9c0,2.7,0,5.4,0,8.2c0.4,0,0.8,0,1.2,0
							c1.5,0,2.7-0.4,3.5-1c0.8-0.7,1.2-1.7,1.2-3.2c0-1.2-0.4-2.2-1.2-2.9c-0.8-0.7-1.9-1-3.3-1C332,103.9,331.5,103.9,331,103.9z"
							/>
						<path class="st0" d="M346.3,120.5c-1.5-0.1-2.8-1.3-2.8-2.9c0-6.4,0-12.8,0-19.2c0-1.5,1.3-2.7,2.8-2.7
							c2.2,0.1,4.4,0.2,6.6,0.4c1.5,0.1,2.8,1.5,2.8,3c0,6.4,0,12.8,0,19.2c0,1.5-1.3,2.7-2.8,2.6
							C350.7,120.8,348.5,120.6,346.3,120.5z"/>
						<path class="st0" d="M346.3,98.6c2.2,0.1,4.4,0.2,6.6,0.4c0,6.4,0,12.8,0,19.2c-2.2-0.2-4.4-0.3-6.6-0.4
							C346.3,111.4,346.3,105,346.3,98.6z"/>
						<path class="st0" d="M365.2,122.6c-1.8-0.2-3.5-0.7-4.9-1.3c-1.5-0.7-2.8-1.6-3.8-2.7c-1-1.1-1.8-2.4-2.3-3.8
							c-0.5-1.3-0.7-2.7-0.7-4.2c0-3.9,0-7.8,0-11.7c0-1.5,1.3-2.7,2.8-2.6c2.2,0.2,4.3,0.4,6.5,0.6c1.1,0.1,2.1,0.9,2.6,2
							c0.4-0.9,1.4-1.5,2.6-1.3c2.2,0.3,4.3,0.6,6.4,0.9c1.5,0.2,2.8,1.7,2.8,3.2c0,3.9,0,7.8,0,11.7c0,1.5-0.3,2.9-0.8,4.1
							c-0.5,1.3-1.3,2.3-2.4,3.2c-1,0.8-2.3,1.4-3.8,1.7C368.7,122.8,367,122.8,365.2,122.6z"/>
						<path class="st0" d="M365.2,119.8c-1.5-0.2-2.8-0.5-3.9-1.1c-1.1-0.5-2.1-1.2-2.8-2c-0.7-0.8-1.3-1.7-1.7-2.7
							c-0.4-1-0.5-2.1-0.5-3.2c0-3.9,0-7.8,0-11.7c2.2,0.2,4.3,0.4,6.5,0.6c0,3.7,0,7.3,0,11c0,0.9,0.2,1.7,0.7,2.2
							c0.4,0.6,1.1,0.9,1.9,1c0.8,0.1,1.4-0.1,1.9-0.5c0.4-0.5,0.7-1.1,0.7-2.1c0-3.7,0-7.3,0-11c2.1,0.3,4.3,0.6,6.4,0.9
							c0,3.9,0,7.8,0,11.7c0,1.1-0.2,2.2-0.6,3.1c-0.4,0.9-1,1.7-1.7,2.3c-0.8,0.6-1.7,1-2.8,1.3C368,120,366.7,120,365.2,119.8z"/>
						<path class="st0" d="M395,127.6c-0.6-0.2-1.3-0.5-1.8-1.1c-0.5,0.3-1.1,0.4-1.8,0.2c-1.5-0.4-3-0.7-4.5-1
							c-0.6-0.1-1.2-0.5-1.7-0.9c-0.5,0.3-1.1,0.3-1.7,0.2c-2-0.4-4-0.8-6-1.1c-1.5-0.3-2.8-1.7-2.8-3.2c0-6.4,0-12.8,0-19.2
							c0-1.5,1.2-2.6,2.8-2.3c2.8,0.5,5.6,1,8.4,1.6c1.2,0.2,2.2,1.2,2.6,2.5c0.2,0.8,0.5,1.5,0.7,2.3c0.2-0.6,0.4-1.3,0.6-1.9
							c0.3-1.1,1.4-1.7,2.6-1.4c2.9,0.7,5.7,1.4,8.6,2.2c1.5,0.4,2.7,2,2.7,3.6c0,6.4,0,12.8,0,19.2c0,1.5-1.2,2.4-2.7,2
							C399.1,128.6,397.1,128.1,395,127.6z"/>
						<path class="st0" d="M383.3,111.3c0.1,3.6,0.2,7.3,0.3,10.9c-2-0.4-4-0.8-6-1.1c0-6.4,0-12.8,0-19.2c2.8,0.5,5.6,1,8.4,1.6
							c1.2,3.7,2.3,7.4,3.4,11.1c0,0,0.1,0,0.1,0c1-3.2,2-6.4,3-9.6c2.9,0.7,5.7,1.4,8.6,2.2c0,6.4,0,12.8,0,19.2
							c-2.1-0.6-4.1-1.1-6.2-1.6c0.1-3.6,0.1-7.2,0.2-10.7c-0.1,0-0.1,0-0.2-0.1c-1.2,3.3-2.4,6.6-3.5,10c-1.5-0.4-3-0.7-4.5-1
							c-1.2-3.9-2.3-7.7-3.5-11.6C383.4,111.3,383.4,111.3,383.3,111.3z"/>
					</g>
				</g>
				<g class="st4">
					<g>
						<path class="st5" d="M305.4,91.4c0.8-0.1,1.5-0.2,2.3-0.3c0.3,0,0.5,0,0.8,0c0.3,0,0.5,0.1,0.7,0.2c0.2,0.1,0.4,0.3,0.5,0.5
							c0.1,0.2,0.2,0.5,0.2,0.8c0,0.3-0.1,0.6-0.2,0.9c-0.2,0.3-0.4,0.5-0.7,0.7c0.4,0.7,0.9,1.3,1.3,2c-0.7,0.1-1.4,0.2-2.1,0.2
							c-0.3-0.6-0.7-1.2-1-1.8c0,0,0,0-0.1,0c0,0.6,0,1.3,0,1.9c-0.6,0.1-1.2,0.1-1.7,0.2C305.4,94.9,305.4,93.2,305.4,91.4z
							 M307.2,93.4c0.1,0,0.2,0,0.3,0c0.1,0,0.1,0,0.2,0c0.1,0,0.1,0,0.2-0.1c0.1,0,0.1-0.1,0.2-0.2c0-0.1,0.1-0.1,0.1-0.2
							c0-0.1,0-0.2-0.1-0.2c0-0.1-0.1-0.1-0.1-0.1c-0.1,0-0.1,0-0.2,0c-0.1,0-0.1,0-0.2,0c-0.1,0-0.3,0-0.4,0.1
							C307.2,92.9,307.2,93.1,307.2,93.4z"/>
						<path class="st5" d="M310.6,93.4c0-0.4,0.1-0.8,0.2-1.2c0.1-0.4,0.4-0.7,0.6-0.9c0.3-0.3,0.6-0.5,0.9-0.7
							c0.4-0.2,0.8-0.3,1.2-0.3c0.4,0,0.8,0,1.2,0.1c0.4,0.1,0.7,0.3,0.9,0.5c0.3,0.2,0.5,0.5,0.6,0.8c0.2,0.3,0.2,0.7,0.2,1.1
							c0,0.4-0.1,0.8-0.2,1.2c-0.2,0.4-0.4,0.7-0.6,0.9c-0.3,0.3-0.6,0.5-0.9,0.7c-0.4,0.2-0.8,0.3-1.2,0.3c-0.4,0-0.8,0-1.2-0.1
							c-0.4-0.1-0.7-0.3-0.9-0.5c-0.3-0.2-0.5-0.5-0.6-0.8C310.6,94.2,310.6,93.8,310.6,93.4z M312.5,93.2c0,0.2,0,0.3,0.1,0.5
							c0.1,0.1,0.1,0.3,0.2,0.4c0.1,0.1,0.2,0.2,0.3,0.2c0.1,0,0.3,0.1,0.4,0c0.2,0,0.3-0.1,0.4-0.1c0.1-0.1,0.2-0.2,0.3-0.3
							c0.1-0.1,0.2-0.2,0.2-0.4c0.1-0.1,0.1-0.3,0.1-0.5c0-0.2,0-0.3-0.1-0.5c-0.1-0.1-0.1-0.2-0.2-0.3c-0.1-0.1-0.2-0.2-0.3-0.2
							c-0.1,0-0.3-0.1-0.4,0c-0.2,0-0.3,0.1-0.4,0.1c-0.1,0.1-0.2,0.2-0.3,0.3c-0.1,0.1-0.2,0.2-0.2,0.4
							C312.5,92.9,312.5,93,312.5,93.2z"/>
						<path class="st5" d="M317,92.8c0-0.4,0.1-0.8,0.2-1.2c0.2-0.4,0.4-0.7,0.6-0.9c0.3-0.3,0.6-0.5,0.9-0.6
							c0.4-0.2,0.7-0.3,1.1-0.3c0.4,0,0.8,0,1.2,0.1c0.4,0.1,0.7,0.3,0.9,0.5c-0.4,0.5-0.7,0.9-1.1,1.4c-0.1-0.1-0.2-0.2-0.4-0.3
							c-0.2-0.1-0.3-0.1-0.5-0.1c-0.2,0-0.3,0-0.4,0.1c-0.1,0.1-0.2,0.1-0.3,0.3c-0.1,0.1-0.2,0.2-0.2,0.4c-0.1,0.1-0.1,0.3-0.1,0.5
							c0,0.2,0,0.3,0.1,0.5c0.1,0.1,0.1,0.2,0.2,0.3c0.1,0.1,0.2,0.2,0.3,0.2c0.1,0,0.3,0.1,0.4,0c0.2,0,0.4-0.1,0.5-0.2
							c0.1-0.1,0.3-0.2,0.4-0.3c0.4,0.4,0.7,0.8,1.1,1.2c-0.2,0.3-0.5,0.5-0.9,0.6c-0.4,0.2-0.7,0.3-1.2,0.3c-0.4,0-0.8,0-1.1-0.1
							c-0.4-0.1-0.7-0.3-0.9-0.5c-0.3-0.2-0.5-0.5-0.6-0.8C317.1,93.6,317,93.2,317,92.8z"/>
						<path class="st5" d="M324.2,92.9C324.2,92.9,324.2,92.9,324.2,92.9c0,0.7,0,1.4,0,2.1c-0.6,0-1.2,0.1-1.7,0.1
							c0-1.8,0-3.5,0-5.3c0.6,0,1.2-0.1,1.7-0.1c0,0.6,0,1.3,0,1.9c0,0,0,0,0,0c0.5-0.7,0.9-1.3,1.4-2c0.7,0,1.4-0.1,2.1-0.1
							c-0.7,0.8-1.3,1.7-2,2.5c0.7,0.9,1.4,1.9,2.1,2.8c-0.7,0-1.5,0.1-2.2,0.1C325.2,94.2,324.7,93.6,324.2,92.9z"/>
						<path class="st5" d="M328.2,89.5c1.2,0,2.4-0.1,3.7-0.1c0,0.5,0,1,0,1.5c-0.7,0-1.3,0-2,0c0,0.2,0,0.3,0,0.5
							c0.6,0,1.2,0,1.9,0c0,0.5,0,0.9,0,1.4c-0.6,0-1.2,0-1.9,0c0,0.2,0,0.3,0,0.5c0.7,0,1.4,0,2.1,0c0,0.5,0,1,0,1.5
							c-1.3,0-2.5,0.1-3.8,0.1C328.2,93.1,328.2,91.3,328.2,89.5z"/>
						<path class="st5" d="M335.4,94.7c-0.6,0-1.2,0-1.8,0c0-1.3,0-2.5,0-3.8c-0.4,0-0.9,0-1.3,0c0-0.5,0-1,0-1.5c1.5,0,2.9,0,4.4,0
							c0,0.5,0,1,0,1.5c-0.4,0-0.9,0-1.3,0C335.4,92.2,335.4,93.4,335.4,94.7z"/>
						<path class="st5" d="M339,89.4c0.6,0,1.2,0,1.8,0c0,1.3,0,2.5,0,3.8c0.6,0,1.2,0,1.8,0c0,0.5,0,1,0,1.5
							c-1.2,0-2.4-0.1-3.6-0.1C339,92.9,339,91.2,339,89.4z"/>
						<path class="st5" d="M343.1,89.5c1.2,0,2.4,0.1,3.7,0.1c0,0.5,0,1,0,1.5c-0.7,0-1.3-0.1-2-0.1c0,0.2,0,0.3,0,0.5
							c0.6,0,1.2,0,1.9,0.1c0,0.5,0,0.9,0,1.4c-0.6,0-1.2-0.1-1.9-0.1c0,0.2,0,0.3,0,0.5c0.7,0,1.4,0.1,2.1,0.1c0,0.5,0,1,0,1.5
							c-1.3-0.1-2.5-0.1-3.8-0.1C343.1,93,343.1,91.3,343.1,89.5z"/>
						<path class="st5" d="M349.2,89.8c0.6,0,1.3,0.1,1.9,0.1c0.7,1.8,1.4,3.6,2.1,5.4c-0.6,0-1.3-0.1-1.9-0.1
							c-0.1-0.3-0.2-0.5-0.3-0.8c-0.6,0-1.1-0.1-1.7-0.1c-0.1,0.3-0.2,0.5-0.3,0.8c-0.6,0-1.3-0.1-1.9-0.1
							C347.8,93.2,348.5,91.5,349.2,89.8z M350.1,91.7c-0.1,0.4-0.3,0.9-0.4,1.3c0.3,0,0.6,0,0.9,0.1
							C350.4,92.6,350.2,92.1,350.1,91.7z"/>
						<path class="st5" d="M356.1,95.7c-0.4,0-0.8-0.1-1.2-0.3c-0.4-0.2-0.7-0.4-0.9-0.6c-0.3-0.3-0.5-0.6-0.6-0.9
							c-0.2-0.4-0.2-0.7-0.2-1.2c0-0.4,0.1-0.8,0.2-1.1c0.2-0.3,0.4-0.6,0.6-0.8c0.3-0.2,0.6-0.4,0.9-0.5c0.4-0.1,0.7-0.1,1.1-0.1
							c0.4,0,0.8,0.1,1.2,0.3c0.4,0.2,0.7,0.4,0.9,0.6c-0.3,0.4-0.7,0.8-1,1.1c-0.1-0.1-0.2-0.3-0.4-0.3c-0.1-0.1-0.3-0.1-0.6-0.2
							c-0.1,0-0.3,0-0.4,0c-0.1,0-0.3,0.1-0.4,0.2c-0.1,0.1-0.2,0.2-0.3,0.4c-0.1,0.1-0.1,0.3-0.1,0.5c0,0.4,0.1,0.7,0.3,0.9
							c0.2,0.2,0.5,0.4,0.9,0.4c0.1,0,0.2,0,0.2,0c0.1,0,0.1,0,0.2,0c0-0.1,0-0.3,0-0.4c-0.3,0-0.6-0.1-0.9-0.1c0-0.5,0-0.9,0-1.4
							c0.8,0.1,1.6,0.1,2.4,0.2c0,1,0,1.9,0,2.9c-0.1,0.1-0.3,0.1-0.4,0.2c-0.2,0-0.3,0.1-0.5,0.1c-0.2,0-0.4,0-0.6,0.1
							C356.5,95.7,356.3,95.7,356.1,95.7z"/>
						<path class="st5" d="M361.5,96.2c-0.4,0-0.8-0.1-1.1-0.3c-0.3-0.1-0.6-0.3-0.8-0.5c-0.2-0.2-0.4-0.5-0.5-0.8
							c-0.1-0.3-0.2-0.6-0.2-0.9c0-1.1,0-2.1,0-3.2c0.6,0.1,1.2,0.1,1.8,0.2c0,1,0,2,0,3c0,0.3,0.1,0.5,0.2,0.6
							c0.1,0.2,0.3,0.2,0.5,0.3c0.2,0,0.4,0,0.5-0.2c0.1-0.1,0.2-0.3,0.2-0.6c0-1,0-2,0-3c0.6,0.1,1.2,0.1,1.8,0.2
							c0,1.1,0,2.1,0,3.2c0,0.3-0.1,0.6-0.2,0.9c-0.1,0.3-0.3,0.5-0.5,0.6c-0.2,0.2-0.5,0.3-0.8,0.4
							C362.3,96.3,361.9,96.3,361.5,96.2z"/>
						<path class="st5" d="M364.9,91.2c1.2,0.2,2.4,0.3,3.6,0.5c0,0.5,0,1,0,1.5c-0.7-0.1-1.3-0.2-2-0.3c0,0.2,0,0.3,0,0.5
							c0.6,0.1,1.2,0.2,1.9,0.3c0,0.5,0,0.9,0,1.4c-0.6-0.1-1.2-0.2-1.9-0.3c0,0.2,0,0.3,0,0.5c0.7,0.1,1.4,0.2,2.1,0.3
							c0,0.5,0,1,0,1.5c-1.3-0.2-2.5-0.3-3.8-0.5C364.9,94.7,364.9,93,364.9,91.2z"/>
					</g>
					<g>
						<path class="st5" d="M278.9,125.1c-0.8,0.2-1.5,0.3-2.3,0.4c-0.7,0.1-1.5,0.1-2.1,0c-0.7-0.1-1.3-0.2-1.9-0.4
							c-0.6-0.2-1.1-0.4-1.6-0.7c1.3-1.8,2.6-3.6,3.9-5.4c0.4,0.4,1,0.6,1.8,0.8c0.7,0.2,1.5,0.2,2.3,0c0.4-0.1,0.7-0.2,1-0.4
							c0.3-0.2,0.4-0.5,0.4-0.8c0-0.2,0-0.3-0.1-0.4c-0.1-0.1-0.3-0.2-0.5-0.3c-0.2-0.1-0.6-0.1-1-0.2c-0.4-0.1-1-0.1-1.6-0.1
							c-0.6,0-1.3-0.1-1.8-0.3c-0.6-0.1-1.1-0.4-1.6-0.7c-0.5-0.3-0.8-0.7-1.1-1.3c-0.3-0.5-0.4-1.2-0.4-2.1c0-1.2,0.2-2.3,0.7-3.2
							c0.5-1,1.1-1.8,1.9-2.6c0.8-0.7,1.6-1.4,2.5-1.8c0.9-0.5,1.9-0.8,2.8-1.1c1.2-0.3,2.5-0.4,3.8-0.2c1.3,0.2,2.4,0.6,3.4,1.4
							c-1.3,1.6-2.7,3.3-4,5c-0.4-0.4-1-0.7-1.6-0.9c-0.6-0.1-1.2-0.1-1.7,0c-0.5,0.1-0.8,0.3-1.1,0.5c-0.3,0.2-0.4,0.5-0.4,0.8
							c0,0.3,0.1,0.5,0.4,0.5c0.3,0.1,0.8,0.1,1.4,0.2c0.7,0,1.4,0.1,2.1,0.2c0.8,0.1,1.4,0.3,2.1,0.6c0.6,0.3,1.2,0.8,1.6,1.3
							c0.4,0.6,0.6,1.4,0.6,2.4c0,1.2-0.2,2.2-0.7,3.2c-0.5,1-1.1,1.8-1.8,2.5c-0.7,0.7-1.6,1.4-2.5,1.9
							C280.9,124.5,279.9,124.9,278.9,125.1z"/>
						<path class="st5" d="M298.5,120.5c-2.2,0.4-4.3,0.7-6.4,1.1c0-4.6,0-9.2,0-13.7c-1.6,0.3-3.1,0.6-4.7,1c0-1.8,0-3.6,0-5.5
							c5.3-1.1,10.6-2.1,15.9-2.8c0,1.8,0,3.6,0,5.5c-1.6,0.2-3.2,0.5-4.7,0.7C298.5,111.3,298.5,115.9,298.5,120.5z"/>
						<path class="st5" d="M309,99.9c2.3-0.3,4.6-0.5,6.9-0.7c2.5,6.2,5,12.4,7.5,18.7c-2.4,0.1-4.7,0.3-7.1,0.5
							c-0.3-0.9-0.7-1.8-1-2.7c-2,0.2-4.1,0.4-6.1,0.6c-0.3,1-0.6,2-1,2.9c-2.3,0.3-4.6,0.6-6.9,0.9
							C303.9,113.3,306.4,106.5,309,99.9z M312.3,106.2c-0.5,1.6-1.1,3.3-1.6,4.9c1-0.1,2.1-0.2,3.1-0.3
							C313.3,109.2,312.8,107.7,312.3,106.2z"/>
						<path class="st5" d="M324.8,117.7c0-6.4,0-12.8,0-19.2c2.4-0.1,4.8-0.2,7.2-0.2c1.5,0,3,0.1,4.4,0.4c1.4,0.3,2.6,0.8,3.7,1.6
							c1.1,0.8,1.9,1.7,2.6,3c0.6,1.2,1,2.8,1,4.6c0,1.7-0.3,3.1-0.9,4.3c-0.6,1.2-1.4,2.2-2.5,3c-1,0.8-2.2,1.3-3.5,1.7
							c-1.3,0.4-2.7,0.6-4.2,0.6C330,117.5,327.4,117.6,324.8,117.7z M331,103.8c0,2.7,0,5.4,0,8.2c0.4,0,0.8,0,1.2,0
							c1.5,0,2.7-0.4,3.5-1c0.8-0.7,1.2-1.7,1.2-3.2c0-1.2-0.4-2.2-1.2-2.9c-0.8-0.7-1.9-1-3.3-1C332,103.8,331.5,103.8,331,103.8z"
							/>
						<path class="st5" d="M346.3,98.5c2.2,0.1,4.4,0.2,6.6,0.4c0,6.4,0,12.8,0,19.2c-2.2-0.2-4.4-0.3-6.6-0.4
							C346.3,111.3,346.3,104.9,346.3,98.5z"/>
						<path class="st5" d="M365.2,119.8c-1.5-0.2-2.8-0.5-3.9-1.1c-1.1-0.5-2.1-1.2-2.8-2c-0.7-0.8-1.3-1.7-1.7-2.7
							c-0.4-1-0.5-2.1-0.5-3.2c0-3.9,0-7.8,0-11.7c2.2,0.2,4.3,0.4,6.5,0.7c0,3.7,0,7.3,0,11c0,0.9,0.2,1.7,0.7,2.2
							c0.4,0.6,1.1,0.9,1.9,1c0.8,0.1,1.4-0.1,1.9-0.5c0.4-0.5,0.7-1.1,0.7-2.1c0-3.7,0-7.3,0-11c2.1,0.3,4.3,0.6,6.4,1
							c0,3.9,0,7.8,0,11.7c0,1.1-0.2,2.2-0.6,3.1c-0.4,0.9-1,1.7-1.7,2.3c-0.8,0.6-1.7,1-2.8,1.3C368,120,366.7,120,365.2,119.8z"/>
						<path class="st5" d="M383.3,111.5c0.1,3.6,0.2,7.3,0.3,10.9c-2-0.4-4-0.8-6-1.2c0-6.4,0-12.8,0-19.2c2.8,0.5,5.6,1.1,8.4,1.7
							c1.1,3.7,2.3,7.4,3.4,11.1c0,0,0.1,0,0.1,0c1-3.2,2-6.4,3-9.6c2.9,0.7,5.7,1.5,8.6,2.3c0,6.4,0,12.8,0,19.2
							c-2.1-0.6-4.1-1.2-6.2-1.7c0.1-3.6,0.1-7.2,0.2-10.7c-0.1,0-0.1,0-0.2-0.1c-1.2,3.3-2.4,6.6-3.5,9.9c-1.5-0.4-3-0.7-4.5-1.1
							c-1.2-3.9-2.3-7.7-3.5-11.6C383.4,111.5,383.3,111.5,383.3,111.5z"/>
					</g>
				</g>
			</g>
		</g>
		<g>
			<g>
				<path class="st0" d="M305.5,99.6c-0.7,0-1.4-0.3-2-0.7c-0.7-0.6-1-1.4-1-2.2v-5.3c0-1.5,1.1-2.7,2.6-2.9
					c0.8-0.1,1.5-0.2,2.3-0.3c0.3,0,0.6-0.1,0.9-0.1c0.2,0,0.3,0,0.5,0c0.7,0.1,1.3,0.2,1.9,0.5c0.7,0.4,1.2,0.9,1.6,1.6
					c0.4,0.7,0.6,1.5,0.6,2.4c0,0.6-0.1,1.1-0.3,1.6c0.1,0.1,0.1,0.2,0.2,0.3c0.6,0.9,0.7,2,0.3,2.9c-0.4,0.9-1.3,1.6-2.4,1.7
					c-0.7,0.1-1.3,0.2-2,0.3c-0.1,0-0.3,0-0.4,0c0,0-0.1,0-0.1,0c-0.2,0.1-0.3,0.1-0.5,0.1c-0.6,0.1-1.1,0.2-1.7,0.2
					C305.8,99.6,305.6,99.6,305.5,99.6z"/>
				<path class="st0" d="M305.5,91.4c0.8-0.1,1.5-0.2,2.3-0.3c0.3,0,0.5,0,0.8,0c0.3,0,0.5,0.1,0.7,0.2c0.2,0.1,0.4,0.3,0.5,0.5
					c0.1,0.2,0.2,0.5,0.2,0.8c0,0.3-0.1,0.6-0.2,0.9c-0.2,0.3-0.4,0.5-0.7,0.7c0.4,0.7,0.9,1.3,1.3,2c-0.7,0.1-1.4,0.2-2.1,0.3
					c-0.3-0.6-0.7-1.2-1-1.8c0,0,0,0-0.1,0c0,0.6,0,1.3,0,1.9c-0.6,0.1-1.2,0.2-1.7,0.2C305.5,94.9,305.5,93.1,305.5,91.4z
					 M307.2,93.4c0.1,0,0.2,0,0.3,0c0.1,0,0.1,0,0.2,0c0.1,0,0.1,0,0.2-0.1c0.1,0,0.1-0.1,0.2-0.2c0-0.1,0.1-0.1,0.1-0.2
					c0-0.1,0-0.2-0.1-0.2c0-0.1-0.1-0.1-0.1-0.1c-0.1,0-0.1,0-0.2,0c-0.1,0-0.1,0-0.2,0c-0.1,0-0.3,0-0.4,0.1
					C307.2,92.8,307.2,93.1,307.2,93.4z"/>
				<path class="st0" d="M313.2,98.8c-0.5,0-1-0.1-1.5-0.2c-0.8-0.2-1.5-0.6-2.1-1c-0.6-0.5-1.1-1.1-1.4-1.9
					c-0.3-0.7-0.5-1.5-0.5-2.4c0-0.8,0.2-1.6,0.5-2.3c0.3-0.7,0.7-1.3,1.2-1.9c0.5-0.5,1.1-1,1.8-1.3c0.7-0.3,1.4-0.5,2.1-0.6
					c0.2,0,0.5,0,0.7,0c0.5,0,1,0.1,1.5,0.2c0.8,0.2,1.5,0.5,2.1,1c0.6,0.5,1.1,1.1,1.5,1.9c0.3,0.7,0.5,1.5,0.5,2.4
					c0,0.8-0.2,1.6-0.5,2.3c-0.3,0.7-0.7,1.3-1.2,1.9c-0.5,0.5-1.1,1-1.8,1.3c-0.7,0.3-1.4,0.5-2.1,0.6
					C313.6,98.8,313.4,98.8,313.2,98.8z"/>
				<path class="st0" d="M310.6,93.3c0-0.4,0.1-0.8,0.2-1.2c0.2-0.4,0.4-0.7,0.6-0.9c0.3-0.3,0.6-0.5,0.9-0.7
					c0.4-0.2,0.8-0.3,1.2-0.3c0.4,0,0.8,0,1.2,0.1c0.4,0.1,0.7,0.2,0.9,0.5c0.3,0.2,0.5,0.5,0.6,0.8c0.2,0.3,0.2,0.7,0.2,1.1
					c0,0.4-0.1,0.8-0.2,1.2c-0.2,0.4-0.4,0.7-0.6,1c-0.3,0.3-0.6,0.5-0.9,0.7c-0.4,0.2-0.8,0.3-1.2,0.3c-0.4,0-0.8,0-1.2-0.1
					c-0.4-0.1-0.7-0.2-0.9-0.5c-0.3-0.2-0.5-0.5-0.6-0.8C310.7,94.1,310.6,93.8,310.6,93.3z M312.5,93.1c0,0.2,0,0.3,0.1,0.5
					c0.1,0.1,0.1,0.3,0.2,0.3c0.1,0.1,0.2,0.2,0.3,0.2c0.1,0,0.3,0.1,0.4,0c0.2,0,0.3-0.1,0.4-0.1c0.1-0.1,0.2-0.2,0.3-0.3
					c0.1-0.1,0.2-0.2,0.2-0.4c0.1-0.1,0.1-0.3,0.1-0.5c0-0.2,0-0.3-0.1-0.5c-0.1-0.1-0.1-0.2-0.2-0.3c-0.1-0.1-0.2-0.2-0.3-0.2
					c-0.1,0-0.3-0.1-0.4,0c-0.2,0-0.3,0.1-0.4,0.1c-0.1,0.1-0.2,0.2-0.3,0.3c-0.1,0.1-0.2,0.2-0.2,0.4
					C312.5,92.8,312.5,92.9,312.5,93.1z"/>
				<path class="st0" d="M319.7,98.2c-0.6,0-1.2-0.1-1.7-0.2c-0.8-0.2-1.4-0.6-2-1.1c-0.6-0.5-1.1-1.1-1.4-1.8
					c-0.3-0.7-0.5-1.5-0.5-2.4c0-0.8,0.2-1.6,0.5-2.3c0.3-0.7,0.7-1.3,1.2-1.9c0.5-0.5,1.1-1,1.8-1.3c0.7-0.3,1.4-0.5,2.1-0.5
					c0.2,0,0.3,0,0.5,0c0.6,0,1.2,0.1,1.7,0.2c0.8,0.2,1.4,0.6,2,1.1c1.2,1,1.4,2.9,0.4,4.1l-0.2,0.2l0,0c1,1.2,1,2.9-0.1,4
					c-0.5,0.5-1.1,1-1.8,1.3c-0.7,0.3-1.4,0.5-2.2,0.6C320,98.2,319.8,98.2,319.7,98.2z"/>
				<path class="st0" d="M317,92.7c0-0.4,0.1-0.8,0.2-1.2c0.2-0.4,0.4-0.7,0.6-0.9c0.3-0.3,0.6-0.5,0.9-0.6c0.4-0.2,0.7-0.3,1.1-0.3
					c0.4,0,0.8,0,1.2,0.1c0.4,0.1,0.7,0.3,0.9,0.5c-0.4,0.5-0.7,0.9-1.1,1.4c-0.1-0.1-0.2-0.2-0.4-0.3c-0.2-0.1-0.3-0.1-0.5-0.1
					c-0.2,0-0.3,0-0.4,0.1c-0.1,0.1-0.2,0.1-0.3,0.3c-0.1,0.1-0.2,0.2-0.2,0.4c-0.1,0.1-0.1,0.3-0.1,0.5c0,0.2,0,0.3,0.1,0.5
					c0.1,0.1,0.1,0.2,0.2,0.3c0.1,0.1,0.2,0.2,0.3,0.2c0.1,0,0.3,0.1,0.4,0c0.2,0,0.4-0.1,0.5-0.2c0.1-0.1,0.3-0.2,0.4-0.3
					c0.4,0.4,0.7,0.8,1.1,1.2c-0.2,0.3-0.5,0.5-0.9,0.6c-0.4,0.2-0.8,0.3-1.2,0.3c-0.4,0-0.8,0-1.1-0.1c-0.4-0.1-0.7-0.3-0.9-0.5
					c-0.3-0.2-0.5-0.5-0.6-0.8C317.1,93.5,317,93.1,317,92.7z"/>
				<path class="st0" d="M322.5,97.9c-0.8,0-1.5-0.3-2-0.8c-0.6-0.6-0.9-1.3-0.9-2.2v-5.3c0-1.6,1.2-2.9,2.8-3
					c0.6,0,1.2-0.1,1.8-0.1c0.1,0,0.1,0,0.2,0c0.2,0,0.4,0,0.6,0.1c0.2-0.1,0.5-0.1,0.7-0.1c0.7,0,1.4-0.1,2.1-0.1c0,0,0.1,0,0.1,0
					c1.1,0,2.1,0.6,2.7,1.6c0.5,1,0.4,2.3-0.3,3.2c-0.2,0.2-0.4,0.5-0.6,0.7c0.2,0.3,0.5,0.6,0.7,0.9c0.7,0.9,0.8,2.1,0.3,3.1
					c-0.5,1-1.5,1.7-2.6,1.7c-0.7,0-1.4,0.1-2.2,0.1c-0.1,0-0.1,0-0.2,0c-0.2,0-0.4,0-0.6-0.1c-0.2,0.1-0.5,0.1-0.7,0.1
					c-0.6,0-1.1,0.1-1.7,0.1C322.6,97.9,322.6,97.9,322.5,97.9z"/>
				<path class="st0" d="M324.3,92.7C324.3,92.7,324.3,92.7,324.3,92.7c0,0.7,0,1.4,0,2.1c-0.6,0-1.2,0.1-1.7,0.1c0-1.8,0-3.5,0-5.3
					c0.6,0,1.2-0.1,1.7-0.1c0,0.6,0,1.3,0,1.9c0,0,0,0,0,0c0.5-0.7,0.9-1.4,1.4-2c0.7,0,1.4-0.1,2.1-0.1c-0.7,0.8-1.3,1.7-2,2.5
					c0.7,0.9,1.4,1.8,2.1,2.8c-0.7,0-1.5,0.1-2.2,0.1C325.2,94,324.7,93.4,324.3,92.7z"/>
				<path class="st0" d="M328.3,97.6c-0.8,0-1.5-0.3-2.1-0.8c-0.6-0.6-0.9-1.3-0.9-2.1v-5.3c0-1.6,1.3-2.9,2.9-3
					c1.2-0.1,2.5-0.1,3.7-0.1c0,0,0,0,0.1,0c0.8,0,1.5,0.3,2.1,0.8c0.6,0.6,0.9,1.3,0.9,2.1v1.5c0,0.3,0,0.6-0.1,0.8v0.3
					c0.2,0.4,0.2,0.8,0.2,1.2v1.5c0,1.6-1.3,2.9-2.9,3c-1.2,0-2.5,0.1-3.8,0.1C328.3,97.6,328.3,97.6,328.3,97.6z"/>
				<path class="st0" d="M328.3,89.3c1.2,0,2.4-0.1,3.7-0.1c0,0.5,0,1,0,1.5c-0.7,0-1.3,0-2,0.1c0,0.2,0,0.3,0,0.5
					c0.6,0,1.2,0,1.9-0.1c0,0.5,0,0.9,0,1.4c-0.6,0-1.2,0-1.9,0.1c0,0.2,0,0.3,0,0.5c0.7,0,1.4,0,2.1-0.1c0,0.5,0,1,0,1.5
					c-1.3,0-2.5,0.1-3.8,0.1C328.3,92.8,328.3,91.1,328.3,89.3z"/>
				<path class="st0" d="M333.7,97.4c-0.8,0-1.5-0.3-2.1-0.9c-0.6-0.6-0.9-1.3-0.9-2.1v-1.3c-0.1-0.1-0.3-0.2-0.4-0.3
					c-0.6-0.6-0.9-1.3-0.9-2.1v-1.5c0-1.6,1.3-2.9,2.9-3c1.5,0,3-0.1,4.5-0.1c0,0,0,0,0,0c0.8,0,1.5,0.3,2.1,0.9
					c0.6,0.6,0.9,1.3,0.9,2.1v1.5c0,1-0.5,1.9-1.3,2.5v1.3c0,1.6-1.3,3-3,3C334.9,97.4,334.3,97.4,333.7,97.4
					C333.7,97.4,333.7,97.4,333.7,97.4z"/>
				<path class="st0" d="M335.5,94.4c-0.6,0-1.2,0-1.8,0c0-1.3,0-2.5,0-3.8c-0.4,0-0.9,0-1.3,0c0-0.5,0-1,0-1.5
					c1.5,0,2.9-0.1,4.4-0.1c0,0.5,0,1,0,1.5c-0.4,0-0.9,0-1.3,0C335.5,91.9,335.5,93.2,335.5,94.4z"/>
				<path class="st0" d="M342.6,97.4c-1.2,0-2.4,0-3.5-0.1c-1.6,0-3-1.3-3-3v-5.3c0-0.8,0.3-1.6,0.9-2.1c0.6-0.6,1.3-0.9,2.1-0.9
					c0,0,0,0,0,0c0.6,0,1.2,0,1.8,0c1.6,0,2.9,1.3,2.9,3v1.1c1,0.5,1.8,1.5,1.8,2.7v1.5c0,0.8-0.3,1.6-0.9,2.1
					C344.2,97.1,343.4,97.4,342.6,97.4C342.6,97.4,342.6,97.4,342.6,97.4z"/>
				<path class="st0" d="M339,89.1c0.6,0,1.2,0,1.8,0c0,1.3,0,2.5,0,3.8c0.6,0,1.2,0,1.8,0c0,0.5,0,1,0,1.5c-1.2,0-2.4,0-3.6-0.1
					C339,92.7,339,90.9,339,89.1z"/>
				<path class="st0" d="M346.9,97.6c-1.2-0.1-2.5-0.1-3.8-0.1c-1.6,0-2.9-1.4-2.9-3v-5.3c0-0.8,0.3-1.6,0.9-2.1
					c0.6-0.5,1.3-0.8,2.1-0.8c0,0,0.1,0,0.1,0c1.2,0,2.5,0.1,3.7,0.1c1.6,0.1,2.9,1.4,2.9,3v1.5c0,0.3,0,0.6-0.1,0.8v0.3
					c0.2,0.4,0.2,0.8,0.2,1.2v1.5c0,0.8-0.3,1.6-0.9,2.1c-0.6,0.5-1.3,0.8-2.1,0.8C347,97.6,346.9,97.6,346.9,97.6z"/>
				<path class="st0" d="M343.2,89.2c1.2,0,2.4,0.1,3.7,0.1c0,0.5,0,1,0,1.5c-0.7,0-1.3-0.1-2-0.1c0,0.2,0,0.3,0,0.5
					c0.6,0,1.2,0,1.9,0.1c0,0.5,0,0.9,0,1.4c-0.6,0-1.2,0-1.9-0.1c0,0.2,0,0.3,0,0.5c0.7,0,1.4,0,2.1,0.1c0,0.5,0,1,0,1.5
					c-1.3-0.1-2.5-0.1-3.8-0.1C343.2,92.7,343.2,91,343.2,89.2z"/>
				<path class="st0" d="M353.2,97.9c-0.1,0-0.1,0-0.2,0c-0.6,0-1.3-0.1-1.9-0.1c-0.4,0-0.8-0.1-1.1-0.3c-0.3,0.1-0.6,0.2-1,0.2
					c-0.1,0-0.1,0-0.2,0c-0.6,0-1.3-0.1-1.9-0.1c-1,0-1.9-0.6-2.4-1.4c-0.5-0.8-0.6-1.8-0.3-2.7c0.7-1.7,1.4-3.5,2.1-5.2
					c0.5-1.1,1.6-1.9,2.8-1.9c0.1,0,0.1,0,0.2,0c0.6,0,1.3,0.1,1.9,0.1c1.2,0.1,2.2,0.8,2.6,1.9c0.7,1.8,1.4,3.6,2.1,5.4
					c0.4,0.9,0.2,2-0.4,2.8C355,97.5,354.2,97.9,353.2,97.9z"/>
				<path class="st0" d="M349.2,89.4c0.6,0,1.3,0.1,1.9,0.1c0.7,1.8,1.4,3.6,2.1,5.4c-0.7,0-1.3-0.1-2-0.1c-0.1-0.3-0.2-0.5-0.3-0.8
					c-0.6,0-1.1-0.1-1.7-0.1c-0.1,0.3-0.2,0.5-0.3,0.8c-0.6,0-1.3-0.1-1.9-0.1C347.8,92.9,348.5,91.2,349.2,89.4z M350.2,91.3
					c-0.1,0.4-0.3,0.9-0.4,1.3c0.3,0,0.6,0,0.9,0C350.4,92.2,350.3,91.8,350.2,91.3z"/>
				<path class="st0" d="M356.5,98.3c-0.2,0-0.4,0-0.6,0c-0.7-0.1-1.5-0.2-2.1-0.5c-0.7-0.3-1.3-0.7-1.8-1.2c-0.5-0.5-1-1.2-1.3-1.9
					c-0.3-0.7-0.5-1.5-0.5-2.3c0-0.8,0.2-1.6,0.5-2.4c0.3-0.7,0.8-1.4,1.4-1.9c0.6-0.5,1.3-0.9,2-1.1c0.5-0.2,1.1-0.2,1.7-0.2
					c0.2,0,0.4,0,0.5,0c0.8,0.1,1.5,0.2,2.2,0.6c0.7,0.3,1.4,0.8,1.9,1.3c0.7,0.7,0.9,1.7,0.7,2.5c0.1,0.3,0.1,0.6,0.1,0.9V95
					c0,1.1-0.6,2.2-1.6,2.7c-0.3,0.1-0.6,0.3-0.9,0.4c-0.3,0.1-0.6,0.1-0.9,0.2c-0.3,0-0.6,0.1-0.9,0.1
					C356.8,98.3,356.7,98.3,356.5,98.3z"/>
				<path class="st0" d="M356.2,95.3c-0.4,0-0.8-0.1-1.2-0.3c-0.4-0.2-0.7-0.4-0.9-0.6c-0.3-0.3-0.5-0.6-0.6-0.9
					c-0.2-0.4-0.2-0.7-0.2-1.2c0-0.4,0.1-0.8,0.2-1.1c0.2-0.3,0.4-0.6,0.6-0.8c0.3-0.2,0.6-0.4,0.9-0.5c0.4-0.1,0.7-0.1,1.1-0.1
					c0.4,0,0.8,0.1,1.2,0.3c0.4,0.2,0.7,0.4,0.9,0.6c-0.3,0.4-0.7,0.8-1,1.2c-0.1-0.1-0.2-0.3-0.4-0.3c-0.2-0.1-0.3-0.1-0.6-0.2
					c-0.1,0-0.3,0-0.4,0.1c-0.1,0-0.3,0.1-0.4,0.2c-0.1,0.1-0.2,0.2-0.3,0.4c-0.1,0.1-0.1,0.3-0.1,0.5c0,0.4,0.1,0.7,0.3,0.9
					c0.2,0.2,0.5,0.4,0.9,0.4c0.1,0,0.2,0,0.2,0c0.1,0,0.1,0,0.2,0c0-0.1,0-0.3,0-0.4c-0.3,0-0.6,0-0.9-0.1c0-0.5,0-0.9,0-1.4
					c0.8,0.1,1.6,0.1,2.4,0.2c0,1,0,1.9,0,2.9c-0.1,0.1-0.3,0.1-0.4,0.2c-0.2,0-0.3,0.1-0.5,0.1c-0.2,0-0.4,0-0.6,0.1
					C356.6,95.3,356.4,95.3,356.2,95.3z"/>
				<path class="st0" d="M362,98.9c-0.2,0-0.5,0-0.7,0c-0.7-0.1-1.4-0.3-2-0.6c-0.7-0.3-1.2-0.7-1.7-1.2c-0.5-0.5-0.8-1.1-1.1-1.8
					c-0.2-0.6-0.3-1.2-0.3-1.9v-3.2c0-0.8,0.4-1.6,1-2.2c0.6-0.5,1.3-0.8,2-0.8c0.1,0,0.2,0,0.3,0c0.6,0.1,1.2,0.1,1.8,0.2
					c0.2,0,0.5,0.1,0.7,0.2c0.1,0,0.3,0,0.4,0c0.1,0,0.2,0,0.3,0c0.6,0.1,1.2,0.1,1.8,0.2c1.5,0.2,2.6,1.4,2.6,3v3.2
					c0,0.7-0.1,1.4-0.4,2c-0.3,0.7-0.7,1.3-1.3,1.8c-0.6,0.5-1.2,0.8-2,1C363,98.8,362.5,98.9,362,98.9z"/>
				<path class="st0" d="M361.6,95.9c-0.4,0-0.8-0.1-1.1-0.3c-0.3-0.1-0.6-0.3-0.8-0.5c-0.2-0.2-0.4-0.5-0.5-0.7
					c-0.1-0.3-0.2-0.6-0.2-0.9c0-1.1,0-2.1,0-3.2c0.6,0.1,1.2,0.1,1.8,0.2c0,1,0,2,0,3c0,0.3,0.1,0.5,0.2,0.6
					c0.1,0.2,0.3,0.2,0.5,0.3c0.2,0,0.4,0,0.5-0.2c0.1-0.1,0.2-0.3,0.2-0.6c0-1,0-2,0-3c0.6,0.1,1.2,0.1,1.8,0.2c0,1.1,0,2.1,0,3.2
					c0,0.3-0.1,0.6-0.2,0.9c-0.1,0.3-0.3,0.5-0.5,0.6c-0.2,0.2-0.5,0.3-0.8,0.4C362.4,95.9,362,95.9,361.6,95.9z"/>
				<path class="st0" d="M368.8,99.6c-0.1,0-0.3,0-0.4,0c-1.2-0.2-2.5-0.3-3.7-0.5c-1.5-0.2-2.6-1.5-2.6-3v-5.3c0-0.9,0.4-1.7,1-2.2
					c0.5-0.5,1.3-0.7,2-0.7c0.1,0,0.2,0,0.4,0c1.2,0.2,2.5,0.3,3.7,0.5c1.5,0.2,2.6,1.5,2.6,2.9v1.5c0,0.3,0,0.6-0.1,0.8v0.3
					c0.2,0.4,0.2,0.8,0.2,1.2v1.5c0,0.9-0.4,1.7-1,2.2C370.2,99.3,369.5,99.6,368.8,99.6z"/>
				<path class="st0" d="M365,90.8c1.2,0.1,2.4,0.3,3.7,0.5c0,0.5,0,1,0,1.5c-0.7-0.1-1.3-0.2-2-0.3c0,0.2,0,0.3,0,0.5
					c0.6,0.1,1.2,0.2,1.9,0.2c0,0.5,0,0.9,0,1.4c-0.6-0.1-1.2-0.2-1.9-0.2c0,0.2,0,0.3,0,0.5c0.7,0.1,1.4,0.2,2.1,0.3
					c0,0.5,0,1,0,1.5c-1.3-0.2-2.5-0.3-3.8-0.5C365,94.3,365,92.6,365,90.8z"/>
			</g>
			<g>
				<path class="st0" d="M270.9,128.9c-0.8,0-1.6-0.3-2.1-0.9c-0.8-0.8-1-2-0.7-3c2.2-6.5,4.5-13,6.8-19.4c0.3-0.9,1.1-1.6,2-1.9
					c2.1-0.6,4.2-1.1,6.2-1.6c0.2-0.1,0.5-0.1,0.7-0.1c1.2,0,2.3,0.7,2.7,1.8c2.2,5.3,4.5,10.6,6.8,15.9c0.3,0.8,0.3,1.7-0.1,2.5
					c-0.4,0.8-1.2,1.4-2,1.5c-2.1,0.4-4.2,0.9-6.3,1.4c-0.2,0.1-0.5,0.1-0.7,0.1c-1.2,0-2.3-0.7-2.7-1.8c-0.4,0.1-0.9,0.2-1.3,0.3
					l-0.4,1.2c-0.3,1-1.1,1.7-2.1,2c-2,0.6-4,1.1-6,1.8C271.4,128.8,271.2,128.9,270.9,128.9z"/>
				<path class="st0" d="M277.6,106.5c2-0.6,4.1-1.1,6.2-1.6c2.2,5.3,4.5,10.6,6.8,15.9c-2.1,0.4-4.2,0.9-6.3,1.4
					c-0.3-0.8-0.6-1.6-0.9-2.3c-1.8,0.5-3.7,0.9-5.5,1.4c-0.3,0.9-0.6,1.9-0.8,2.8c-2,0.6-4.1,1.2-6.1,1.8
					C273.1,119.4,275.4,112.9,277.6,106.5z M280.6,111.8c-0.5,1.6-0.9,3.1-1.4,4.7c0.9-0.2,1.9-0.5,2.8-0.7
					C281.5,114.4,281.1,113.1,280.6,111.8z"/>
				<path class="st0" d="M298.1,122.6c-0.8,0-1.6-0.1-2.4-0.2c-1.6-0.3-3-0.9-4.2-1.9c-1.2-0.9-2.2-2.1-2.9-3.6
					c-0.7-1.4-1-3.1-1-4.9c0-1.8,0.3-3.5,0.9-5.1c0.6-1.6,1.5-3,2.5-4.2c1.1-1.2,2.4-2.3,3.8-3.1c1.5-0.8,3-1.4,4.7-1.6
					c0.8-0.1,1.6-0.2,2.3-0.2c0.9,0,1.8,0.1,2.6,0.3c1.6,0.3,3.1,1,4.2,1.9c1.3,1,1.5,2.8,0.6,4.1c-1.2,1.6-2.4,3.2-3.6,4.8
					c-0.2,0.2-0.4,0.5-0.6,0.6c0.1,0.1,0.3,0.2,0.4,0.3c1.2,1.3,2.4,2.5,3.6,3.8c1.1,1.1,1.1,2.9,0.1,4c-1,1.1-2.3,2.1-3.7,2.9
					c-1.4,0.8-3.1,1.4-4.9,1.7C299.7,122.6,298.9,122.6,298.1,122.6z M301.1,109.4c-0.1,0-0.1,0-0.2,0c-0.1,0-0.3,0.1-0.4,0.1
					c-0.1,0.1-0.2,0.2-0.3,0.3c-0.1,0.1-0.2,0.3-0.2,0.4c-0.1,0.2-0.1,0.4-0.1,0.6c0,0.1,0,0.1,0,0.2c0,0,0,0,0.1,0
					c0.2,0,0.4-0.1,0.5-0.2c0.3-0.2,0.4-0.3,0.4-0.4c0.2-0.3,0.4-0.5,0.7-0.7C301.3,109.6,301.2,109.5,301.1,109.4
					C301.1,109.4,301.1,109.4,301.1,109.4z"/>
				<path class="st0" d="M290.5,112.1c0-1.4,0.2-2.7,0.7-4c0.5-1.2,1.2-2.3,2-3.3c0.9-1,1.9-1.8,3-2.4c1.2-0.6,2.4-1.1,3.7-1.3
					c1.3-0.2,2.6-0.2,3.8,0c1.2,0.3,2.2,0.7,3,1.3c-1.2,1.6-2.4,3.2-3.6,4.9c-0.3-0.4-0.7-0.6-1.2-0.8c-0.5-0.1-1-0.2-1.7-0.1
					c-0.5,0.1-1,0.2-1.4,0.5c-0.4,0.2-0.8,0.6-1.1,0.9c-0.3,0.4-0.6,0.8-0.8,1.3c-0.2,0.5-0.3,1-0.3,1.6c0,0.6,0.1,1.1,0.3,1.5
					c0.2,0.4,0.4,0.8,0.8,1c0.3,0.3,0.7,0.5,1.1,0.6c0.4,0.1,0.9,0.1,1.4,0c0.7-0.1,1.3-0.3,1.7-0.7c0.5-0.4,0.9-0.7,1.1-1.2
					c1.2,1.3,2.4,2.5,3.6,3.8c-0.8,0.9-1.8,1.7-2.9,2.3c-1.2,0.6-2.5,1.1-3.9,1.3c-1.3,0.2-2.6,0.2-3.7,0c-1.2-0.2-2.2-0.7-3-1.3
					c-0.9-0.6-1.5-1.5-2-2.5C290.8,114.7,290.5,113.5,290.5,112.1z"/>
				<path class="st0" d="M306.2,121c-0.9,0-1.8-0.4-2.3-1.1c-0.7-0.8-0.8-1.9-0.5-2.9c2.3-6.1,4.6-12.2,6.9-18.3
					c0.4-1,1.4-1.8,2.5-1.9c2.1-0.2,4.3-0.4,6.4-0.6c0.1,0,0.2,0,0.2,0c1.2,0,2.3,0.7,2.8,1.9c2.3,5.6,4.6,11.3,6.9,17
					c0.4,0.9,0.3,1.9-0.3,2.7c-0.5,0.8-1.4,1.3-2.4,1.4c-2.1,0.1-4.3,0.2-6.4,0.4c-0.1,0-0.2,0-0.2,0c-1.2,0-2.4-0.8-2.8-1.9
					l-0.1-0.4c-0.5,0-0.9,0.1-1.4,0.1l-0.3,0.8c-0.4,1.1-1.3,1.9-2.5,2c-2.1,0.2-4.1,0.5-6.2,0.8C306.4,121,306.3,121,306.2,121z"/>
				<path class="st0" d="M313.1,99.7c2.1-0.2,4.2-0.4,6.3-0.6c2.3,5.6,4.6,11.3,6.9,17c-2.2,0.1-4.3,0.2-6.5,0.4
					c-0.3-0.8-0.6-1.7-0.9-2.5c-1.9,0.2-3.7,0.3-5.6,0.5c-0.3,0.9-0.6,1.8-0.9,2.7c-2.1,0.2-4.2,0.5-6.3,0.8
					C308.5,111.9,310.8,105.8,313.1,99.7z M316.1,105.5c-0.5,1.5-1,3-1.4,4.5c1-0.1,1.9-0.2,2.9-0.3
					C317.1,108.3,316.6,106.9,316.1,105.5z"/>
				<path class="st0" d="M327.5,119.1c-0.8,0-1.5-0.3-2.1-0.8c-0.6-0.6-0.9-1.3-0.9-2.2V98.6c0-1.6,1.3-2.9,2.8-3
					c2.2-0.1,4.5-0.2,6.7-0.2c0.1,0,0.2,0,0.3,0c1.5,0,3,0.2,4.3,0.5c1.7,0.4,3.2,1,4.5,1.9c1.4,1,2.5,2.2,3.3,3.8
					c0.8,1.5,1.2,3.4,1.2,5.6c0,2-0.4,3.8-1.2,5.3c-0.8,1.5-1.8,2.8-3.1,3.7c-1.2,0.9-2.6,1.6-4.2,2c-1.5,0.4-3,0.6-4.6,0.6
					c-2.3,0-4.7,0.1-7,0.2C327.6,119.1,327.5,119.1,327.5,119.1z"/>
				<path class="st0" d="M327.5,116.1c0-5.8,0-11.6,0-17.5c2.2-0.1,4.4-0.2,6.6-0.2c1.4,0,2.7,0.1,4,0.4c1.3,0.3,2.4,0.8,3.4,1.4
					c1,0.7,1.8,1.6,2.3,2.7c0.6,1.1,0.9,2.5,0.9,4.2c0,1.5-0.3,2.8-0.8,3.9c-0.6,1.1-1.3,2-2.2,2.7c-0.9,0.7-2,1.2-3.2,1.6
					c-1.2,0.3-2.5,0.5-3.8,0.5C332.2,115.9,329.9,116,327.5,116.1z M333.2,103.5c0,2.5,0,5,0,7.4c0.4,0,0.7,0,1.1,0
					c1.4,0,2.5-0.3,3.2-0.9c0.7-0.6,1.1-1.6,1.1-2.9c0-1.1-0.4-2-1.1-2.6c-0.7-0.6-1.7-0.9-3-0.9
					C334.1,103.4,333.7,103.4,333.2,103.5z"/>
				<path class="st0" d="M359.7,120c-0.1,0-0.2,0-0.3,0c-4.1-0.4-8.3-0.7-12.4-0.9c-1.6-0.1-2.8-1.4-2.8-3V98.6
					c0-0.8,0.3-1.6,0.9-2.2c0.6-0.5,1.3-0.8,2.1-0.8c0,0,0.1,0,0.1,0c4.1,0.2,8.2,0.5,12.3,0.9c1.5,0.1,2.7,1.4,2.7,3v4.9
					c0,0.5-0.1,1-0.4,1.5v4.2c0.5,0.5,0.8,1.3,0.8,2.1v4.9c0,0.8-0.4,1.6-1,2.2C361.2,119.7,360.4,120,359.7,120z"/>
				<path class="st0" d="M347.2,98.6c4,0.2,8.1,0.5,12.1,0.8c0,1.6,0,3.3,0,4.9c-2.2-0.2-4.4-0.4-6.5-0.5c0,0.5,0,1,0,1.5
					c2.1,0.1,4.1,0.3,6.1,0.5c0,1.5,0,3,0,4.6c-2-0.2-4.1-0.4-6.1-0.5c0,0.5,0,1.1,0,1.6c2.3,0.2,4.6,0.4,7,0.6c0,1.6,0,3.3,0,4.9
					c-4.2-0.4-8.4-0.7-12.6-0.9C347.2,110.3,347.2,104.5,347.2,98.6z"/>
				<path class="st0" d="M383.8,123.7c-0.2,0-0.4,0-0.6-0.1c-1.9-0.4-3.8-0.8-5.6-1.1c-0.6-0.1-1.1-0.4-1.5-0.8
					c-0.4,0.2-0.8,0.2-1.2,0.2c-0.2,0-0.3,0-0.5,0c-1.4-0.2-2.7-0.4-4.1-0.6c-0.5-0.1-1-0.3-1.5-0.6c-0.4,0.2-0.8,0.2-1.2,0.2
					c-0.1,0-0.3,0-0.4,0c-1.8-0.2-3.6-0.5-5.4-0.7c-1.5-0.2-2.7-1.4-2.7-3V99.8c0-0.8,0.4-1.7,1-2.2c0.5-0.5,1.3-0.8,2-0.8
					c0.1,0,0.2,0,0.3,0c2.6,0.3,5.2,0.6,7.8,1c1.1,0.2,2.1,1,2.4,2c0.1,0.4,0.2,0.7,0.3,1.1c0,0,0,0,0-0.1c0.4-1.3,1.6-2.1,2.8-2.1
					c0.2,0,0.3,0,0.5,0c2.7,0.5,5.4,1,8,1.5c1.4,0.3,2.4,1.5,2.4,2.9v17.5c0,0.9-0.4,1.7-1.1,2.3
					C385.2,123.5,384.5,123.7,383.8,123.7z"/>
				<path class="st0" d="M367.4,108c0.1,3.3,0.2,6.6,0.3,9.9c-1.8-0.2-3.7-0.5-5.5-0.7c0-5.8,0-11.6,0-17.5c2.6,0.3,5.2,0.6,7.7,1
					c1.1,3.3,2.1,6.6,3.2,9.9c0,0,0.1,0,0.1,0c0.9-3,1.8-6,2.7-8.9c2.6,0.5,5.3,1,7.9,1.5c0,5.8,0,11.6,0,17.5
					c-1.9-0.4-3.8-0.8-5.7-1.1c0.1-3.3,0.1-6.5,0.2-9.8c0,0-0.1,0-0.1-0.1c-1.1,3.1-2.2,6.2-3.3,9.3c-1.4-0.2-2.8-0.5-4.2-0.7
					c-1.1-3.4-2.1-6.9-3.2-10.3C367.5,108,367.4,108,367.4,108z"/>
				<path class="st0" d="M397.2,126.9c-0.3,0-0.5,0-0.8-0.1c-1.9-0.5-3.8-1-5.7-1.5c-1.3-0.3-2.3-1.5-2.3-2.9V116
					c-2-3.7-4.1-7.4-6.2-11.1c-0.6-1-0.5-2.3,0.2-3.2c0.6-0.8,1.5-1.2,2.4-1.2c0.2,0,0.4,0,0.6,0.1c2.4,0.5,4.8,1.1,7.1,1.6
					c0.9,0.2,1.6,0.8,2,1.6c0.1,0.2,0.2,0.5,0.4,0.7c0.6-0.7,1.4-1.1,2.3-1.1c0.3,0,0.5,0,0.8,0.1c2.3,0.6,4.6,1.3,6.9,2
					c0.9,0.3,1.7,1,2,2c0.3,1,0.1,2-0.6,2.7c-2,2.5-4.1,5-6.1,7.5v6.1c0,0.9-0.4,1.8-1.2,2.4C398.5,126.7,397.8,126.9,397.2,126.9z"
					/>
				<path class="st0" d="M397.2,123.9c-1.9-0.5-3.9-1-5.8-1.5c0-2.4,0-4.8,0-7.2c-2.2-4-4.4-7.9-6.5-11.8c2.3,0.5,4.7,1,7,1.6
					c0.9,1.9,1.8,3.9,2.7,5.8c0.9-1.5,1.7-3,2.6-4.4c2.3,0.6,4.5,1.3,6.8,2c-2.3,2.7-4.5,5.5-6.8,8.3
					C397.2,119.2,397.2,121.5,397.2,123.9z"/>
			</g>
			<polygon class="st0" points="280.6,111.8 293.5,108.6 305.5,96.7 329.4,94.9 354.1,94.4 365,103.5 379.4,113 323.7,109.8
				300.4,113.9 279.2,116.5 			"/>
		</g>
		<g>
			<g>
				<path class="st2" d="M305.5,91.4c0.8-0.1,1.5-0.2,2.3-0.3c0.3,0,0.5,0,0.8,0c0.3,0,0.5,0.1,0.7,0.2c0.2,0.1,0.4,0.3,0.5,0.5
					c0.1,0.2,0.2,0.5,0.2,0.8c0,0.3-0.1,0.6-0.2,0.9c-0.2,0.3-0.4,0.5-0.7,0.7c0.4,0.7,0.9,1.3,1.3,2c-0.7,0.1-1.4,0.2-2.1,0.3
					c-0.3-0.6-0.7-1.2-1-1.8c0,0,0,0-0.1,0c0,0.6,0,1.3,0,1.9c-0.6,0.1-1.2,0.2-1.7,0.2C305.5,94.9,305.5,93.1,305.5,91.4z
					 M307.2,93.4c0.1,0,0.2,0,0.3,0c0.1,0,0.1,0,0.2,0c0.1,0,0.1,0,0.2-0.1c0.1,0,0.1-0.1,0.2-0.2c0-0.1,0.1-0.1,0.1-0.2
					c0-0.1,0-0.2-0.1-0.2c0-0.1-0.1-0.1-0.1-0.1c-0.1,0-0.1,0-0.2,0c-0.1,0-0.1,0-0.2,0c-0.1,0-0.3,0-0.4,0.1
					C307.2,92.8,307.2,93.1,307.2,93.4z"/>
				<path class="st2" d="M310.6,93.3c0-0.4,0.1-0.8,0.2-1.2c0.2-0.4,0.4-0.7,0.6-0.9c0.3-0.3,0.6-0.5,0.9-0.7
					c0.4-0.2,0.8-0.3,1.2-0.3c0.4,0,0.8,0,1.2,0.1c0.4,0.1,0.7,0.2,0.9,0.5c0.3,0.2,0.5,0.5,0.6,0.8c0.2,0.3,0.2,0.7,0.2,1.1
					c0,0.4-0.1,0.8-0.2,1.2c-0.2,0.4-0.4,0.7-0.6,1c-0.3,0.3-0.6,0.5-0.9,0.7c-0.4,0.2-0.8,0.3-1.2,0.3c-0.4,0-0.8,0-1.2-0.1
					c-0.4-0.1-0.7-0.2-0.9-0.5c-0.3-0.2-0.5-0.5-0.6-0.8C310.7,94.1,310.6,93.8,310.6,93.3z M312.5,93.1c0,0.2,0,0.3,0.1,0.5
					c0.1,0.1,0.1,0.3,0.2,0.3c0.1,0.1,0.2,0.2,0.3,0.2c0.1,0,0.3,0.1,0.4,0c0.2,0,0.3-0.1,0.4-0.1c0.1-0.1,0.2-0.2,0.3-0.3
					c0.1-0.1,0.2-0.2,0.2-0.4c0.1-0.1,0.1-0.3,0.1-0.5c0-0.2,0-0.3-0.1-0.5c-0.1-0.1-0.1-0.2-0.2-0.3c-0.1-0.1-0.2-0.2-0.3-0.2
					c-0.1,0-0.3-0.1-0.4,0c-0.2,0-0.3,0.1-0.4,0.1c-0.1,0.1-0.2,0.2-0.3,0.3c-0.1,0.1-0.2,0.2-0.2,0.4
					C312.5,92.8,312.5,92.9,312.5,93.1z"/>
				<path class="st2" d="M317,92.7c0-0.4,0.1-0.8,0.2-1.2c0.2-0.4,0.4-0.7,0.6-0.9c0.3-0.3,0.6-0.5,0.9-0.6c0.4-0.2,0.7-0.3,1.1-0.3
					c0.4,0,0.8,0,1.2,0.1c0.4,0.1,0.7,0.3,0.9,0.5c-0.4,0.5-0.7,0.9-1.1,1.4c-0.1-0.1-0.2-0.2-0.4-0.3c-0.1-0.1-0.3-0.1-0.5-0.1
					c-0.1,0-0.3,0-0.4,0.1c-0.1,0.1-0.2,0.1-0.3,0.3c-0.1,0.1-0.2,0.2-0.2,0.4c-0.1,0.1-0.1,0.3-0.1,0.5c0,0.2,0,0.3,0.1,0.5
					c0.1,0.1,0.1,0.2,0.2,0.3c0.1,0.1,0.2,0.2,0.3,0.2c0.1,0,0.3,0.1,0.4,0c0.2,0,0.4-0.1,0.5-0.2c0.1-0.1,0.3-0.2,0.3-0.3
					c0.4,0.4,0.7,0.8,1.1,1.2c-0.2,0.3-0.5,0.5-0.9,0.6c-0.4,0.2-0.8,0.3-1.2,0.3c-0.4,0-0.8,0-1.1-0.1c-0.4-0.1-0.7-0.3-0.9-0.5
					c-0.3-0.2-0.5-0.5-0.6-0.8C317.1,93.5,317,93.1,317,92.7z"/>
				<path class="st2" d="M324.3,92.7C324.3,92.7,324.3,92.7,324.3,92.7c0,0.7,0,1.4,0,2.1c-0.6,0-1.2,0.1-1.7,0.1c0-1.8,0-3.5,0-5.3
					c0.6,0,1.2-0.1,1.7-0.1c0,0.6,0,1.3,0,1.9c0,0,0,0,0,0c0.5-0.7,0.9-1.4,1.4-2c0.7,0,1.4-0.1,2.1-0.1c-0.7,0.8-1.3,1.7-2,2.5
					c0.7,0.9,1.4,1.8,2.1,2.8c-0.7,0-1.5,0.1-2.2,0.1C325.2,94,324.7,93.4,324.3,92.7z"/>
				<path class="st2" d="M328.3,89.3c1.2,0,2.4-0.1,3.7-0.1c0,0.5,0,1,0,1.5c-0.7,0-1.3,0-2,0.1c0,0.2,0,0.3,0,0.5
					c0.6,0,1.2,0,1.9-0.1c0,0.5,0,0.9,0,1.4c-0.6,0-1.2,0-1.9,0.1c0,0.2,0,0.3,0,0.5c0.7,0,1.4,0,2.1-0.1c0,0.5,0,1,0,1.5
					c-1.3,0-2.5,0.1-3.8,0.1C328.3,92.8,328.3,91.1,328.3,89.3z"/>
				<path class="st2" d="M335.5,94.4c-0.6,0-1.2,0-1.8,0c0-1.3,0-2.5,0-3.8c-0.4,0-0.9,0-1.3,0c0-0.5,0-1,0-1.5
					c1.5,0,2.9-0.1,4.4-0.1c0,0.5,0,1,0,1.5c-0.4,0-0.9,0-1.3,0C335.5,91.9,335.5,93.2,335.5,94.4z"/>
				<path class="st2" d="M339,89.1c0.6,0,1.2,0,1.8,0c0,1.3,0,2.5,0,3.8c0.6,0,1.2,0,1.8,0c0,0.5,0,1,0,1.5c-1.2,0-2.4,0-3.6-0.1
					C339,92.7,339,90.9,339,89.1z"/>
				<path class="st2" d="M343.2,89.2c1.2,0,2.4,0.1,3.7,0.1c0,0.5,0,1,0,1.5c-0.7,0-1.3-0.1-2-0.1c0,0.2,0,0.3,0,0.5
					c0.6,0,1.2,0,1.9,0.1c0,0.5,0,0.9,0,1.4c-0.6,0-1.2,0-1.9-0.1c0,0.2,0,0.3,0,0.5c0.7,0,1.4,0,2.1,0.1c0,0.5,0,1,0,1.5
					c-1.3-0.1-2.5-0.1-3.8-0.1C343.2,92.7,343.2,91,343.2,89.2z"/>
				<path class="st2" d="M349.2,89.4c0.6,0,1.3,0.1,1.9,0.1c0.7,1.8,1.4,3.6,2.1,5.4c-0.7,0-1.3-0.1-2-0.1c-0.1-0.3-0.2-0.5-0.3-0.8
					c-0.6,0-1.1-0.1-1.7-0.1c-0.1,0.3-0.2,0.5-0.3,0.8c-0.6,0-1.3-0.1-1.9-0.1C347.8,92.9,348.5,91.2,349.2,89.4z M350.1,91.3
					c-0.1,0.4-0.3,0.9-0.4,1.3c0.3,0,0.6,0,0.9,0C350.4,92.2,350.3,91.8,350.1,91.3z"/>
				<path class="st2" d="M356.2,95.3c-0.4,0-0.8-0.1-1.2-0.3c-0.4-0.2-0.7-0.4-0.9-0.6c-0.3-0.3-0.5-0.6-0.6-0.9
					c-0.2-0.4-0.2-0.7-0.2-1.2c0-0.4,0.1-0.8,0.2-1.1c0.2-0.3,0.4-0.6,0.6-0.8c0.3-0.2,0.6-0.4,0.9-0.5c0.4-0.1,0.7-0.1,1.1-0.1
					c0.4,0,0.8,0.1,1.2,0.3c0.4,0.2,0.7,0.4,0.9,0.6c-0.3,0.4-0.7,0.8-1,1.2c-0.1-0.1-0.2-0.3-0.4-0.3c-0.2-0.1-0.3-0.1-0.6-0.2
					c-0.1,0-0.3,0-0.4,0.1c-0.1,0-0.3,0.1-0.4,0.2c-0.1,0.1-0.2,0.2-0.3,0.4c-0.1,0.1-0.1,0.3-0.1,0.5c0,0.4,0.1,0.7,0.3,0.9
					c0.2,0.2,0.5,0.4,0.9,0.4c0.1,0,0.2,0,0.2,0c0.1,0,0.1,0,0.2,0c0-0.1,0-0.3,0-0.4c-0.3,0-0.6,0-0.9-0.1c0-0.5,0-0.9,0-1.4
					c0.8,0.1,1.6,0.1,2.4,0.2c0,1,0,1.9,0,2.9c-0.1,0.1-0.3,0.1-0.4,0.2c-0.2,0-0.3,0.1-0.5,0.1c-0.2,0-0.4,0-0.6,0.1
					C356.6,95.3,356.4,95.3,356.2,95.3z"/>
				<path class="st2" d="M361.6,95.9c-0.4,0-0.8-0.1-1.1-0.3c-0.3-0.1-0.6-0.3-0.8-0.5c-0.2-0.2-0.4-0.5-0.5-0.7
					c-0.1-0.3-0.2-0.6-0.2-0.9c0-1.1,0-2.1,0-3.2c0.6,0.1,1.2,0.1,1.8,0.2c0,1,0,2,0,3c0,0.3,0.1,0.5,0.2,0.6
					c0.1,0.2,0.3,0.2,0.5,0.3c0.2,0,0.4,0,0.5-0.2c0.1-0.1,0.2-0.3,0.2-0.6c0-1,0-2,0-3c0.6,0.1,1.2,0.1,1.8,0.2c0,1.1,0,2.1,0,3.2
					c0,0.3-0.1,0.6-0.2,0.9c-0.1,0.3-0.3,0.5-0.5,0.6c-0.2,0.2-0.5,0.3-0.8,0.4C362.4,95.9,362,95.9,361.6,95.9z"/>
				<path class="st2" d="M365,90.8c1.2,0.1,2.4,0.3,3.7,0.5c0,0.5,0,1,0,1.5c-0.7-0.1-1.3-0.2-2-0.3c0,0.2,0,0.3,0,0.5
					c0.6,0.1,1.2,0.2,1.9,0.2c0,0.5,0,0.9,0,1.4c-0.6-0.1-1.2-0.2-1.9-0.2c0,0.2,0,0.3,0,0.5c0.7,0.1,1.4,0.2,2.1,0.3
					c0,0.5,0,1,0,1.5c-1.3-0.2-2.5-0.3-3.8-0.5C365,94.3,365,92.6,365,90.8z"/>
			</g>
			<g>
				<path class="st2" d="M277.6,106.5c2-0.6,4.1-1.1,6.2-1.6c2.2,5.3,4.5,10.6,6.8,15.9c-2.1,0.4-4.2,0.9-6.3,1.4
					c-0.3-0.8-0.6-1.6-0.9-2.3c-1.8,0.5-3.7,0.9-5.5,1.4c-0.3,0.9-0.6,1.9-0.9,2.8c-2,0.6-4.1,1.2-6.1,1.8
					C273.1,119.4,275.4,112.9,277.6,106.5z M280.6,111.8c-0.5,1.6-0.9,3.1-1.4,4.7c0.9-0.2,1.9-0.5,2.8-0.7
					C281.5,114.4,281.1,113.1,280.6,111.8z"/>
				<path class="st2" d="M290.5,112.1c0-1.4,0.2-2.7,0.7-4c0.5-1.2,1.2-2.3,2-3.3c0.9-1,1.9-1.8,3-2.4c1.2-0.6,2.4-1.1,3.7-1.3
					c1.3-0.2,2.6-0.2,3.8,0c1.2,0.3,2.2,0.7,3,1.3c-1.2,1.6-2.4,3.2-3.6,4.9c-0.3-0.4-0.7-0.6-1.2-0.8c-0.5-0.1-1-0.2-1.7-0.1
					c-0.5,0.1-1,0.2-1.4,0.5c-0.4,0.2-0.8,0.6-1.1,0.9c-0.3,0.4-0.6,0.8-0.8,1.3c-0.2,0.5-0.3,1-0.3,1.6c0,0.6,0.1,1.1,0.3,1.5
					c0.2,0.4,0.4,0.8,0.8,1c0.3,0.3,0.7,0.5,1.1,0.6c0.4,0.1,0.9,0.1,1.4,0c0.7-0.1,1.3-0.3,1.7-0.7c0.5-0.4,0.9-0.7,1.1-1.2
					c1.2,1.3,2.4,2.5,3.6,3.8c-0.8,0.9-1.8,1.7-2.9,2.3c-1.2,0.6-2.5,1.1-3.9,1.3c-1.3,0.2-2.6,0.2-3.7,0c-1.2-0.2-2.2-0.7-3-1.3
					c-0.9-0.6-1.5-1.5-2-2.5C290.8,114.7,290.5,113.5,290.5,112.1z"/>
				<path class="st2" d="M313.1,99.7c2.1-0.2,4.2-0.4,6.3-0.6c2.3,5.6,4.6,11.3,6.9,17c-2.2,0.1-4.3,0.2-6.5,0.4
					c-0.3-0.8-0.6-1.7-0.9-2.5c-1.9,0.2-3.7,0.3-5.6,0.5c-0.3,0.9-0.6,1.8-0.9,2.7c-2.1,0.2-4.2,0.5-6.2,0.8
					C308.5,111.9,310.8,105.8,313.1,99.7z M316.1,105.5c-0.5,1.5-1,3-1.4,4.5c1-0.1,1.9-0.2,2.9-0.3
					C317.1,108.3,316.6,106.9,316.1,105.5z"/>
				<path class="st2" d="M327.5,116.1c0-5.8,0-11.6,0-17.5c2.2-0.1,4.4-0.2,6.6-0.2c1.4,0,2.7,0.1,4,0.4c1.3,0.3,2.4,0.8,3.4,1.4
					c1,0.7,1.8,1.6,2.3,2.7c0.6,1.1,0.9,2.5,0.9,4.2c0,1.5-0.3,2.8-0.8,3.9c-0.6,1.1-1.3,2-2.2,2.7c-0.9,0.7-2,1.2-3.2,1.6
					c-1.2,0.3-2.5,0.5-3.8,0.5C332.2,115.9,329.9,116,327.5,116.1z M333.2,103.5c0,2.5,0,5,0,7.4c0.4,0,0.7,0,1.1,0
					c1.4,0,2.5-0.3,3.2-0.9c0.7-0.6,1.1-1.6,1.1-2.9c0-1.1-0.4-2-1.1-2.6c-0.7-0.6-1.7-0.9-3-0.9
					C334.1,103.4,333.7,103.4,333.2,103.5z"/>
				<path class="st2" d="M347.2,98.6c4,0.2,8.1,0.5,12.1,0.8c0,1.6,0,3.3,0,4.9c-2.2-0.2-4.4-0.4-6.5-0.5c0,0.5,0,1,0,1.5
					c2.1,0.1,4.1,0.3,6.1,0.5c0,1.5,0,3,0,4.6c-2-0.2-4.1-0.4-6.1-0.5c0,0.5,0,1.1,0,1.6c2.3,0.2,4.6,0.4,7,0.6c0,1.6,0,3.3,0,4.9
					c-4.2-0.4-8.4-0.7-12.6-0.9C347.2,110.3,347.2,104.5,347.2,98.6z"/>
				<path class="st2" d="M367.4,108c0.1,3.3,0.2,6.6,0.3,9.9c-1.8-0.2-3.7-0.5-5.5-0.7c0-5.8,0-11.6,0-17.5c2.6,0.3,5.2,0.6,7.7,1
					c1.1,3.3,2.1,6.6,3.2,9.9c0,0,0.1,0,0.1,0c0.9-3,1.8-6,2.7-8.9c2.6,0.5,5.3,1,7.9,1.5c0,5.8,0,11.6,0,17.5
					c-1.9-0.4-3.8-0.8-5.7-1.1c0.1-3.3,0.1-6.5,0.2-9.8c0,0-0.1,0-0.1-0.1c-1.1,3.1-2.2,6.2-3.3,9.3c-1.4-0.2-2.8-0.5-4.2-0.7
					c-1.1-3.4-2.1-6.9-3.2-10.3C367.5,108,367.4,108,367.4,108z"/>
				<path class="st2" d="M397.2,123.9c-1.9-0.5-3.9-1-5.8-1.5c0-2.4,0-4.8,0-7.2c-2.2-4-4.4-7.9-6.5-11.8c2.3,0.5,4.7,1,7,1.6
					c0.9,1.9,1.8,3.9,2.7,5.8c0.9-1.5,1.7-3,2.6-4.4c2.3,0.6,4.5,1.3,6.8,2c-2.3,2.7-4.5,5.5-6.8,8.3
					C397.2,119.2,397.2,121.5,397.2,123.9z"/>
			</g>
		</g>
	</g>
</g>
</svg>
