<?xml version="1.0" encoding="utf-8"?>
<!-- Generator: Adobe Illustrator 19.0.1, SVG Export Plug-In . SVG Version: 6.00 Build 0)  -->
<svg version="1.1" id="rlg-logo" xmlns="http://www.w3.org/2000/svg" xmlns:xlink="http://www.w3.org/1999/xlink" x="0px" y="0px"
	 viewBox="0 0 169.4 181.1" style="enable-background:new 0 0 169.4 181.1;" xml:space="preserve" onmouseover="toggleHover();" onmouseout="toggleHover();">
	 <script xmlns="http://www.w3.org/2000/svg" type="text/ecmascript"><![CDATA[function toggleHover(){var e=document.getElementById("car");e.setAttribute("class",e.getAttribute("class")=="is-hovered"?"":"is-hovered")}]]></script>>
<style type="text/css">
	.st0{fill:#FFFFFF;}
	.st1{fill:url(#SVGID_1_);}
	.st2{fill:#459AD5;}
	.st3{display:none;}
	.st4{display:inline;}
</style>
<g>
	<path class="st0" d="M85,181.1c-0.2,0-0.3,0-0.4,0c0,0-0.1,0-0.1,0c-3.9,0-18.7-1.9-44.8-25.7c-11.7-10.7-19.4-33.7-22.7-68.2
		c-2.6-27.1-1.9-54.5-1.6-66.2c0.1-2.3,0.1-4.1,0.1-5.1c0-7.4,9.7-11.5,33.3-14C64.4,0.3,81.1,0,84.3,0c0,0,0.8,0,0.8,0
		c0.1,0,0.3,0,0.4,0c3.9,0.1,20.1,0.4,35.2,2c23.7,2.5,33.3,6.5,33.3,14c0,1,0,2.8,0.1,5.1c0.3,11.7,1,39-1.6,66.2
		c-3.3,34.5-11,57.4-22.7,68.2C103.7,179.3,88.9,181.1,85,181.1L85,181.1z"/>
	<linearGradient id="SVGID_1_" gradientUnits="userSpaceOnUse" x1="19.0782" y1="90.5626" x2="150.3373" y2="90.5626">
		<stop  offset="0" style="stop-color:#459AD5"/>
		<stop  offset="1" style="stop-color:#1173BA"/>
	</linearGradient>
	<path class="st1" d="M149.9,15.9c0-10.7-57.5-11.8-64.8-11.8l0,0c0,0-0.3,0-0.7,0c0,0,0,0,0,0v0c-7.3,0.1-64.8,1.1-64.8,11.8
		c0,11.4-5.5,110.5,22.9,136.4c26.5,24.3,40.5,24.7,42.2,24.6c0.5,0,14.6,0.8,42.4-24.6C155.4,126.4,149.9,27.4,149.9,15.9z"/>
</g>
<g>
	<g>
		<g id="car">
			<polygon class="st2" points="7.8,29 13.5,30.6 20.7,31.1 27.6,26 41.3,32.3 45.1,38.7 61.1,34 74,31 87.8,32.5 120.9,40.6
				141.4,58.6 127.3,75.7 137.1,77 153.2,78.5 150.3,86.1 161.1,97.4 164.8,100.6 164.2,112.5 155.2,123.4 143.4,117.4 142.8,92.1
				133.9,103 114.7,94.9 95.6,89.9 84.2,87.8 77.5,98.9 61.2,105 46.2,86.2 42.8,68.9 34.9,70.6 27.1,72.7 10.7,67.7 2.5,53.3
				3.1,42.9 4.4,31.7 			"/>
			<path class="st0" d="M169.4,74.7c-2.8-3-6.6-4.5-10-5.2l0,0c0,0-0.1,0-0.1,0c-3.9-0.8-7.1-0.6-7.1-0.6l0.5-0.5
				c-11.9-0.4-21.3,8-21.3,8c7.3-8.3,18.7-10.3,24.1-10.8l-9.6-11.4c-5.8-12.7-13.1-12.6-13.1-12.6c5.6-7.8-14.6-11.4-14.6-11.4
				l-0.4,4.9l4.2,2.6l-2.3-0.1c-11.7-6.8-46.2-9.3-46.2-9.3L58.9,34l-14.7-0.3C38.5,26.2,27,24.3,27,24.3l-6.3,6.7l-7.6-2.5
				C-2.1,22.5,2.6,48,2.6,48S0,51,0,59.4c0,8.4,14.1,16.7,21.3,16.7s11.1-3.8,11.1-3.8l8.9,3.1c-3.4,3-1.7,15-1.7,15
				s8,15.8,23.3,17.5s23.7-17.5,23.7-17.5c9,7.7,16.5,3.5,16.5,3.5c2.5,3.9,27.5,13,27.4,16.6c-0.1,3.6,5.5,15.5,17.7,15.8
				c12.3,0.3,19-13,19.1-25.3c0.1-12.3-12.9-14.2-12.9-14.2l0.6-3.1C166,79.5,169.4,74.7,169.4,74.7z M125.8,47.5
				c0,0,11,6.2,12.2,11.5c0,0-5.5-2.1-10.5-2.2c0,0-1.3-7.3-3.6-8.3L125.8,47.5z M116.4,40.9c0,0,6.6,10.7,6.3,14.9l-32,0.5
				c0,0-8.3-5.8-7.2-8.8c0,0,6.2-8.8,11.2-8.9C99.5,38.6,116.4,40.9,116.4,40.9z M96.1,72.6l-5.4,0.2c0,0-1.9-6.8-6.3-9.8
				C84.5,63.1,94.9,68,96.1,72.6z M74,31l14.6,5.4c0,0-8.3,2.5-10.9,5.8c0,0-6,0.2-19.2-6.1C58.6,36.1,67.3,32.5,74,31z M81,50.9
				c-7.4-2.3-14.3-2.7-14.3-2.7c1.7-0.3,1.8-3.6,1.8-3.6C76.5,47,81,50.9,81,50.9z M63,47.7c-5.7-2.8,2-4.5,2-4.5
				C62.3,45.6,63,47.7,63,47.7z M66.6,43.4c0,0,0.3,4-2,4.7C64.6,48.2,66.8,44.2,66.6,43.4z M28.1,27.7c9.2,2.3,12.9,7,11.8,6.6
				c-5.4-1.9-13.5-3.2-13.5-3.2C26.7,30.4,28.1,27.7,28.1,27.7z M8.3,37.9L7.7,53.2l-1.9,0L6,46.1l-1.7,0l0.4-10.5L7.8,29l2,0.1
				l-3.5,7.4L8.3,37.9z M14,57.1l-2.4,0.2l0.5-6.1l-0.6-0.7l-0.8-11.7l3.7-6.5l6.2,1.3c0,0,0.7-0.9,1.1-1.5c0.4-0.6,8.2,2.8,8.8,2.8
				l-15,2.5l0,3.9l4.7,2.3l-1.1,7l-4.3-0.9L14,57.1z M17.6,54.5l1-1.2c0,0,4.7,3.8,9,4.4l-0.9,1.2C26.7,58.9,21.7,58,17.6,54.5z
				 M26.1,60.1l-0.9,1.2c0,0-5-0.8-9.1-4.4l1-1.2C17.1,55.7,21.8,59.5,26.1,60.1z M58,81.4l6.2,3.8l-7.1,8
				C55.7,89.7,56,85.4,58,81.4z M61.4,76.8c3.4-3.3,7.9-4.9,12-4.1l-6.5,9.2L61.4,76.8z M61.3,98.8c-0.5-0.3-1-0.7-1.5-1.2l6.6-7
				l2.5,9.7C66.3,100.6,63.6,100.2,61.3,98.8z M79.5,93c-1.4,2.2-3.2,4-5.2,5.2l-3.4-10.5l10.7,0.6C81.1,89.8,80.4,91.4,79.5,93z
				 M70.8,83.1l5.9-9.2c0.1,0.1,0.2,0.1,0.4,0.2c3.1,2,4.9,5.5,5.1,9.3L70.8,83.1z M97.5,87.4c-0.5-0.3-3.9-2-10-2.7
				c0,0,1.3-8.5-3.1-14.7c-2.3-3.3-8.2-7.4-10-8.6C53.2,54.2,46.4,68,46.4,68l-9-0.8c0,0-3.1,1.8-5.3,2.9c-1.8,0.9,1.3-5,1.8-5.7
				c-0.6,0.8-3.8,7.1-11.9,5.4c-9.3-2-6.4-10.3-6.4-10.3c0.6,0.8,3.3,4.7,7.7,4.6c6.8-0.1,7.3-7.3,7.3-7.3c-5.3-5.4-4.2-8-4.2-8
				c3.8,8.9,8,7.9,8,7.9c0.1-2.9,6.5-6.2,6.5-6.2c-7.4,4.6-5.8,11.1,0.9,11.3c7.4,0.3,5.9-8.5,5.9-8.5c1.9-1.6,9.4-0.7,15.7-0.4
				c-1.5-0.9-2.9-1.6-3.8-1.6c-3.5-0.1-8.1-4.6-8.1-4.6l0.8,0.6c0,0,15.6,1.7,19.8,11.1l0.7,0.6c2,0.3,9.8,2.4,16,14.2
				C95,85.2,97.1,87.1,97.5,87.4c0,0,0.1,0.1,0.1,0.1S97.6,87.4,97.5,87.4z M99.1,69.2c0,0-1.2-4.6-6.8-9.6c0,0,26.3-0.6,38.5,2
				C130.8,61.7,110.7,60.2,99.1,69.2z M117.1,92.9l0.3-1.3l7.5-7l3.1,1.6l-7.8,8.2L117.1,92.9z M132.8,101l-5.3-2.7
				c0,0,7.5-7.5,8.1-8l3.9,1.6C139.5,92,133.9,95.3,132.8,101z M127.4,81.9l5.7-4.5l16.1,6.9l-6.4,4.4L127.4,81.9z M148.3,114
				c-0.1-2.4,0.6-5.2,2.1-7.9c0.1-0.2,0.3-0.5,0.4-0.7l1.6,1.2L148.3,114z M150.9,119.1c-0.9-0.5-1.6-1.4-2-2.5l4.8-6.1l1.4,8.7
				C153.4,119.8,152,119.8,150.9,119.1z M162.1,112.4c-1.2,2.3-2.8,4.1-4.4,5.3l-1.9-9.2l7.9-0.1
				C163.3,109.8,162.8,111.1,162.1,112.4z M164.1,105.4l-7.1,0.1l4.8-6C163.4,100.6,164.2,102.7,164.1,105.4z M159.1,98.9l-4.6,5.4
				l-2-1.4C154.6,100.5,157,99.1,159.1,98.9z"/>
		</g>
		<g class="st3">
			<g class="st4">
				<g>
					<path class="st0" d="M58.8,129.5c-0.2,0-0.4,0-0.5,0c-0.2,0.1-0.4,0.1-0.5,0.1c-0.6,0.1-1.2,0.1-1.7,0.2
						c-1.5,0.2-2.8-0.9-2.8-2.4c0-1.8,0-3.5,0-5.3c0-1.5,1.2-3,2.8-3.1c0.8-0.1,1.5-0.2,2.3-0.3c0.4-0.1,0.9-0.1,1.3,0
						c0.6,0.1,1.2,0.2,1.7,0.5c0.6,0.3,1.1,0.8,1.4,1.4c0.4,0.6,0.5,1.3,0.5,2.1c0,0.6-0.1,1.1-0.3,1.6c0.1,0.1,0.2,0.3,0.3,0.4
						c0.5,0.8,0.6,1.9,0.1,2.8c-0.5,0.9-1.4,1.6-2.4,1.7C60.2,129.3,59.5,129.4,58.8,129.5z"/>
					<path class="st0" d="M56,121.7c0.8-0.1,1.5-0.2,2.3-0.3c0.3,0,0.5,0,0.8,0c0.3,0,0.5,0.1,0.7,0.2c0.2,0.1,0.4,0.3,0.5,0.5
						c0.1,0.2,0.2,0.5,0.2,0.8c0,0.3-0.1,0.6-0.2,0.9c-0.2,0.3-0.4,0.5-0.7,0.6c0.4,0.7,0.9,1.3,1.3,2c-0.7,0.1-1.4,0.1-2.1,0.2
						c-0.3-0.6-0.7-1.2-1-1.8c0,0,0,0-0.1,0c0,0.6,0,1.3,0,1.9c-0.6,0.1-1.2,0.1-1.7,0.2C56,125.3,56,123.5,56,121.7z M57.7,123.8
						c0.1,0,0.2,0,0.3,0c0.1,0,0.1,0,0.2,0c0.1,0,0.1,0,0.2-0.1c0.1,0,0.1-0.1,0.2-0.2c0-0.1,0.1-0.1,0.1-0.2c0-0.1,0-0.2-0.1-0.2
						c0-0.1-0.1-0.1-0.1-0.1c-0.1,0-0.1,0-0.2,0c-0.1,0-0.1,0-0.2,0c-0.1,0-0.3,0-0.4,0.1C57.7,123.2,57.7,123.5,57.7,123.8z"/>
					<path class="st0" d="M64.1,129.1c-0.8,0.1-1.5,0-2.2-0.2c-0.7-0.2-1.3-0.5-1.9-1c-0.5-0.4-1-1-1.3-1.7
						c-0.3-0.7-0.5-1.4-0.5-2.2c0-0.8,0.2-1.6,0.5-2.3c0.3-0.7,0.7-1.4,1.3-2c0.5-0.5,1.2-1,1.9-1.3c0.7-0.3,1.4-0.5,2.1-0.6
						c0.7-0.1,1.5,0,2.1,0.2c0.7,0.2,1.3,0.5,1.9,1c0.6,0.5,1,1,1.3,1.7c0.3,0.7,0.5,1.4,0.5,2.2c0,0.8-0.2,1.6-0.5,2.3
						c-0.3,0.7-0.7,1.4-1.3,1.9c-0.5,0.5-1.2,1-1.9,1.3C65.5,128.8,64.8,129,64.1,129.1z"/>
					<path class="st0" d="M61.1,123.8c0-0.4,0.1-0.8,0.2-1.2c0.1-0.4,0.4-0.7,0.6-0.9c0.3-0.3,0.6-0.5,0.9-0.6
						c0.4-0.2,0.8-0.3,1.2-0.3c0.4,0,0.8,0,1.2,0.1c0.4,0.1,0.7,0.3,0.9,0.5c0.3,0.2,0.5,0.5,0.6,0.8c0.2,0.3,0.2,0.7,0.2,1.1
						c0,0.4-0.1,0.8-0.2,1.2c-0.2,0.4-0.4,0.7-0.6,0.9c-0.3,0.3-0.6,0.5-0.9,0.7c-0.4,0.2-0.8,0.3-1.2,0.3c-0.4,0-0.8,0-1.2-0.1
						c-0.4-0.1-0.7-0.3-0.9-0.5c-0.3-0.2-0.5-0.5-0.6-0.8C61.2,124.6,61.1,124.2,61.1,123.8z M63,123.6c0,0.2,0,0.3,0.1,0.5
						c0.1,0.1,0.1,0.3,0.2,0.4c0.1,0.1,0.2,0.2,0.3,0.2c0.1,0,0.3,0.1,0.4,0c0.2,0,0.3-0.1,0.4-0.1c0.1-0.1,0.2-0.2,0.3-0.3
						c0.1-0.1,0.2-0.2,0.2-0.4c0.1-0.1,0.1-0.3,0.1-0.5c0-0.2,0-0.3-0.1-0.5c-0.1-0.1-0.1-0.2-0.2-0.3c-0.1-0.1-0.2-0.2-0.3-0.2
						c-0.1,0-0.3-0.1-0.4,0c-0.2,0-0.3,0.1-0.4,0.1c-0.1,0.1-0.2,0.2-0.3,0.3c-0.1,0.1-0.2,0.2-0.2,0.4C63,123.2,63,123.4,63,123.6z
						"/>
					<path class="st0" d="M70.4,128.6c-0.7,0-1.5,0-2.1-0.2c-0.7-0.2-1.3-0.6-1.9-1c-0.5-0.5-0.9-1-1.2-1.7
						c-0.3-0.7-0.5-1.4-0.5-2.2c0-0.8,0.2-1.6,0.5-2.3c0.3-0.7,0.7-1.4,1.3-1.9c0.5-0.5,1.2-1,1.9-1.3c0.7-0.3,1.4-0.5,2.1-0.5
						c0.7,0,1.4,0,2.1,0.2c0.7,0.2,1.3,0.6,1.9,1c1.1,0.9,1.2,2.6,0.3,3.8c-0.1,0.1-0.1,0.2-0.2,0.3c0.1,0.1,0.1,0.2,0.2,0.2
						c0.9,1.1,0.9,2.7-0.2,3.8c-0.5,0.5-1.1,1-1.8,1.3C72,128.3,71.2,128.5,70.4,128.6z"/>
					<path class="st0" d="M67.5,123.2c0-0.4,0.1-0.8,0.2-1.2c0.2-0.4,0.4-0.7,0.6-0.9c0.3-0.3,0.6-0.5,0.9-0.6
						c0.4-0.2,0.7-0.2,1.1-0.3c0.4,0,0.8,0,1.2,0.1c0.4,0.1,0.7,0.3,0.9,0.5c-0.4,0.5-0.7,0.9-1.1,1.4c-0.1-0.1-0.2-0.2-0.4-0.3
						c-0.2-0.1-0.3-0.1-0.5-0.1c-0.2,0-0.3,0-0.4,0.1c-0.1,0.1-0.2,0.1-0.3,0.3c-0.1,0.1-0.2,0.2-0.2,0.4c-0.1,0.1-0.1,0.3-0.1,0.5
						c0,0.2,0,0.3,0.1,0.5c0.1,0.1,0.1,0.2,0.2,0.3c0.1,0.1,0.2,0.2,0.3,0.2c0.1,0,0.3,0.1,0.4,0.1c0.2,0,0.4-0.1,0.5-0.2
						c0.1-0.1,0.3-0.2,0.4-0.3c0.4,0.4,0.7,0.8,1.1,1.2c-0.2,0.3-0.5,0.5-0.9,0.6c-0.4,0.2-0.8,0.3-1.2,0.3c-0.4,0-0.8,0-1.1-0.1
						c-0.4-0.1-0.7-0.3-0.9-0.5c-0.3-0.2-0.5-0.5-0.6-0.8C67.6,124,67.5,123.6,67.5,123.2z"/>
					<path class="st0" d="M76.2,128.1c-0.2,0-0.5,0-0.7-0.1c-0.2,0.1-0.5,0.1-0.7,0.1c-0.6,0-1.2,0.1-1.7,0.1
						c-1.5,0.1-2.8-1.1-2.8-2.6c0-1.8,0-3.5,0-5.3c0-1.5,1.3-2.9,2.8-3c0.6,0,1.2-0.1,1.7-0.1c0.2,0,0.5,0,0.7,0.1
						c0.2-0.1,0.5-0.1,0.7-0.1c0.7,0,1.4-0.1,2.1-0.1c1.1,0,2.1,0.6,2.5,1.5c0.5,1,0.3,2.1-0.4,3c-0.2,0.3-0.4,0.5-0.6,0.8
						c0.3,0.4,0.6,0.7,0.8,1.1c0.6,0.8,0.7,1.9,0.2,2.9c-0.5,0.9-1.4,1.6-2.5,1.6C77.7,128,76.9,128.1,76.2,128.1z"/>
					<path class="st0" d="M74.8,123.3C74.8,123.3,74.8,123.3,74.8,123.3c0,0.7,0,1.4,0,2.1c-0.6,0-1.2,0.1-1.7,0.1
						c0-1.8,0-3.5,0-5.3c0.6,0,1.2-0.1,1.7-0.1c0,0.6,0,1.3,0,1.9c0,0,0,0,0,0c0.5-0.7,0.9-1.3,1.4-2c0.7,0,1.4-0.1,2.1-0.1
						c-0.7,0.8-1.3,1.7-2,2.5c0.7,0.9,1.4,1.9,2.1,2.8c-0.7,0-1.5,0.1-2.2,0.1C75.7,124.6,75.2,124,74.8,123.3z"/>
					<path class="st0" d="M78.8,128c-1.5,0-2.8-1.1-2.8-2.7c0-1.8,0-3.5,0-5.3c0-1.5,1.3-2.8,2.8-2.9c1.2,0,2.4-0.1,3.7-0.1
						c1.6,0,2.8,1.2,2.8,2.7c0,0.5,0,1,0,1.5c0,0.3,0,0.6-0.1,0.8c0,0.1,0,0.2,0,0.4c0.2,0.3,0.2,0.7,0.2,1.1c0,0.5,0,1,0,1.5
						c0,1.5-1.3,2.8-2.8,2.8C81.3,127.9,80,128,78.8,128z"/>
					<path class="st0" d="M78.8,119.9c1.2,0,2.4-0.1,3.7-0.1c0,0.5,0,1,0,1.5c-0.7,0-1.3,0-2,0c0,0.2,0,0.3,0,0.5c0.6,0,1.2,0,1.9,0
						c0,0.5,0,0.9,0,1.4c-0.6,0-1.2,0-1.9,0c0,0.2,0,0.3,0,0.5c0.7,0,1.4,0,2.1,0c0,0.5,0,1,0,1.5c-1.3,0-2.5,0.1-3.8,0.1
						C78.8,123.5,78.8,121.7,78.8,119.9z"/>
					<path class="st0" d="M84.2,127.9c-1.6,0-2.8-1.2-2.8-2.7c0-0.5,0-1,0-1.4c-0.8-0.5-1.3-1.3-1.3-2.3c0-0.5,0-1,0-1.5
						c0-1.5,1.3-2.8,2.8-2.8c1.5,0,2.9,0,4.4,0c1.5,0,2.8,1.3,2.8,2.8c0,0.5,0,1,0,1.5c0,1-0.5,1.9-1.3,2.3c0,0.5,0,1,0,1.4
						c0,1.5-1.3,2.8-2.8,2.8C85.4,127.9,84.8,127.9,84.2,127.9z"/>
					<path class="st0" d="M86,125.1c-0.6,0-1.2,0-1.8,0c0-1.3,0-2.5,0-3.8c-0.4,0-0.9,0-1.3,0c0-0.5,0-1,0-1.5c1.5,0,2.9,0,4.4,0
						c0,0.5,0,1,0,1.5c-0.4,0-0.9,0-1.3,0C86,122.6,86,123.8,86,125.1z"/>
					<path class="st0" d="M89.5,127.9c-1.6,0-2.8-1.3-2.8-2.8c0-1.8,0-3.5,0-5.3c0-1.5,1.3-2.8,2.8-2.8c0.6,0,1.2,0,1.8,0
						c1.5,0,2.8,1.3,2.8,2.8c0,0.4,0,0.8,0,1.2c1,0.4,1.8,1.5,1.8,2.6c0,0.5,0,1,0,1.5c0,1.5-1.3,2.7-2.8,2.7
						C91.9,127.9,90.7,127.9,89.5,127.9z"/>
					<path class="st0" d="M89.5,119.8c0.6,0,1.2,0,1.8,0c0,1.3,0,2.5,0,3.8c0.6,0,1.2,0,1.8,0c0,0.5,0,1,0,1.5
						c-1.2,0-2.4-0.1-3.6-0.1C89.5,123.3,89.5,121.6,89.5,119.8z"/>
					<path class="st0" d="M93.7,128c-1.5,0-2.8-1.3-2.8-2.8c0-1.8,0-3.5,0-5.3c0-1.5,1.3-2.8,2.8-2.7c1.2,0,2.4,0.1,3.7,0.1
						c1.5,0.1,2.8,1.4,2.8,2.9c0,0.5,0,1,0,1.5c0,0.3,0,0.6-0.1,0.8c0,0.1,0,0.2,0,0.4c0.2,0.4,0.2,0.8,0.2,1.2c0,0.5,0,1,0,1.5
						c0,1.5-1.3,2.7-2.8,2.6C96.2,128.1,94.9,128,93.7,128z"/>
					<path class="st0" d="M93.7,119.9c1.2,0,2.4,0.1,3.7,0.1c0,0.5,0,1,0,1.5c-0.7,0-1.3-0.1-2-0.1c0,0.2,0,0.3,0,0.5
						c0.6,0,1.2,0,1.9,0.1c0,0.5,0,0.9,0,1.4c-0.6,0-1.2-0.1-1.9-0.1c0,0.2,0,0.3,0,0.5c0.7,0,1.4,0.1,2.1,0.1c0,0.5,0,1,0,1.5
						c-1.3-0.1-2.5-0.1-3.8-0.1C93.7,123.4,93.7,121.7,93.7,119.9z"/>
					<path class="st0" d="M101.7,128.3c-0.4,0-0.8-0.1-1.1-0.3c-0.3,0.1-0.7,0.2-1.1,0.2c-0.6,0-1.3-0.1-1.9-0.1
						c-0.9,0-1.8-0.5-2.3-1.3c-0.5-0.8-0.6-1.7-0.3-2.6c0.7-1.7,1.4-3.5,2.1-5.2c0.4-1,1.5-1.7,2.6-1.6c0.6,0,1.3,0.1,1.9,0.1
						c1.2,0.1,2.2,0.8,2.6,1.9c0.7,1.8,1.4,3.6,2.1,5.4c0.3,0.9,0.2,1.8-0.3,2.6c-0.5,0.7-1.4,1.1-2.3,1
						C103,128.4,102.4,128.4,101.7,128.3z"/>
					<path class="st0" d="M99.7,120.2c0.6,0,1.3,0.1,1.9,0.1c0.7,1.8,1.4,3.6,2.1,5.4c-0.6,0-1.3-0.1-1.9-0.1
						c-0.1-0.3-0.2-0.5-0.3-0.8c-0.6,0-1.1-0.1-1.7-0.1c-0.1,0.3-0.2,0.5-0.3,0.8c-0.6,0-1.3-0.1-1.9-0.1
						C98.3,123.6,99,121.9,99.7,120.2z M100.6,122.1c-0.1,0.4-0.3,0.9-0.4,1.3c0.3,0,0.6,0,0.9,0
						C100.9,122.9,100.8,122.5,100.6,122.1z"/>
					<path class="st0" d="M106.6,128.8c-0.7-0.1-1.5-0.2-2.1-0.5c-0.7-0.3-1.3-0.7-1.9-1.3c-0.5-0.5-1-1.2-1.3-1.9
						c-0.3-0.7-0.5-1.5-0.5-2.3c0-0.8,0.2-1.6,0.5-2.2c0.3-0.7,0.7-1.2,1.3-1.7c0.5-0.5,1.2-0.8,1.8-1c0.7-0.2,1.4-0.3,2.1-0.2
						c0.7,0.1,1.5,0.2,2.1,0.6c0.8,0.3,1.4,0.8,1.9,1.4c0.7,0.7,0.9,1.7,0.8,2.6c0.1,0.3,0.1,0.6,0.1,0.9c0,1,0,1.9,0,2.9
						c0,1-0.5,1.8-1.4,2.2c-0.3,0.1-0.6,0.2-0.9,0.3c-0.3,0.1-0.6,0.1-0.9,0.2c-0.3,0-0.6,0.1-0.9,0.1
						C107.3,128.9,107,128.9,106.6,128.8z"/>
					<path class="st0" d="M106.6,126c-0.4,0-0.8-0.1-1.2-0.3c-0.4-0.2-0.7-0.4-0.9-0.6c-0.3-0.3-0.5-0.6-0.6-0.9
						c-0.2-0.4-0.2-0.7-0.2-1.2c0-0.4,0.1-0.8,0.2-1.1c0.2-0.3,0.4-0.6,0.6-0.8c0.3-0.2,0.6-0.4,0.9-0.5c0.4-0.1,0.7-0.1,1.1-0.1
						c0.4,0,0.8,0.1,1.2,0.3c0.4,0.2,0.7,0.4,0.9,0.6c-0.3,0.4-0.7,0.8-1,1.2c-0.1-0.1-0.2-0.3-0.4-0.3c-0.2-0.1-0.3-0.1-0.6-0.2
						c-0.1,0-0.3,0-0.4,0.1c-0.1,0-0.3,0.1-0.4,0.2c-0.1,0.1-0.2,0.2-0.3,0.4c-0.1,0.1-0.1,0.3-0.1,0.5c0,0.4,0.1,0.7,0.3,0.9
						c0.2,0.2,0.5,0.4,0.9,0.4c0.1,0,0.2,0,0.2,0c0.1,0,0.1,0,0.2,0c0-0.1,0-0.3,0-0.4c-0.3,0-0.6,0-0.9-0.1c0-0.5,0-0.9,0-1.4
						c0.8,0.1,1.6,0.1,2.4,0.2c0,1,0,1.9,0,2.9c-0.1,0.1-0.3,0.1-0.4,0.2c-0.2,0-0.3,0.1-0.5,0.1c-0.2,0-0.4,0-0.6,0.1
						C107,126.1,106.8,126.1,106.6,126z"/>
					<path class="st0" d="M112.1,129.4c-0.7-0.1-1.4-0.3-2.1-0.6c-0.7-0.3-1.3-0.7-1.7-1.2c-0.5-0.5-0.9-1.1-1.1-1.8
						c-0.2-0.6-0.3-1.2-0.3-1.9c0-1.1,0-2.1,0-3.2c0-1.5,1.3-2.7,2.8-2.5c0.6,0.1,1.2,0.1,1.8,0.2c0.2,0,0.5,0.1,0.7,0.2
						c0.2,0,0.5,0,0.7,0c0.6,0.1,1.2,0.1,1.8,0.2c1.5,0.2,2.8,1.6,2.8,3.1c0,1.1,0,2.1,0,3.2c0,0.7-0.1,1.3-0.4,1.9
						c-0.3,0.6-0.6,1.1-1.1,1.6c-0.5,0.4-1.1,0.7-1.7,0.9C113.5,129.4,112.8,129.4,112.1,129.4z"/>
					<path class="st0" d="M112.1,126.6c-0.4,0-0.8-0.1-1.1-0.3c-0.3-0.1-0.6-0.3-0.8-0.5c-0.2-0.2-0.4-0.5-0.5-0.7
						c-0.1-0.3-0.2-0.6-0.2-0.9c0-1.1,0-2.1,0-3.2c0.6,0.1,1.2,0.1,1.8,0.2c0,1,0,2,0,3c0,0.3,0.1,0.5,0.2,0.6
						c0.1,0.2,0.3,0.2,0.5,0.3c0.2,0,0.4,0,0.5-0.2c0.1-0.1,0.2-0.3,0.2-0.6c0-1,0-2,0-3c0.6,0.1,1.2,0.1,1.8,0.2c0,1.1,0,2.1,0,3.2
						c0,0.3-0.1,0.6-0.2,0.9c-0.1,0.3-0.3,0.5-0.5,0.7c-0.2,0.2-0.5,0.3-0.8,0.4C112.8,126.6,112.5,126.6,112.1,126.6z"/>
					<path class="st0" d="M115.5,129.6c-1.5-0.2-2.8-1.6-2.8-3.1c0-1.8,0-3.5,0-5.3c0-1.5,1.3-2.6,2.8-2.5c1.2,0.1,2.4,0.3,3.7,0.5
						c1.5,0.2,2.8,1.6,2.8,3.2c0,0.5,0,1,0,1.5c0,0.3,0,0.5-0.1,0.8c0,0.1,0,0.3,0,0.4c0.2,0.4,0.2,0.8,0.2,1.2c0,0.5,0,1,0,1.5
						c0,1.5-1.2,2.6-2.8,2.4C118,129.9,116.7,129.7,115.5,129.6z"/>
					<path class="st0" d="M115.5,121.5c1.2,0.1,2.4,0.3,3.7,0.5c0,0.5,0,1,0,1.5c-0.7-0.1-1.3-0.2-2-0.3c0,0.2,0,0.3,0,0.5
						c0.6,0.1,1.2,0.2,1.9,0.2c0,0.5,0,0.9,0,1.4c-0.6-0.1-1.2-0.2-1.9-0.2c0,0.2,0,0.3,0,0.5c0.7,0.1,1.4,0.2,2.1,0.3
						c0,0.5,0,1,0,1.5c-1.3-0.2-2.5-0.3-3.8-0.5C115.5,125,115.5,123.3,115.5,121.5z"/>
				</g>
				<g>
					<path class="st0" d="M29.5,158c-0.9,0.2-1.9,0.4-2.7,0.4c-0.9,0.1-1.8,0-2.6,0c-0.8-0.1-1.6-0.3-2.3-0.5
						c-0.8-0.2-1.5-0.5-2.1-0.9c-0.5-0.3-0.9-0.9-0.9-1.7c0-0.7,0.2-1.5,0.7-2.2c0.9-1.3,1.9-2.6,2.8-3.9c0,0,0,0-0.1,0
						c-0.7-0.5-1.3-1.2-1.7-2c-0.4-0.8-0.6-1.9-0.6-3.1c0-1.7,0.4-3.3,1.1-4.8c0.7-1.4,1.6-2.6,2.6-3.7c1-1,2.2-1.8,3.5-2.5
						c1.2-0.6,2.3-1,3.5-1.3c1.6-0.4,3.2-0.4,4.8-0.2c1.6,0.3,3.1,0.9,4.4,1.8c0.5,0.4,0.9,1.1,0.9,1.8c0,0.7-0.3,1.5-0.8,2.2
						c-0.8,1-1.7,2.1-2.5,3.1c0.7,0.4,1.3,1,1.8,1.7c0.7,1,1,2.2,1,3.8c0,1.6-0.3,3.1-1,4.5c-0.6,1.3-1.5,2.5-2.6,3.6
						c-1,1-2.1,1.8-3.4,2.5C31.9,157.2,30.7,157.7,29.5,158z"/>
					<path class="st0" d="M29.5,155.2c-0.8,0.2-1.5,0.3-2.3,0.4c-0.7,0.1-1.5,0-2.1,0c-0.7-0.1-1.3-0.2-1.9-0.4
						c-0.6-0.2-1.1-0.4-1.6-0.7c1.3-1.8,2.6-3.6,3.9-5.3c0.4,0.4,1,0.7,1.8,0.8c0.7,0.2,1.5,0.2,2.3,0c0.4-0.1,0.7-0.2,1-0.4
						c0.3-0.2,0.4-0.5,0.4-0.8c0-0.2,0-0.3-0.1-0.4c-0.1-0.1-0.3-0.2-0.5-0.3c-0.3-0.1-0.6-0.1-1-0.2c-0.4-0.1-1-0.1-1.6-0.2
						c-0.6-0.1-1.3-0.2-1.8-0.3c-0.6-0.1-1.1-0.4-1.6-0.7c-0.5-0.3-0.8-0.7-1.1-1.3c-0.3-0.5-0.4-1.2-0.4-2.1c0-1.2,0.2-2.3,0.7-3.2
						c0.5-1,1.1-1.8,1.9-2.5c0.8-0.7,1.6-1.3,2.6-1.8c0.9-0.5,1.9-0.8,2.8-1c1.3-0.3,2.5-0.3,3.8-0.1c1.3,0.2,2.4,0.7,3.4,1.4
						c-1.3,1.6-2.7,3.3-4,4.9c-0.4-0.4-1-0.7-1.6-0.9c-0.6-0.1-1.2-0.1-1.7,0c-0.5,0.1-0.8,0.3-1.1,0.5c-0.3,0.2-0.4,0.5-0.4,0.8
						c0,0.3,0.1,0.5,0.4,0.5c0.3,0.1,0.8,0.1,1.4,0.2c0.7,0.1,1.4,0.1,2.1,0.3c0.8,0.1,1.4,0.3,2.1,0.7c0.6,0.3,1.2,0.8,1.6,1.4
						c0.4,0.6,0.6,1.4,0.6,2.4c0,1.2-0.2,2.2-0.7,3.2c-0.5,1-1.1,1.8-1.8,2.5c-0.7,0.7-1.6,1.3-2.5,1.8
						C31.4,154.6,30.4,155,29.5,155.2z"/>
					<path class="st0" d="M42.6,154.7c-1.5,0.3-2.8-0.7-2.8-2.3c0-3.7,0-7.3,0-11c-0.6,0.1-1.3,0.3-1.9,0.4
						c-1.5,0.3-2.8-0.7-2.8-2.2c0-1.8,0-3.6,0-5.5c0-1.5,1.2-3,2.8-3.4c5.3-1.1,10.6-2,15.9-2.7c1.5-0.2,2.8,0.9,2.8,2.4
						c0,1.8,0,3.6,0,5.5c0,1.5-1.2,2.9-2.8,3.1c-0.6,0.1-1.3,0.2-1.9,0.3c0,3.7,0,7.3,0,11c0,1.5-1.2,3-2.8,3.2
						C46.9,153.9,44.8,154.3,42.6,154.7z"/>
					<path class="st0" d="M49.1,150.8c-2.2,0.3-4.3,0.7-6.4,1.1c0-4.6,0-9.2,0-13.7c-1.6,0.3-3.1,0.6-4.7,0.9c0-1.8,0-3.6,0-5.5
						c5.3-1.1,10.6-2,15.9-2.7c0,1.8,0,3.6,0,5.5c-1.6,0.2-3.2,0.4-4.7,0.7C49.1,141.6,49.1,146.2,49.1,150.8z"/>
					<path class="st0" d="M66.9,151.5c-1.2,0.1-2.2-0.5-2.6-1.6c-0.1-0.3-0.2-0.6-0.3-0.9c-0.7,0.1-1.4,0.1-2.2,0.2
						c-0.1,0.3-0.2,0.6-0.3,1c-0.4,1.2-1.4,2-2.6,2.2c-2.3,0.3-4.6,0.6-6.9,0.9c-0.9,0.1-1.8-0.2-2.3-0.9c-0.5-0.7-0.6-1.6-0.3-2.5
						c2.5-6.8,5.1-13.5,7.6-20.3c0.4-1.1,1.5-1.9,2.6-2.1c2.3-0.3,4.6-0.5,6.9-0.7c1.2-0.1,2.2,0.5,2.6,1.6c2.5,6.2,5,12.5,7.6,18.8
						c0.3,0.8,0.2,1.8-0.3,2.6c-0.5,0.8-1.4,1.3-2.3,1.3C71.6,151.1,69.2,151.3,66.9,151.5z"/>
					<path class="st0" d="M59.5,130.2c2.3-0.3,4.6-0.5,6.9-0.7c2.5,6.2,5,12.4,7.5,18.7c-2.4,0.1-4.7,0.3-7.1,0.5
						c-0.3-0.9-0.7-1.8-1-2.7c-2,0.2-4.1,0.4-6.1,0.6c-0.3,1-0.6,2-1,2.9c-2.3,0.3-4.6,0.6-6.9,0.9C54.4,143.6,57,136.9,59.5,130.2z
						 M62.9,136.5c-0.5,1.6-1.1,3.3-1.6,4.9c1-0.1,2.1-0.2,3.1-0.3C63.9,139.6,63.4,138.1,62.9,136.5z"/>
					<path class="st0" d="M75.3,150.9c-1.5,0.1-2.8-1.1-2.8-2.6c0-6.4,0-12.8,0-19.2c0-1.5,1.3-2.9,2.8-2.9c2.4-0.1,4.8-0.2,7.2-0.2
						c1.7,0,3.4,0.1,5,0.5c1.8,0.4,3.3,1.1,4.7,2c1.4,1,2.6,2.4,3.4,4c0.8,1.6,1.3,3.6,1.3,5.9c0,2.1-0.4,4-1.2,5.5
						c-0.8,1.6-1.9,2.9-3.2,3.9c-1.3,1-2.8,1.7-4.5,2.2c-1.6,0.4-3.2,0.7-4.9,0.7C80.5,150.7,77.9,150.8,75.3,150.9z M84.4,139.3
						c0.1,0,0.1-0.1,0.2-0.1c0,0,0.2-0.3,0.2-1.1c0-0.6-0.2-0.7-0.2-0.8c0,0-0.1-0.1-0.1-0.1C84.4,137.9,84.4,138.6,84.4,139.3z"/>
					<path class="st0" d="M75.3,148.1c0-6.4,0-12.8,0-19.2c2.4-0.1,4.8-0.2,7.2-0.2c1.5,0,3,0.1,4.4,0.4c1.4,0.3,2.6,0.8,3.7,1.6
						c1.1,0.8,1.9,1.7,2.6,3c0.6,1.2,1,2.8,1,4.6c0,1.7-0.3,3.1-0.9,4.3c-0.6,1.2-1.4,2.2-2.5,3c-1,0.8-2.2,1.3-3.5,1.7
						c-1.3,0.4-2.7,0.6-4.2,0.6C80.5,147.9,77.9,148,75.3,148.1z M81.6,134.2c0,2.7,0,5.4,0,8.2c0.4,0,0.8,0,1.2,0
						c1.5,0,2.7-0.4,3.5-1c0.8-0.7,1.2-1.7,1.2-3.2c0-1.2-0.4-2.2-1.2-2.9c-0.8-0.7-1.9-1-3.3-1C82.6,134.2,82.1,134.2,81.6,134.2z"
						/>
					<path class="st0" d="M96.9,150.9c-1.5-0.1-2.8-1.3-2.8-2.9c0-6.4,0-12.8,0-19.2c0-1.5,1.3-2.7,2.8-2.7c2.2,0.1,4.4,0.2,6.6,0.4
						c1.5,0.1,2.8,1.5,2.8,3c0,6.4,0,12.8,0,19.2c0,1.5-1.3,2.7-2.8,2.6C101.3,151.1,99.1,151,96.9,150.9z"/>
					<path class="st0" d="M96.9,128.9c2.2,0.1,4.4,0.2,6.6,0.4c0,6.4,0,12.8,0,19.2c-2.2-0.2-4.4-0.3-6.6-0.4
						C96.9,141.7,96.9,135.3,96.9,128.9z"/>
					<path class="st0" d="M115.8,152.9c-1.8-0.2-3.5-0.7-4.9-1.3c-1.5-0.7-2.8-1.6-3.8-2.7c-1-1.1-1.8-2.4-2.3-3.8
						c-0.5-1.3-0.7-2.7-0.7-4.2c0-3.9,0-7.8,0-11.7c0-1.5,1.3-2.7,2.8-2.6c2.2,0.2,4.3,0.4,6.5,0.6c1.1,0.1,2.1,0.9,2.6,2
						c0.4-0.9,1.4-1.5,2.6-1.3c2.2,0.3,4.3,0.6,6.4,0.9c1.5,0.2,2.8,1.7,2.8,3.2c0,3.9,0,7.8,0,11.7c0,1.5-0.3,2.9-0.8,4.1
						c-0.5,1.3-1.3,2.3-2.4,3.2c-1,0.8-2.3,1.4-3.8,1.7C119.2,153.1,117.6,153.2,115.8,152.9z"/>
					<path class="st0" d="M115.8,150.2c-1.5-0.2-2.8-0.5-3.9-1.1c-1.1-0.5-2.1-1.2-2.8-2c-0.7-0.8-1.3-1.7-1.7-2.7
						c-0.4-1-0.5-2.1-0.5-3.2c0-3.9,0-7.8,0-11.7c2.2,0.2,4.3,0.4,6.5,0.6c0,3.7,0,7.3,0,11c0,0.9,0.2,1.7,0.7,2.2
						c0.4,0.6,1.1,0.9,1.9,1c0.8,0.1,1.4-0.1,1.9-0.5c0.4-0.5,0.7-1.1,0.7-2.1c0-3.7,0-7.3,0-11c2.1,0.3,4.3,0.6,6.4,0.9
						c0,3.9,0,7.8,0,11.7c0,1.1-0.2,2.2-0.6,3.1c-0.4,0.9-1,1.7-1.7,2.3c-0.8,0.6-1.7,1-2.8,1.3
						C118.6,150.3,117.3,150.3,115.8,150.2z"/>
					<path class="st0" d="M145.5,157.9c-0.6-0.2-1.3-0.5-1.8-1.1c-0.5,0.3-1.1,0.4-1.8,0.2c-1.5-0.4-3-0.7-4.5-1
						c-0.6-0.1-1.2-0.5-1.7-0.9c-0.5,0.3-1.1,0.3-1.7,0.2c-2-0.4-4-0.8-6-1.1c-1.5-0.3-2.8-1.7-2.8-3.2c0-6.4,0-12.8,0-19.2
						c0-1.5,1.2-2.6,2.8-2.3c2.8,0.5,5.6,1,8.4,1.6c1.2,0.2,2.2,1.2,2.6,2.5c0.2,0.8,0.5,1.5,0.7,2.3c0.2-0.6,0.4-1.3,0.6-1.9
						c0.3-1.1,1.4-1.7,2.6-1.4c2.9,0.7,5.7,1.4,8.6,2.2c1.5,0.4,2.7,2,2.7,3.6c0,6.4,0,12.8,0,19.2c0,1.5-1.2,2.4-2.7,2
						C149.7,159,147.6,158.4,145.5,157.9z"/>
					<path class="st0" d="M133.9,141.7c0.1,3.6,0.2,7.3,0.3,10.9c-2-0.4-4-0.8-6-1.1c0-6.4,0-12.8,0-19.2c2.8,0.5,5.6,1,8.4,1.6
						c1.2,3.7,2.3,7.4,3.4,11.1c0,0,0.1,0,0.1,0c1-3.2,2-6.4,3-9.6c2.9,0.7,5.7,1.4,8.6,2.2c0,6.4,0,12.8,0,19.2
						c-2.1-0.6-4.1-1.1-6.2-1.6c0.1-3.6,0.1-7.2,0.2-10.7c-0.1,0-0.1,0-0.2-0.1c-1.2,3.3-2.4,6.6-3.5,10c-1.5-0.4-3-0.7-4.5-1
						c-1.2-3.9-2.3-7.7-3.5-11.6C134,141.7,133.9,141.7,133.9,141.7z"/>
				</g>
			</g>
			<g class="st4">
				<g>
					<path class="st2" d="M56,121.8c0.8-0.1,1.5-0.2,2.3-0.3c0.3,0,0.5,0,0.8,0c0.3,0,0.5,0.1,0.7,0.2c0.2,0.1,0.4,0.3,0.5,0.5
						c0.1,0.2,0.2,0.5,0.2,0.8c0,0.3-0.1,0.6-0.2,0.9c-0.2,0.3-0.4,0.5-0.7,0.7c0.4,0.7,0.9,1.3,1.3,2c-0.7,0.1-1.4,0.2-2.1,0.2
						c-0.3-0.6-0.7-1.2-1-1.8c0,0,0,0-0.1,0c0,0.6,0,1.3,0,1.9c-0.6,0.1-1.2,0.1-1.7,0.2C56,125.3,56,123.5,56,121.8z M57.7,123.8
						c0.1,0,0.2,0,0.3,0c0.1,0,0.1,0,0.2,0c0.1,0,0.1,0,0.2-0.1c0.1,0,0.1-0.1,0.2-0.2c0-0.1,0.1-0.1,0.1-0.2c0-0.1,0-0.2-0.1-0.2
						c0-0.1-0.1-0.1-0.1-0.1c-0.1,0-0.1,0-0.2,0c-0.1,0-0.1,0-0.2,0c-0.1,0-0.3,0-0.4,0.1C57.7,123.2,57.7,123.5,57.7,123.8z"/>
					<path class="st2" d="M61.1,123.7c0-0.4,0.1-0.8,0.2-1.2c0.1-0.4,0.4-0.7,0.6-0.9c0.3-0.3,0.6-0.5,0.9-0.7
						c0.4-0.2,0.8-0.3,1.2-0.3c0.4,0,0.8,0,1.2,0.1c0.4,0.1,0.7,0.3,0.9,0.5c0.3,0.2,0.5,0.5,0.6,0.8c0.2,0.3,0.2,0.7,0.2,1.1
						c0,0.4-0.1,0.8-0.2,1.2c-0.2,0.4-0.4,0.7-0.6,0.9c-0.3,0.3-0.6,0.5-0.9,0.7c-0.4,0.2-0.8,0.3-1.2,0.3c-0.4,0-0.8,0-1.2-0.1
						c-0.4-0.1-0.7-0.3-0.9-0.5c-0.3-0.2-0.5-0.5-0.6-0.8C61.2,124.5,61.1,124.2,61.1,123.7z M63,123.5c0,0.2,0,0.3,0.1,0.5
						c0.1,0.1,0.1,0.3,0.2,0.4c0.1,0.1,0.2,0.2,0.3,0.2c0.1,0,0.3,0.1,0.4,0c0.2,0,0.3-0.1,0.4-0.1c0.1-0.1,0.2-0.2,0.3-0.3
						c0.1-0.1,0.2-0.2,0.2-0.4c0.1-0.1,0.1-0.3,0.1-0.5c0-0.2,0-0.3-0.1-0.5c-0.1-0.1-0.1-0.2-0.2-0.3c-0.1-0.1-0.2-0.2-0.3-0.2
						c-0.1,0-0.3-0.1-0.4,0c-0.2,0-0.3,0.1-0.4,0.1c-0.1,0.1-0.2,0.2-0.3,0.3c-0.1,0.1-0.2,0.2-0.2,0.4C63,123.2,63,123.4,63,123.5z
						"/>
					<path class="st2" d="M67.5,123.2c0-0.4,0.1-0.8,0.2-1.2c0.2-0.4,0.4-0.7,0.6-0.9c0.3-0.3,0.6-0.5,0.9-0.6
						c0.4-0.2,0.7-0.3,1.1-0.3c0.4,0,0.8,0,1.2,0.1c0.4,0.1,0.7,0.3,0.9,0.5c-0.4,0.5-0.7,0.9-1.1,1.4c-0.1-0.1-0.2-0.2-0.4-0.3
						c-0.2-0.1-0.3-0.1-0.5-0.1c-0.2,0-0.3,0-0.4,0.1c-0.1,0.1-0.2,0.1-0.3,0.3c-0.1,0.1-0.2,0.2-0.2,0.4c-0.1,0.1-0.1,0.3-0.1,0.5
						c0,0.2,0,0.3,0.1,0.5c0.1,0.1,0.1,0.2,0.2,0.3c0.1,0.1,0.2,0.2,0.3,0.2c0.1,0,0.3,0.1,0.4,0c0.2,0,0.4-0.1,0.5-0.2
						c0.1-0.1,0.3-0.2,0.4-0.3c0.4,0.4,0.7,0.8,1.1,1.2c-0.2,0.3-0.5,0.5-0.9,0.6c-0.4,0.2-0.7,0.3-1.2,0.3c-0.4,0-0.8,0-1.1-0.1
						c-0.4-0.1-0.7-0.3-0.9-0.5c-0.3-0.2-0.5-0.5-0.6-0.8C67.6,124,67.5,123.6,67.5,123.2z"/>
					<path class="st2" d="M74.8,123.2C74.8,123.2,74.8,123.2,74.8,123.2c0,0.7,0,1.4,0,2.1c-0.6,0-1.2,0.1-1.7,0.1
						c0-1.8,0-3.5,0-5.3c0.6,0,1.2-0.1,1.7-0.1c0,0.6,0,1.3,0,1.9c0,0,0,0,0,0c0.5-0.7,0.9-1.3,1.4-2c0.7,0,1.4-0.1,2.1-0.1
						c-0.7,0.8-1.3,1.7-2,2.5c0.7,0.9,1.4,1.9,2.1,2.8c-0.7,0-1.5,0.1-2.2,0.1C75.7,124.6,75.2,123.9,74.8,123.2z"/>
					<path class="st2" d="M78.8,119.9c1.2,0,2.4-0.1,3.7-0.1c0,0.5,0,1,0,1.5c-0.7,0-1.3,0-2,0c0,0.2,0,0.3,0,0.5c0.6,0,1.2,0,1.9,0
						c0,0.5,0,0.9,0,1.4c-0.6,0-1.2,0-1.9,0c0,0.2,0,0.3,0,0.5c0.7,0,1.4,0,2.1,0c0,0.5,0,1,0,1.5c-1.3,0-2.5,0.1-3.8,0.1
						C78.8,123.4,78.8,121.6,78.8,119.9z"/>
					<path class="st2" d="M86,125c-0.6,0-1.2,0-1.8,0c0-1.3,0-2.5,0-3.8c-0.4,0-0.9,0-1.3,0c0-0.5,0-1,0-1.5c1.5,0,2.9,0,4.4,0
						c0,0.5,0,1,0,1.5c-0.4,0-0.9,0-1.3,0C86,122.5,86,123.8,86,125z"/>
					<path class="st2" d="M89.5,119.8c0.6,0,1.2,0,1.8,0c0,1.3,0,2.5,0,3.8c0.6,0,1.2,0,1.8,0c0,0.5,0,1,0,1.5
						c-1.2,0-2.4-0.1-3.6-0.1C89.5,123.3,89.5,121.5,89.5,119.8z"/>
					<path class="st2" d="M93.7,119.8c1.2,0,2.4,0.1,3.7,0.1c0,0.5,0,1,0,1.5c-0.7,0-1.3-0.1-2-0.1c0,0.2,0,0.3,0,0.5
						c0.6,0,1.2,0,1.9,0.1c0,0.5,0,0.9,0,1.4c-0.6,0-1.2-0.1-1.9-0.1c0,0.2,0,0.3,0,0.5c0.7,0,1.4,0.1,2.1,0.1c0,0.5,0,1,0,1.5
						c-1.3-0.1-2.5-0.1-3.8-0.1C93.7,123.4,93.7,121.6,93.7,119.8z"/>
					<path class="st2" d="M99.7,120.1c0.6,0,1.3,0.1,1.9,0.1c0.7,1.8,1.4,3.6,2.1,5.4c-0.6,0-1.3-0.1-1.9-0.1
						c-0.1-0.3-0.2-0.5-0.3-0.8c-0.6,0-1.1-0.1-1.7-0.1c-0.1,0.3-0.2,0.5-0.3,0.8c-0.6,0-1.3-0.1-1.9-0.1
						C98.3,123.6,99,121.8,99.7,120.1z M100.6,122c-0.1,0.4-0.3,0.9-0.4,1.3c0.3,0,0.6,0,0.9,0.1C100.9,122.9,100.8,122.4,100.6,122
						z"/>
					<path class="st2" d="M106.6,126c-0.4,0-0.8-0.1-1.2-0.3c-0.4-0.2-0.7-0.4-0.9-0.6c-0.3-0.3-0.5-0.6-0.6-0.9
						c-0.2-0.4-0.2-0.7-0.2-1.2c0-0.4,0.1-0.8,0.2-1.1c0.2-0.3,0.4-0.6,0.6-0.8c0.3-0.2,0.6-0.4,0.9-0.5c0.4-0.1,0.7-0.1,1.1-0.1
						c0.4,0,0.8,0.1,1.2,0.3c0.4,0.2,0.7,0.4,0.9,0.6c-0.3,0.4-0.7,0.8-1,1.1c-0.1-0.1-0.2-0.3-0.4-0.3c-0.1-0.1-0.3-0.1-0.6-0.2
						c-0.1,0-0.3,0-0.4,0c-0.1,0-0.3,0.1-0.4,0.2c-0.1,0.1-0.2,0.2-0.3,0.4c-0.1,0.1-0.1,0.3-0.1,0.5c0,0.4,0.1,0.7,0.3,0.9
						c0.2,0.2,0.5,0.4,0.9,0.4c0.1,0,0.2,0,0.2,0c0.1,0,0.1,0,0.2,0c0-0.1,0-0.3,0-0.4c-0.3,0-0.6-0.1-0.9-0.1c0-0.5,0-0.9,0-1.4
						c0.8,0.1,1.6,0.1,2.4,0.2c0,1,0,1.9,0,2.9c-0.1,0.1-0.3,0.1-0.4,0.2c-0.2,0-0.3,0.1-0.5,0.1c-0.2,0-0.4,0-0.6,0.1
						C107,126,106.8,126,106.6,126z"/>
					<path class="st2" d="M112.1,126.6c-0.4,0-0.8-0.1-1.1-0.3c-0.3-0.1-0.6-0.3-0.8-0.5c-0.2-0.2-0.4-0.5-0.5-0.8
						c-0.1-0.3-0.2-0.6-0.2-0.9c0-1.1,0-2.1,0-3.2c0.6,0.1,1.2,0.1,1.8,0.2c0,1,0,2,0,3c0,0.3,0.1,0.5,0.2,0.6
						c0.1,0.2,0.3,0.2,0.5,0.3c0.2,0,0.4,0,0.5-0.2c0.1-0.1,0.2-0.3,0.2-0.6c0-1,0-2,0-3c0.6,0.1,1.2,0.1,1.8,0.2c0,1.1,0,2.1,0,3.2
						c0,0.3-0.1,0.6-0.2,0.9c-0.1,0.3-0.3,0.5-0.5,0.6c-0.2,0.2-0.5,0.3-0.8,0.4C112.8,126.6,112.5,126.6,112.1,126.6z"/>
					<path class="st2" d="M115.5,121.5c1.2,0.2,2.4,0.3,3.6,0.5c0,0.5,0,1,0,1.5c-0.7-0.1-1.3-0.2-2-0.3c0,0.2,0,0.3,0,0.5
						c0.6,0.1,1.2,0.2,1.9,0.3c0,0.5,0,0.9,0,1.4c-0.6-0.1-1.2-0.2-1.9-0.3c0,0.2,0,0.3,0,0.5c0.7,0.1,1.4,0.2,2.1,0.3
						c0,0.5,0,1,0,1.5c-1.3-0.2-2.5-0.3-3.8-0.5C115.5,125.1,115.5,123.3,115.5,121.5z"/>
				</g>
				<g>
					<path class="st2" d="M29.5,155.4c-0.8,0.2-1.5,0.3-2.3,0.4c-0.7,0.1-1.5,0.1-2.1,0c-0.7-0.1-1.3-0.2-1.9-0.4
						c-0.6-0.2-1.1-0.4-1.6-0.7c1.3-1.8,2.6-3.6,3.9-5.4c0.4,0.4,1,0.6,1.8,0.8c0.7,0.2,1.5,0.2,2.3,0c0.4-0.1,0.7-0.2,1-0.4
						c0.3-0.2,0.4-0.5,0.4-0.8c0-0.2,0-0.3-0.1-0.4c-0.1-0.1-0.3-0.2-0.5-0.3c-0.2-0.1-0.6-0.1-1-0.2c-0.4-0.1-1-0.1-1.6-0.1
						c-0.6,0-1.3-0.1-1.8-0.3c-0.6-0.1-1.1-0.4-1.6-0.7c-0.5-0.3-0.8-0.7-1.1-1.3c-0.3-0.5-0.4-1.2-0.4-2.1c0-1.2,0.2-2.3,0.7-3.2
						c0.5-1,1.1-1.8,1.9-2.6c0.8-0.7,1.6-1.4,2.5-1.8c0.9-0.5,1.9-0.8,2.8-1.1c1.2-0.3,2.5-0.4,3.8-0.2c1.3,0.2,2.4,0.6,3.4,1.4
						c-1.3,1.6-2.7,3.3-4,5c-0.4-0.4-1-0.7-1.6-0.9c-0.6-0.1-1.2-0.1-1.7,0c-0.5,0.1-0.8,0.3-1.1,0.5c-0.3,0.2-0.4,0.5-0.4,0.8
						c0,0.3,0.1,0.5,0.4,0.5c0.3,0.1,0.8,0.1,1.4,0.2c0.7,0,1.4,0.1,2.1,0.2c0.8,0.1,1.4,0.3,2.1,0.6c0.6,0.3,1.2,0.8,1.6,1.3
						c0.4,0.6,0.6,1.4,0.6,2.4c0,1.2-0.2,2.2-0.7,3.2c-0.5,1-1.1,1.8-1.8,2.5c-0.7,0.7-1.6,1.4-2.5,1.9
						C31.4,154.8,30.5,155.2,29.5,155.4z"/>
					<path class="st2" d="M49.1,150.8c-2.2,0.4-4.3,0.7-6.4,1.1c0-4.6,0-9.2,0-13.7c-1.6,0.3-3.1,0.6-4.7,1c0-1.8,0-3.6,0-5.5
						c5.3-1.1,10.6-2.1,15.9-2.8c0,1.8,0,3.6,0,5.5c-1.6,0.2-3.2,0.5-4.7,0.7C49.1,141.7,49.1,146.3,49.1,150.8z"/>
					<path class="st2" d="M59.5,130.2c2.3-0.3,4.6-0.5,6.9-0.7c2.5,6.2,5,12.4,7.5,18.7c-2.4,0.1-4.7,0.3-7.1,0.5
						c-0.3-0.9-0.7-1.8-1-2.7c-2,0.2-4.1,0.4-6.1,0.6c-0.3,1-0.6,2-1,2.9c-2.3,0.3-4.6,0.6-6.9,0.9C54.4,143.6,57,136.9,59.5,130.2z
						 M62.9,136.5c-0.5,1.6-1.1,3.3-1.6,4.9c1-0.1,2.1-0.2,3.1-0.3C63.9,139.6,63.4,138,62.9,136.5z"/>
					<path class="st2" d="M75.3,148.1c0-6.4,0-12.8,0-19.2c2.4-0.1,4.8-0.2,7.2-0.2c1.5,0,3,0.1,4.4,0.4c1.4,0.3,2.6,0.8,3.7,1.6
						c1.1,0.8,1.9,1.7,2.6,3c0.6,1.2,1,2.8,1,4.6c0,1.7-0.3,3.1-0.9,4.3c-0.6,1.2-1.4,2.2-2.5,3c-1,0.8-2.2,1.3-3.5,1.7
						c-1.3,0.4-2.7,0.6-4.2,0.6C80.5,147.9,77.9,148,75.3,148.1z M81.6,134.1c0,2.7,0,5.4,0,8.2c0.4,0,0.8,0,1.2,0
						c1.5,0,2.7-0.4,3.5-1c0.8-0.7,1.2-1.7,1.2-3.2c0-1.2-0.4-2.2-1.2-2.9c-0.8-0.7-1.9-1-3.3-1C82.6,134.1,82.1,134.1,81.6,134.1z"
						/>
					<path class="st2" d="M96.9,128.8c2.2,0.1,4.4,0.2,6.6,0.4c0,6.4,0,12.8,0,19.2c-2.2-0.2-4.4-0.3-6.6-0.4
						C96.9,141.6,96.9,135.2,96.9,128.8z"/>
					<path class="st2" d="M115.8,150.2c-1.5-0.2-2.8-0.5-3.9-1.1c-1.1-0.5-2.1-1.2-2.8-2c-0.7-0.8-1.3-1.7-1.7-2.7
						c-0.4-1-0.5-2.1-0.5-3.2c0-3.9,0-7.8,0-11.7c2.2,0.2,4.3,0.4,6.5,0.7c0,3.7,0,7.3,0,11c0,0.9,0.2,1.7,0.7,2.2
						c0.4,0.6,1.1,0.9,1.9,1c0.8,0.1,1.4-0.1,1.9-0.5c0.4-0.5,0.7-1.1,0.7-2.1c0-3.7,0-7.3,0-11c2.1,0.3,4.3,0.6,6.4,1
						c0,3.9,0,7.8,0,11.7c0,1.1-0.2,2.2-0.6,3.1c-0.4,0.9-1,1.7-1.7,2.3c-0.8,0.6-1.7,1-2.8,1.3
						C118.6,150.3,117.3,150.4,115.8,150.2z"/>
					<path class="st2" d="M133.9,141.8c0.1,3.6,0.2,7.3,0.3,10.9c-2-0.4-4-0.8-6-1.2c0-6.4,0-12.8,0-19.2c2.8,0.5,5.6,1.1,8.4,1.7
						c1.1,3.7,2.3,7.4,3.4,11.1c0,0,0.1,0,0.1,0c1-3.2,2-6.4,3-9.6c2.9,0.7,5.7,1.5,8.6,2.3c0,6.4,0,12.8,0,19.2
						c-2.1-0.6-4.1-1.2-6.2-1.7c0.1-3.6,0.1-7.2,0.2-10.7c-0.1,0-0.1,0-0.2-0.1c-1.2,3.3-2.4,6.6-3.5,9.9c-1.5-0.4-3-0.7-4.5-1.1
						c-1.2-3.9-2.3-7.7-3.5-11.6C133.9,141.8,133.9,141.8,133.9,141.8z"/>
				</g>
			</g>
		</g>
	</g>
	<g>
		<g>
			<path class="st0" d="M56.1,130c-0.7,0-1.4-0.3-2-0.7c-0.7-0.6-1-1.4-1-2.2v-5.3c0-1.5,1.1-2.7,2.6-2.9c0.8-0.1,1.5-0.2,2.3-0.3
				c0.3,0,0.6-0.1,0.9-0.1c0.2,0,0.3,0,0.5,0c0.7,0.1,1.3,0.2,1.9,0.5c0.7,0.4,1.2,0.9,1.6,1.6c0.4,0.7,0.6,1.5,0.6,2.4
				c0,0.6-0.1,1.1-0.3,1.6c0.1,0.1,0.1,0.2,0.2,0.3c0.6,0.9,0.7,2,0.3,2.9c-0.4,0.9-1.3,1.6-2.4,1.7c-0.7,0.1-1.3,0.2-2,0.3
				c-0.1,0-0.3,0-0.4,0c0,0-0.1,0-0.1,0c-0.2,0.1-0.3,0.1-0.5,0.1c-0.6,0.1-1.1,0.2-1.7,0.2C56.3,130,56.2,130,56.1,130z"/>
			<path class="st0" d="M56.1,121.7c0.8-0.1,1.5-0.2,2.3-0.3c0.3,0,0.5,0,0.8,0c0.3,0,0.5,0.1,0.7,0.2c0.2,0.1,0.4,0.3,0.5,0.5
				c0.1,0.2,0.2,0.5,0.2,0.8c0,0.3-0.1,0.6-0.2,0.9c-0.2,0.3-0.4,0.5-0.7,0.7c0.4,0.7,0.9,1.3,1.3,2c-0.7,0.1-1.4,0.2-2.1,0.3
				c-0.3-0.6-0.7-1.2-1-1.8c0,0,0,0-0.1,0c0,0.6,0,1.3,0,1.9c-0.6,0.1-1.2,0.2-1.7,0.2C56.1,125.2,56.1,123.5,56.1,121.7z
				 M57.8,123.7c0.1,0,0.2,0,0.3,0c0.1,0,0.1,0,0.2,0c0.1,0,0.1,0,0.2-0.1c0.1,0,0.1-0.1,0.2-0.2c0-0.1,0.1-0.1,0.1-0.2
				c0-0.1,0-0.2-0.1-0.2c0-0.1-0.1-0.1-0.1-0.1c-0.1,0-0.1,0-0.2,0c-0.1,0-0.1,0-0.2,0c-0.1,0-0.3,0-0.4,0.1
				C57.8,123.1,57.8,123.4,57.8,123.7z"/>
			<path class="st0" d="M63.7,129.1c-0.5,0-1-0.1-1.5-0.2c-0.8-0.2-1.5-0.6-2.1-1c-0.6-0.5-1.1-1.1-1.4-1.9
				c-0.3-0.7-0.5-1.5-0.5-2.4c0-0.8,0.2-1.6,0.5-2.3c0.3-0.7,0.7-1.3,1.2-1.9c0.5-0.5,1.1-1,1.8-1.3c0.7-0.3,1.4-0.5,2.1-0.6
				c0.2,0,0.5,0,0.7,0c0.5,0,1,0.1,1.5,0.2c0.8,0.2,1.5,0.5,2.1,1c0.6,0.5,1.1,1.1,1.5,1.9c0.3,0.7,0.5,1.5,0.5,2.4
				c0,0.8-0.2,1.6-0.5,2.3c-0.3,0.7-0.7,1.3-1.2,1.9c-0.5,0.5-1.1,1-1.8,1.3c-0.7,0.3-1.4,0.5-2.1,0.6
				C64.2,129.1,64,129.1,63.7,129.1z"/>
			<path class="st0" d="M61.2,123.7c0-0.4,0.1-0.8,0.2-1.2c0.2-0.4,0.4-0.7,0.6-0.9c0.3-0.3,0.6-0.5,0.9-0.7
				c0.4-0.2,0.8-0.3,1.2-0.3c0.4,0,0.8,0,1.2,0.1c0.4,0.1,0.7,0.2,0.9,0.5c0.3,0.2,0.5,0.5,0.6,0.8c0.2,0.3,0.2,0.7,0.2,1.1
				c0,0.4-0.1,0.8-0.2,1.2c-0.2,0.4-0.4,0.7-0.6,1c-0.3,0.3-0.6,0.5-0.9,0.7c-0.4,0.2-0.8,0.3-1.2,0.3c-0.4,0-0.8,0-1.2-0.1
				c-0.4-0.1-0.7-0.2-0.9-0.5c-0.3-0.2-0.5-0.5-0.6-0.8C61.2,124.5,61.2,124.1,61.2,123.7z M63.1,123.4c0,0.2,0,0.3,0.1,0.5
				c0.1,0.1,0.1,0.3,0.2,0.3c0.1,0.1,0.2,0.2,0.3,0.2c0.1,0,0.3,0.1,0.4,0c0.2,0,0.3-0.1,0.4-0.1c0.1-0.1,0.2-0.2,0.3-0.3
				c0.1-0.1,0.2-0.2,0.2-0.4c0.1-0.1,0.1-0.3,0.1-0.5c0-0.2,0-0.3-0.1-0.5c-0.1-0.1-0.1-0.2-0.2-0.3c-0.1-0.1-0.2-0.2-0.3-0.2
				c-0.1,0-0.3-0.1-0.4,0c-0.2,0-0.3,0.1-0.4,0.1c-0.1,0.1-0.2,0.2-0.3,0.3c-0.1,0.1-0.2,0.2-0.2,0.4
				C63.1,123.1,63.1,123.3,63.1,123.4z"/>
			<path class="st0" d="M70.2,128.6c-0.6,0-1.2-0.1-1.7-0.2c-0.8-0.2-1.4-0.6-2-1.1c-0.6-0.5-1.1-1.1-1.4-1.8
				c-0.3-0.7-0.5-1.5-0.5-2.4c0-0.8,0.2-1.6,0.5-2.3c0.3-0.7,0.7-1.3,1.2-1.9c0.5-0.5,1.1-1,1.8-1.3c0.7-0.3,1.4-0.5,2.1-0.5
				c0.2,0,0.3,0,0.5,0c0.6,0,1.2,0.1,1.7,0.2c0.8,0.2,1.4,0.6,2,1.1c1.2,1,1.4,2.9,0.4,4.1l-0.2,0.2l0,0c1,1.2,1,2.9-0.1,4
				c-0.5,0.5-1.1,1-1.8,1.3c-0.7,0.3-1.4,0.5-2.2,0.6C70.6,128.5,70.4,128.6,70.2,128.6z"/>
			<path class="st0" d="M67.6,123c0-0.4,0.1-0.8,0.2-1.2c0.2-0.4,0.4-0.7,0.6-0.9c0.3-0.3,0.6-0.5,0.9-0.6c0.4-0.2,0.7-0.3,1.1-0.3
				c0.4,0,0.8,0,1.2,0.1c0.4,0.1,0.7,0.3,0.9,0.5c-0.4,0.5-0.7,0.9-1.1,1.4c-0.1-0.1-0.2-0.2-0.4-0.3c-0.2-0.1-0.3-0.1-0.5-0.1
				c-0.2,0-0.3,0-0.4,0.1c-0.1,0.1-0.2,0.1-0.3,0.3c-0.1,0.1-0.2,0.2-0.2,0.4c-0.1,0.1-0.1,0.3-0.1,0.5c0,0.2,0,0.3,0.1,0.5
				c0.1,0.1,0.1,0.2,0.2,0.3c0.1,0.1,0.2,0.2,0.3,0.2c0.1,0,0.3,0.1,0.4,0c0.2,0,0.4-0.1,0.5-0.2c0.1-0.1,0.3-0.2,0.4-0.3
				c0.4,0.4,0.7,0.8,1.1,1.2c-0.2,0.3-0.5,0.5-0.9,0.6c-0.4,0.2-0.8,0.3-1.2,0.3c-0.4,0-0.8,0-1.1-0.1c-0.4-0.1-0.7-0.3-0.9-0.5
				c-0.3-0.2-0.5-0.5-0.6-0.8C67.7,123.8,67.6,123.4,67.6,123z"/>
			<path class="st0" d="M73.1,128.2c-0.8,0-1.5-0.3-2-0.8c-0.6-0.6-0.9-1.3-0.9-2.2v-5.3c0-1.6,1.2-2.9,2.8-3c0.6,0,1.2-0.1,1.8-0.1
				c0.1,0,0.1,0,0.2,0c0.2,0,0.4,0,0.6,0.1c0.2-0.1,0.5-0.1,0.7-0.1c0.7,0,1.4-0.1,2.1-0.1c0,0,0.1,0,0.1,0c1.1,0,2.1,0.6,2.7,1.6
				c0.5,1,0.4,2.3-0.3,3.2c-0.2,0.2-0.4,0.5-0.6,0.7c0.2,0.3,0.5,0.6,0.7,0.9c0.7,0.9,0.8,2.1,0.3,3.1c-0.5,1-1.5,1.7-2.6,1.7
				c-0.7,0-1.4,0.1-2.2,0.1c-0.1,0-0.1,0-0.2,0c-0.2,0-0.4,0-0.6-0.1c-0.2,0.1-0.5,0.1-0.7,0.1c-0.6,0-1.1,0.1-1.7,0.1
				C73.2,128.2,73.1,128.2,73.1,128.2z"/>
			<path class="st0" d="M74.8,123C74.8,123,74.8,123,74.8,123c0,0.7,0,1.4,0,2.1c-0.6,0-1.2,0.1-1.7,0.1c0-1.8,0-3.5,0-5.3
				c0.6,0,1.2-0.1,1.7-0.1c0,0.6,0,1.3,0,1.9c0,0,0,0,0,0c0.5-0.7,0.9-1.4,1.4-2c0.7,0,1.4-0.1,2.1-0.1c-0.7,0.8-1.3,1.7-2,2.5
				c0.7,0.9,1.4,1.8,2.1,2.8c-0.7,0-1.5,0.1-2.2,0.1C75.8,124.4,75.3,123.7,74.8,123z"/>
			<path class="st0" d="M78.8,127.9c-0.8,0-1.5-0.3-2.1-0.8c-0.6-0.6-0.9-1.3-0.9-2.1v-5.3c0-1.6,1.3-2.9,2.9-3
				c1.2-0.1,2.5-0.1,3.7-0.1c0,0,0,0,0.1,0c0.8,0,1.5,0.3,2.1,0.8c0.6,0.6,0.9,1.3,0.9,2.1v1.5c0,0.3,0,0.6-0.1,0.8v0.3
				c0.2,0.4,0.2,0.8,0.2,1.2v1.5c0,1.6-1.3,2.9-2.9,3c-1.2,0-2.5,0.1-3.8,0.1C78.9,127.9,78.9,127.9,78.8,127.9z"/>
			<path class="st0" d="M78.8,119.6c1.2,0,2.4-0.1,3.7-0.1c0,0.5,0,1,0,1.5c-0.7,0-1.3,0-2,0.1c0,0.2,0,0.3,0,0.5
				c0.6,0,1.2,0,1.9-0.1c0,0.5,0,0.9,0,1.4c-0.6,0-1.2,0-1.9,0.1c0,0.2,0,0.3,0,0.5c0.7,0,1.4,0,2.1-0.1c0,0.5,0,1,0,1.5
				c-1.3,0-2.5,0.1-3.8,0.1C78.8,123.2,78.8,121.4,78.8,119.6z"/>
			<path class="st0" d="M84.2,127.7c-0.8,0-1.5-0.3-2.1-0.9c-0.6-0.6-0.9-1.3-0.9-2.1v-1.3c-0.1-0.1-0.3-0.2-0.4-0.3
				c-0.6-0.6-0.9-1.3-0.9-2.1v-1.5c0-1.6,1.3-2.9,2.9-3c1.5,0,3-0.1,4.5-0.1c0,0,0,0,0,0c0.8,0,1.5,0.3,2.1,0.9
				c0.6,0.6,0.9,1.3,0.9,2.1v1.5c0,1-0.5,1.9-1.3,2.5v1.3c0,1.6-1.3,3-3,3C85.5,127.7,84.9,127.7,84.2,127.7
				C84.3,127.7,84.3,127.7,84.2,127.7z"/>
			<path class="st0" d="M86,124.7c-0.6,0-1.2,0-1.8,0c0-1.3,0-2.5,0-3.8c-0.4,0-0.9,0-1.3,0c0-0.5,0-1,0-1.5c1.5,0,2.9-0.1,4.4-0.1
				c0,0.5,0,1,0,1.5c-0.4,0-0.9,0-1.3,0C86,122.2,86,123.5,86,124.7z"/>
			<path class="st0" d="M93.1,127.8c-1.2,0-2.4,0-3.5-0.1c-1.6,0-3-1.3-3-3v-5.3c0-0.8,0.3-1.6,0.9-2.1c0.6-0.6,1.3-0.9,2.1-0.9
				c0,0,0,0,0,0c0.6,0,1.2,0,1.8,0c1.6,0,2.9,1.3,2.9,3v1.1c1,0.5,1.8,1.5,1.8,2.7v1.5c0,0.8-0.3,1.6-0.9,2.1
				C94.7,127.5,94,127.8,93.1,127.8C93.2,127.8,93.1,127.8,93.1,127.8z"/>
			<path class="st0" d="M89.6,119.5c0.6,0,1.2,0,1.8,0c0,1.3,0,2.5,0,3.8c0.6,0,1.2,0,1.8,0c0,0.5,0,1,0,1.5c-1.2,0-2.4,0-3.6-0.1
				C89.6,123,89.6,121.2,89.6,119.5z"/>
			<path class="st0" d="M97.4,127.9c-1.2-0.1-2.5-0.1-3.8-0.1c-1.6,0-2.9-1.4-2.9-3v-5.3c0-0.8,0.3-1.6,0.9-2.1
				c0.6-0.5,1.3-0.8,2.1-0.8c0,0,0.1,0,0.1,0c1.2,0,2.5,0.1,3.7,0.1c1.6,0.1,2.9,1.4,2.9,3v1.5c0,0.3,0,0.6-0.1,0.8v0.3
				c0.2,0.4,0.2,0.8,0.2,1.2v1.5c0,0.8-0.3,1.6-0.9,2.1c-0.6,0.5-1.3,0.8-2.1,0.8C97.5,127.9,97.5,127.9,97.4,127.9z"/>
			<path class="st0" d="M93.7,119.5c1.2,0,2.4,0.1,3.7,0.1c0,0.5,0,1,0,1.5c-0.7,0-1.3-0.1-2-0.1c0,0.2,0,0.3,0,0.5
				c0.6,0,1.2,0,1.9,0.1c0,0.5,0,0.9,0,1.4c-0.6,0-1.2,0-1.9-0.1c0,0.2,0,0.3,0,0.5c0.7,0,1.4,0,2.1,0.1c0,0.5,0,1,0,1.5
				c-1.3-0.1-2.5-0.1-3.8-0.1C93.7,123.1,93.7,121.3,93.7,119.5z"/>
			<path class="st0" d="M103.8,128.3c-0.1,0-0.1,0-0.2,0c-0.6,0-1.3-0.1-1.9-0.1c-0.4,0-0.8-0.1-1.1-0.3c-0.3,0.1-0.6,0.2-1,0.2
				c-0.1,0-0.1,0-0.2,0c-0.6,0-1.3-0.1-1.9-0.1c-1,0-1.9-0.6-2.4-1.4c-0.5-0.8-0.6-1.8-0.3-2.7c0.7-1.7,1.4-3.5,2.1-5.2
				c0.5-1.1,1.6-1.9,2.8-1.9c0.1,0,0.1,0,0.2,0c0.6,0,1.3,0.1,1.9,0.1c1.2,0.1,2.2,0.8,2.6,1.9c0.7,1.8,1.4,3.6,2.1,5.4
				c0.4,0.9,0.2,2-0.4,2.8C105.6,127.8,104.7,128.3,103.8,128.3z"/>
			<path class="st0" d="M99.8,119.8c0.6,0,1.3,0.1,1.9,0.1c0.7,1.8,1.4,3.6,2.1,5.4c-0.7,0-1.3-0.1-2-0.1c-0.1-0.3-0.2-0.5-0.3-0.8
				c-0.6,0-1.1-0.1-1.7-0.1c-0.1,0.3-0.2,0.5-0.3,0.8c-0.6,0-1.3-0.1-1.9-0.1C98.4,123.2,99.1,121.5,99.8,119.8z M100.7,121.7
				c-0.1,0.4-0.3,0.9-0.4,1.3c0.3,0,0.6,0,0.9,0C101,122.5,100.9,122.1,100.7,121.7z"/>
			<path class="st0" d="M107.1,128.6c-0.2,0-0.4,0-0.6,0c-0.7-0.1-1.5-0.2-2.1-0.5c-0.7-0.3-1.3-0.7-1.8-1.2c-0.5-0.5-1-1.2-1.3-1.9
				c-0.3-0.7-0.5-1.5-0.5-2.3c0-0.8,0.2-1.6,0.5-2.4c0.3-0.7,0.8-1.4,1.4-1.9c0.6-0.5,1.3-0.9,2-1.1c0.5-0.2,1.1-0.2,1.7-0.2
				c0.2,0,0.4,0,0.5,0c0.8,0.1,1.5,0.2,2.2,0.6c0.7,0.3,1.4,0.8,1.9,1.3c0.7,0.7,0.9,1.7,0.7,2.5c0.1,0.3,0.1,0.6,0.1,0.9v2.9
				c0,1.1-0.6,2.2-1.6,2.7c-0.3,0.1-0.6,0.3-0.9,0.4c-0.3,0.1-0.6,0.1-0.9,0.2c-0.3,0-0.6,0.1-0.9,0.1
				C107.3,128.6,107.2,128.6,107.1,128.6z"/>
			<path class="st0" d="M106.7,125.7c-0.4,0-0.8-0.1-1.2-0.3c-0.4-0.2-0.7-0.4-0.9-0.6c-0.3-0.3-0.5-0.6-0.6-0.9
				c-0.2-0.4-0.2-0.7-0.2-1.2c0-0.4,0.1-0.8,0.2-1.1c0.2-0.3,0.4-0.6,0.6-0.8c0.3-0.2,0.6-0.4,0.9-0.5c0.4-0.1,0.7-0.1,1.1-0.1
				c0.4,0,0.8,0.1,1.2,0.3c0.4,0.2,0.7,0.4,0.9,0.6c-0.3,0.4-0.7,0.8-1,1.2c-0.1-0.1-0.2-0.3-0.4-0.3c-0.2-0.1-0.3-0.1-0.6-0.2
				c-0.1,0-0.3,0-0.4,0.1c-0.1,0-0.3,0.1-0.4,0.2c-0.1,0.1-0.2,0.2-0.3,0.4c-0.1,0.1-0.1,0.3-0.1,0.5c0,0.4,0.1,0.7,0.3,0.9
				c0.2,0.2,0.5,0.4,0.9,0.4c0.1,0,0.2,0,0.2,0c0.1,0,0.1,0,0.2,0c0-0.1,0-0.3,0-0.4c-0.3,0-0.6,0-0.9-0.1c0-0.5,0-0.9,0-1.4
				c0.8,0.1,1.6,0.1,2.4,0.2c0,1,0,1.9,0,2.9c-0.1,0.1-0.3,0.1-0.4,0.2c-0.2,0-0.3,0.1-0.5,0.1c-0.2,0-0.4,0-0.6,0.1
				C107.1,125.7,106.9,125.7,106.7,125.7z"/>
			<path class="st0" d="M112.6,129.2c-0.2,0-0.5,0-0.7,0c-0.7-0.1-1.4-0.3-2-0.6c-0.7-0.3-1.2-0.7-1.7-1.2c-0.5-0.5-0.8-1.1-1.1-1.8
				c-0.2-0.6-0.3-1.2-0.3-1.9v-3.2c0-0.8,0.4-1.6,1-2.2c0.6-0.5,1.3-0.8,2-0.8c0.1,0,0.2,0,0.3,0c0.6,0.1,1.2,0.1,1.8,0.2
				c0.2,0,0.5,0.1,0.7,0.2c0.1,0,0.3,0,0.4,0c0.1,0,0.2,0,0.3,0c0.6,0.1,1.2,0.1,1.8,0.2c1.5,0.2,2.6,1.4,2.6,3v3.2
				c0,0.7-0.1,1.4-0.4,2c-0.3,0.7-0.7,1.3-1.3,1.8c-0.6,0.5-1.2,0.8-2,1C113.5,129.1,113.1,129.2,112.6,129.2z"/>
			<path class="st0" d="M112.1,126.2c-0.4,0-0.8-0.1-1.1-0.3c-0.3-0.1-0.6-0.3-0.8-0.5c-0.2-0.2-0.4-0.5-0.5-0.7
				c-0.1-0.3-0.2-0.6-0.2-0.9c0-1.1,0-2.1,0-3.2c0.6,0.1,1.2,0.1,1.8,0.2c0,1,0,2,0,3c0,0.3,0.1,0.5,0.2,0.6
				c0.1,0.2,0.3,0.2,0.5,0.3c0.2,0,0.4,0,0.5-0.2c0.1-0.1,0.2-0.3,0.2-0.6c0-1,0-2,0-3c0.6,0.1,1.2,0.1,1.8,0.2c0,1.1,0,2.1,0,3.2
				c0,0.3-0.1,0.6-0.2,0.9c-0.1,0.3-0.3,0.5-0.5,0.6c-0.2,0.2-0.5,0.3-0.8,0.4C112.9,126.2,112.5,126.2,112.1,126.2z"/>
			<path class="st0" d="M119.3,129.9c-0.1,0-0.3,0-0.4,0c-1.2-0.2-2.5-0.3-3.7-0.5c-1.5-0.2-2.6-1.5-2.6-3v-5.3c0-0.9,0.4-1.7,1-2.2
				c0.5-0.5,1.3-0.7,2-0.7c0.1,0,0.2,0,0.4,0c1.2,0.2,2.5,0.3,3.7,0.5c1.5,0.2,2.6,1.5,2.6,2.9v1.5c0,0.3,0,0.6-0.1,0.8v0.3
				c0.2,0.4,0.2,0.8,0.2,1.2v1.5c0,0.9-0.4,1.7-1,2.2C120.8,129.6,120.1,129.9,119.3,129.9z"/>
			<path class="st0" d="M115.6,121.1c1.2,0.1,2.4,0.3,3.7,0.5c0,0.5,0,1,0,1.5c-0.7-0.1-1.3-0.2-2-0.3c0,0.2,0,0.3,0,0.5
				c0.6,0.1,1.2,0.2,1.9,0.2c0,0.5,0,0.9,0,1.4c-0.6-0.1-1.2-0.2-1.9-0.2c0,0.2,0,0.3,0,0.5c0.7,0.1,1.4,0.2,2.1,0.3
				c0,0.5,0,1,0,1.5c-1.3-0.2-2.5-0.3-3.8-0.5C115.6,124.7,115.6,122.9,115.6,121.1z"/>
		</g>
		<polygon class="st0" points="31.2,142.1 44.1,138.9 56.1,127 80,125.2 104.6,124.7 115.6,133.8 130,143.4 74.2,140.1 50.9,144.3
			29.7,146.8 		"/>
	</g>
	<g>
		<g>
			<g>
				<path class="st2" d="M55.9,121.8c0.8-0.1,1.5-0.2,2.3-0.3c0.3,0,0.5,0,0.8,0c0.3,0,0.5,0.1,0.7,0.2c0.2,0.1,0.4,0.3,0.5,0.5
					c0.1,0.2,0.2,0.5,0.2,0.8c0,0.3-0.1,0.6-0.2,0.9c-0.2,0.3-0.4,0.5-0.7,0.7c0.4,0.7,0.9,1.3,1.3,2c-0.7,0.1-1.4,0.2-2.1,0.3
					c-0.3-0.6-0.7-1.2-1-1.8c0,0,0,0-0.1,0c0,0.6,0,1.3,0,1.9c-0.6,0.1-1.2,0.2-1.7,0.2C55.9,125.4,55.9,123.6,55.9,121.8z
					 M57.6,123.8c0.1,0,0.2,0,0.3,0c0.1,0,0.1,0,0.2,0c0.1,0,0.1,0,0.2-0.1c0.1,0,0.1-0.1,0.2-0.2c0-0.1,0.1-0.1,0.1-0.2
					c0-0.1,0-0.2-0.1-0.2c0-0.1-0.1-0.1-0.1-0.1c-0.1,0-0.1,0-0.2,0c-0.1,0-0.1,0-0.2,0c-0.1,0-0.3,0-0.4,0.1
					C57.6,123.3,57.6,123.5,57.6,123.8z"/>
				<path class="st2" d="M61,123.8c0-0.4,0.1-0.8,0.2-1.2c0.2-0.4,0.4-0.7,0.6-0.9c0.3-0.3,0.6-0.5,0.9-0.7c0.4-0.2,0.8-0.3,1.2-0.3
					c0.4,0,0.8,0,1.2,0.1c0.4,0.1,0.7,0.2,0.9,0.5c0.3,0.2,0.5,0.5,0.6,0.8c0.2,0.3,0.2,0.7,0.2,1.1c0,0.4-0.1,0.8-0.2,1.2
					c-0.2,0.4-0.4,0.7-0.6,1c-0.3,0.3-0.6,0.5-0.9,0.7c-0.4,0.2-0.8,0.3-1.2,0.3c-0.4,0-0.8,0-1.2-0.1c-0.4-0.1-0.7-0.2-0.9-0.5
					c-0.3-0.2-0.5-0.5-0.6-0.8C61.1,124.6,61,124.2,61,123.8z M62.9,123.5c0,0.2,0,0.3,0.1,0.5c0.1,0.1,0.1,0.3,0.2,0.3
					c0.1,0.1,0.2,0.2,0.3,0.2c0.1,0,0.3,0.1,0.4,0c0.1,0,0.3-0.1,0.4-0.1c0.1-0.1,0.2-0.2,0.3-0.3c0.1-0.1,0.2-0.2,0.2-0.4
					c0.1-0.1,0.1-0.3,0.1-0.5c0-0.2,0-0.3-0.1-0.5c-0.1-0.1-0.1-0.2-0.2-0.3c-0.1-0.1-0.2-0.2-0.3-0.2c-0.1,0-0.3-0.1-0.4,0
					c-0.2,0-0.3,0.1-0.4,0.1c-0.1,0.1-0.2,0.2-0.3,0.3c-0.1,0.1-0.2,0.2-0.2,0.4C62.9,123.2,62.9,123.4,62.9,123.5z"/>
				<path class="st2" d="M67.4,123.1c0-0.4,0.1-0.8,0.2-1.2c0.2-0.4,0.4-0.7,0.6-0.9c0.3-0.3,0.6-0.5,0.9-0.6
					c0.4-0.2,0.7-0.3,1.1-0.3c0.4,0,0.8,0,1.2,0.1c0.4,0.1,0.7,0.3,0.9,0.5c-0.4,0.5-0.7,0.9-1.1,1.4c-0.1-0.1-0.2-0.2-0.4-0.3
					c-0.2-0.1-0.3-0.1-0.5-0.1c-0.2,0-0.3,0-0.4,0.1c-0.1,0.1-0.2,0.1-0.3,0.3c-0.1,0.1-0.2,0.2-0.2,0.4c-0.1,0.1-0.1,0.3-0.1,0.5
					c0,0.2,0,0.3,0.1,0.5c0.1,0.1,0.1,0.2,0.2,0.3c0.1,0.1,0.2,0.2,0.3,0.2c0.1,0,0.3,0.1,0.4,0c0.2,0,0.4-0.1,0.5-0.2
					c0.1-0.1,0.3-0.2,0.3-0.3c0.4,0.4,0.7,0.8,1.1,1.2c-0.2,0.3-0.5,0.5-0.9,0.6c-0.4,0.2-0.8,0.3-1.2,0.3c-0.4,0-0.8,0-1.1-0.1
					c-0.4-0.1-0.7-0.3-0.9-0.5c-0.3-0.2-0.5-0.5-0.6-0.8C67.5,123.9,67.4,123.5,67.4,123.1z"/>
				<path class="st2" d="M74.7,123.1C74.7,123.1,74.7,123.1,74.7,123.1c0,0.7,0,1.4,0,2.1c-0.6,0-1.2,0.1-1.7,0.1c0-1.8,0-3.5,0-5.3
					c0.6,0,1.2-0.1,1.7-0.1c0,0.6,0,1.3,0,1.9c0,0,0,0,0,0c0.5-0.7,0.9-1.4,1.4-2c0.7,0,1.4-0.1,2.1-0.1c-0.7,0.8-1.3,1.7-2,2.5
					c0.7,0.9,1.4,1.8,2.1,2.8c-0.7,0-1.5,0.1-2.2,0.1C75.6,124.4,75.1,123.8,74.7,123.1z"/>
				<path class="st2" d="M78.7,119.7c1.2-0.1,2.4-0.1,3.7-0.1c0,0.5,0,1,0,1.5c-0.7,0-1.3,0-2,0.1c0,0.2,0,0.3,0,0.5
					c0.6,0,1.2,0,1.9-0.1c0,0.5,0,0.9,0,1.4c-0.6,0-1.2,0-1.9,0.1c0,0.2,0,0.3,0,0.5c0.7,0,1.4,0,2.1-0.1c0,0.5,0,1,0,1.5
					c-1.3,0-2.5,0.1-3.8,0.1C78.7,123.2,78.7,121.5,78.7,119.7z"/>
				<path class="st2" d="M85.9,124.8c-0.6,0-1.2,0-1.8,0c0-1.3,0-2.5,0-3.8c-0.4,0-0.9,0-1.3,0c0-0.5,0-1,0-1.5
					c1.5,0,2.9-0.1,4.4-0.1c0,0.5,0,1,0,1.5c-0.4,0-0.9,0-1.3,0C85.9,122.3,85.9,123.5,85.9,124.8z"/>
				<path class="st2" d="M89.6,119.5c0.6,0,1.2,0,1.8,0c0,1.3,0,2.5,0,3.8c0.6,0,1.2,0,1.8,0c0,0.5,0,1,0,1.5c-1.2,0-2.4,0-3.6-0.1
					C89.6,123,89.6,121.3,89.6,119.5z"/>
				<path class="st2" d="M93.8,119.6c1.2,0,2.4,0.1,3.7,0.1c0,0.5,0,1,0,1.5c-0.7,0-1.3-0.1-2-0.1c0,0.2,0,0.3,0,0.5
					c0.6,0,1.2,0,1.9,0.1c0,0.5,0,0.9,0,1.4c-0.6,0-1.2,0-1.9-0.1c0,0.2,0,0.3,0,0.5c0.7,0,1.4,0,2.1,0.1c0,0.5,0,1,0,1.5
					c-1.3-0.1-2.5-0.1-3.8-0.1C93.8,123.1,93.8,121.3,93.8,119.6z"/>
				<path class="st2" d="M99.8,119.8c0.6,0,1.3,0.1,1.9,0.1c0.7,1.8,1.4,3.6,2.1,5.4c-0.7,0-1.3-0.1-2-0.1c-0.1-0.3-0.2-0.5-0.3-0.8
					c-0.6,0-1.1-0.1-1.7-0.1c-0.1,0.3-0.2,0.5-0.3,0.8c-0.6,0-1.3-0.1-1.9-0.1C98.4,123.2,99.1,121.5,99.8,119.8z M100.7,121.7
					c-0.1,0.4-0.3,0.9-0.4,1.3c0.3,0,0.6,0,0.9,0C101,122.6,100.9,122.1,100.7,121.7z"/>
				<path class="st2" d="M106.9,125.7c-0.4,0-0.8-0.1-1.2-0.3c-0.4-0.2-0.7-0.4-0.9-0.6c-0.3-0.3-0.5-0.6-0.6-0.9
					c-0.2-0.4-0.2-0.7-0.2-1.2c0-0.4,0.1-0.8,0.2-1.1c0.2-0.3,0.4-0.6,0.6-0.8c0.3-0.2,0.6-0.4,0.9-0.5c0.4-0.1,0.7-0.1,1.1-0.1
					c0.4,0,0.8,0.1,1.2,0.3c0.4,0.2,0.7,0.4,0.9,0.6c-0.3,0.4-0.7,0.8-1,1.2c-0.1-0.1-0.2-0.3-0.4-0.3c-0.2-0.1-0.3-0.1-0.6-0.2
					c-0.1,0-0.3,0-0.4,0.1c-0.1,0-0.3,0.1-0.4,0.2c-0.1,0.1-0.2,0.2-0.3,0.4c-0.1,0.1-0.1,0.3-0.1,0.5c0,0.4,0.1,0.7,0.3,0.9
					c0.2,0.2,0.5,0.4,0.9,0.4c0.1,0,0.2,0,0.2,0c0.1,0,0.1,0,0.2,0c0-0.1,0-0.3,0-0.4c-0.3,0-0.6,0-0.9-0.1c0-0.5,0-0.9,0-1.4
					c0.8,0.1,1.6,0.1,2.4,0.2c0,1,0,1.9,0,2.9c-0.1,0.1-0.3,0.1-0.4,0.2c-0.2,0-0.3,0.1-0.5,0.1c-0.2,0-0.4,0-0.6,0.1
					C107.3,125.7,107.1,125.7,106.9,125.7z"/>
				<path class="st2" d="M112.3,126.2c-0.4,0-0.8-0.1-1.1-0.3c-0.3-0.1-0.6-0.3-0.8-0.5c-0.2-0.2-0.4-0.5-0.5-0.7
					c-0.1-0.3-0.1-0.6-0.1-0.9c0-1.1,0-2.1,0-3.2c0.6,0.1,1.2,0.1,1.8,0.2c0,1,0,2,0,3c0,0.3,0.1,0.5,0.2,0.6
					c0.1,0.2,0.3,0.2,0.5,0.3c0.2,0,0.4,0,0.5-0.2c0.1-0.1,0.2-0.3,0.2-0.6c0-1,0-2,0-3c0.6,0.1,1.2,0.1,1.8,0.2c0,1.1,0,2.1,0,3.2
					c0,0.3-0.1,0.6-0.2,0.9c-0.1,0.3-0.3,0.5-0.5,0.6c-0.2,0.2-0.5,0.3-0.8,0.4C113.1,126.2,112.7,126.3,112.3,126.2z"/>
				<path class="st2" d="M115.7,121.2c1.2,0.1,2.4,0.3,3.7,0.5c0,0.5,0,1,0,1.5c-0.7-0.1-1.3-0.2-2-0.3c0,0.2,0,0.3,0,0.5
					c0.6,0.1,1.2,0.2,1.9,0.2c0,0.5,0,0.9,0,1.4c-0.6-0.1-1.2-0.2-1.9-0.2c0,0.2,0,0.3,0,0.5c0.7,0.1,1.4,0.2,2.1,0.3
					c0,0.5,0,1,0,1.5c-1.3-0.2-2.5-0.3-3.8-0.5C115.7,124.7,115.7,122.9,115.7,121.2z"/>
			</g>
			<g>
				<path class="st0" d="M35.2,157.2c-1.8,0.4-3.5,0.6-5.1,0.4c-1.6-0.2-3-0.7-4.2-1.5c-1.2-0.8-2.2-1.9-2.8-3.3c-0.7-1.4-1-3.1-1-5
					c0-1.9,0.3-3.8,1-5.7c0.7-1.8,1.6-3.5,2.8-5c1.2-1.5,2.6-2.8,4.2-3.8c1.6-1,3.3-1.8,5.1-2.2c1.8-0.4,3.5-0.5,5.2-0.3
					c1.7,0.2,3.1,0.8,4.3,1.7c1.2,0.9,1.3,2.6,0.3,4.1c-1.3,1.8-2.6,3.7-3.9,5.6c-0.2,0.3-0.5,0.6-0.8,0.9c0.3,0.1,0.6,0.3,0.8,0.5
					c1.3,1.3,2.6,2.6,3.9,3.9c1,1,0.9,2.8-0.2,4.1c-1.1,1.4-2.5,2.6-4.2,3.6C38.9,155.9,37.1,156.7,35.2,157.2z M35.5,142.8
					c-0.2,0-0.3,0.1-0.4,0.2c-0.1,0.1-0.1,0.1-0.2,0.2c-0.1,0.1-0.1,0.2-0.2,0.3c-0.1,0.2-0.1,0.4-0.1,0.7c0,0.2,0,0.4,0.1,0.5
					c0.1,0.1,0.1,0.2,0.2,0.3c0.1,0.1,0.1,0.1,0.2,0.1c0.1,0,0.2,0,0.4,0c0.3-0.1,0.4-0.2,0.4-0.2c0.2-0.2,0.3-0.3,0.3-0.3
					c0.3-0.4,0.6-0.8,0.9-1.1c-0.3-0.1-0.7-0.3-0.9-0.6c-0.1-0.1-0.1-0.1-0.2-0.1C36,142.8,35.8,142.8,35.5,142.8z"/>
				<path class="st0" d="M24.9,146.8c0-1.5,0.3-3,0.8-4.4c0.5-1.4,1.3-2.7,2.2-3.8c0.9-1.1,2-2.1,3.3-2.9c1.3-0.8,2.6-1.4,4-1.7
					c1.5-0.4,2.8-0.4,4.1-0.2c1.3,0.2,2.4,0.6,3.3,1.2c-1.3,1.9-2.6,3.7-3.9,5.6c-0.4-0.4-0.8-0.6-1.3-0.8c-0.5-0.1-1.1-0.1-1.8,0.1
					c-0.5,0.1-1,0.3-1.5,0.6c-0.5,0.3-0.9,0.7-1.2,1.1c-0.3,0.4-0.6,1-0.8,1.5c-0.2,0.6-0.3,1.2-0.3,1.8c0,0.6,0.1,1.2,0.3,1.6
					c0.2,0.4,0.5,0.8,0.8,1.1c0.3,0.3,0.8,0.4,1.2,0.5c0.5,0.1,1,0,1.5-0.1c0.7-0.2,1.4-0.5,1.9-0.9c0.5-0.4,0.9-0.9,1.2-1.4
					c1.3,1.3,2.6,2.6,3.9,3.9c-0.9,1-1.9,2-3.2,2.7c-1.3,0.8-2.7,1.4-4.3,1.8c-1.4,0.3-2.8,0.4-4,0.3c-1.3-0.2-2.3-0.6-3.3-1.2
					c-0.9-0.6-1.6-1.5-2.2-2.6C25.2,149.6,24.9,148.3,24.9,146.8z"/>
				<path class="st0" d="M44.4,154.6c-1.7,0.3-3-0.7-3-2.4c0-6.4,0-12.7,0-19.1c0-1.7,1.3-3.3,3-3.6c4.4-0.9,8.8-1.6,13.2-2.2
					c1.7-0.2,3,0.9,3,2.6c0,1.8,0,3.6,0,5.3c0,0.6-0.2,1.1-0.4,1.6c0,0,0,4.7,0,4.7c0.6,0.5,0.9,1.2,0.9,2c0,1.8,0,3.6,0,5.3
					c0,1.7-1.4,3.2-3,3.4C53.4,152.9,48.9,153.7,44.4,154.6z"/>
				<path class="st0" d="M44.4,132.5c4.4-0.9,8.8-1.6,13.2-2.2c0,1.8,0,3.6,0,5.3c-2.4,0.3-4.7,0.7-7.1,1.1c0,0.5,0,1.1,0,1.6
					c2.2-0.4,4.5-0.7,6.7-1c0,1.7,0,3.3,0,5c-2.2,0.3-4.5,0.7-6.7,1c0,0.6,0,1.2,0,1.8c2.5-0.4,5-0.8,7.6-1.2c0,1.8,0,3.6,0,5.3
					c-4.6,0.6-9.1,1.4-13.6,2.3C44.4,145.2,44.4,138.8,44.4,132.5z"/>
				<path class="st0" d="M72,150.9c-1.1,0.1-2-0.4-2.6-1.2c-0.1,0.2-0.3,0.4-0.4,0.6c-0.6,0.6-1.4,1-2.2,1.1c-2,0.2-4.1,0.4-6.1,0.7
					c-1.7,0.2-3-0.9-3-2.6c0-6.4,0-12.7,0-19.1c0-1.7,1.3-3.2,3-3.4c2.1-0.3,4.3-0.5,6.4-0.7c1.1-0.1,2.1,0.4,2.6,1.3c0,0,0,0,0,0.1
					c0.1-0.3,0.3-0.5,0.5-0.7c0.6-0.6,1.4-1,2.2-1.1c2.1-0.1,4.1-0.3,6.2-0.3c1.7-0.1,3,1.2,3,2.9c0,6.4,0,12.7,0,19.1
					c0,1.7-1.4,3-3,3.1C76.4,150.6,74.2,150.7,72,150.9z"/>
				<path class="st0" d="M60.7,129.9c2.1-0.3,4.3-0.5,6.4-0.7c1.8,3.1,3.7,6.1,5.5,9.2c0,0,0.1,0,0.1,0c-0.1-3.2-0.2-6.4-0.3-9.7
					c2.1-0.1,4.1-0.3,6.2-0.3c0,6.4,0,12.7,0,19.1c-2.2,0.1-4.4,0.2-6.6,0.4c-1.8-2.9-3.6-5.8-5.3-8.7c0,0-0.1,0-0.1,0
					c0.1,3,0.2,6.1,0.3,9.1c-2,0.2-4.1,0.4-6.1,0.7C60.7,142.6,60.7,136.2,60.7,129.9z"/>
				<path class="st0" d="M85.3,150.3c-1.7,0-3-1.3-3-2.9c0-3.6,0-7.1,0-10.7c-0.6,0-1.1,0-1.7,0.1c-1.7,0.1-3-1.2-3-2.9
					c0-1.8,0-3.6,0-5.4c0-1.7,1.4-3.1,3-3.1c5.3-0.2,10.7-0.2,16,0c1.7,0.1,3,1.5,3,3.1c0,1.8,0,3.6,0,5.4c0,1.7-1.4,2.9-3,2.9
					c-0.6,0-1.1,0-1.7-0.1c0,3.6,0,7.1,0,10.7c0,1.7-1.4,3-3,2.9C89.7,150.3,87.5,150.3,85.3,150.3z"/>
				<path class="st0" d="M91.8,147.3c-2.2,0-4.3,0-6.5,0c0-4.6,0-9.1,0-13.7c-1.6,0-3.2,0.1-4.8,0.1c0-1.8,0-3.6,0-5.4
					c5.3-0.2,10.7-0.2,16,0c0,1.8,0,3.6,0,5.4c-1.6-0.1-3.2-0.1-4.8-0.1C91.8,138.2,91.8,142.7,91.8,147.3z"/>
				<path class="st0" d="M108.8,151.2c-0.7-0.1-1.4-0.4-1.9-0.9c-0.5,0.4-1.2,0.6-1.9,0.5c-2.1-0.2-4.2-0.3-6.3-0.4
					c-1.7-0.1-3-1.5-3-3.1c0-6.4,0-12.7,0-19.1c0-1.7,1.4-3,3-2.9c2.8,0.1,5.5,0.3,8.3,0.5c1.1,0.1,2.3,0.3,3.4,0.7
					c1.3,0.4,2.5,1,3.5,1.8c1.1,0.9,2.1,2,2.8,3.3c0.7,1.3,1.1,2.9,1.1,4.6c0,1.8-0.5,3.3-1.3,4.5c-0.3,0.4-0.6,0.8-1,1.1
					c1.1,1.9,2.3,3.9,3.4,5.8c0.6,1,0.6,2.2,0.1,3.1c-0.5,0.9-1.5,1.3-2.6,1.2C113.7,151.7,111.2,151.4,108.8,151.2z"/>
				<path class="st0" d="M98.6,128.4c2.8,0.1,5.5,0.3,8.3,0.5c0.9,0.1,1.9,0.3,2.8,0.5c0.9,0.3,1.8,0.7,2.5,1.3
					c0.7,0.6,1.3,1.3,1.8,2.1c0.5,0.9,0.7,1.9,0.7,3.1c0,1.2-0.3,2.2-0.9,3c-0.6,0.8-1.4,1.4-2.5,1.8c1.6,2.8,3.3,5.5,4.9,8.3
					c-2.5-0.3-5-0.6-7.4-0.8c-1.2-2.4-2.5-4.8-3.7-7.1c-0.1,0-0.1,0-0.2,0c0,2.3,0,4.6,0,6.8c-2.1-0.2-4.2-0.3-6.3-0.4
					C98.6,141.1,98.6,134.8,98.6,128.4z M104.8,136.8c0.4,0,0.8,0.1,1.3,0.1c0.2,0,0.5,0,0.7,0c0.3,0,0.5-0.1,0.7-0.2
					c0.2-0.1,0.4-0.2,0.6-0.4c0.2-0.2,0.2-0.5,0.2-0.8c0-0.3-0.1-0.6-0.2-0.8c-0.1-0.2-0.3-0.4-0.5-0.5c-0.2-0.1-0.4-0.2-0.6-0.2
					c-0.2,0-0.5-0.1-0.6-0.1c-0.5,0-1-0.1-1.5-0.1C104.8,134.8,104.8,135.8,104.8,136.8z"/>
				<path class="st0" d="M130.6,154.3c-1.3-0.2-2.4-1.2-2.8-2.5c-0.1-0.3-0.2-0.6-0.3-0.9c-0.6-0.1-1.2-0.2-1.8-0.3
					c-0.1,0.2-0.2,0.5-0.3,0.7c-0.4,1.2-1.6,1.8-2.8,1.6c-2.3-0.4-4.6-0.7-6.8-0.9c-1-0.1-1.9-0.7-2.5-1.6c-0.6-0.9-0.7-1.9-0.3-2.8
					c2.5-6.1,5.1-12.1,7.6-18.2c0.5-1.1,1.6-1.7,2.8-1.5c2.3,0.4,4.6,0.8,6.8,1.2c1.2,0.2,2.3,1.2,2.8,2.5
					c2.5,6.9,4.9,13.8,7.4,20.7c0.4,1,0.2,2-0.3,2.7c-0.6,0.7-1.5,1-2.5,0.7C135.3,155.2,133,154.7,130.6,154.3z"/>
				<path class="st0" d="M123.4,130.9c2.3,0.4,4.6,0.8,6.8,1.2c2.5,6.8,5,13.7,7.4,20.7c-2.3-0.5-4.6-1-7-1.4c-0.3-1-0.7-2-1-3
					c-2-0.4-4-0.7-6.1-1c-0.3,0.9-0.6,1.8-0.9,2.7c-2.3-0.4-4.6-0.7-6.8-0.9C118.3,142.9,120.8,136.9,123.4,130.9z M126.7,138.1
					c-0.5,1.5-1,3-1.6,4.5c1,0.2,2.1,0.4,3.1,0.5C127.7,141.5,127.2,139.8,126.7,138.1z"/>
				<path class="st0" d="M138.9,156c-1.6-0.4-3-2-3-3.7c0-6.4,0-12.7,0-19.1c0-1.7,1.3-2.7,3-2.3c2.1,0.5,4.3,1,6.4,1.6
					c1.6,0.4,3,2.1,3,3.8c0,3.5,0,7.1,0,10.6c1.1,0.3,2.2,0.6,3.3,0.9c1.6,0.5,2.9,2.2,2.9,3.9c0,1.8,0,3.7,0,5.5
					c0,1.7-1.3,2.6-2.9,2.1C147.4,158.1,143.2,157,138.9,156z"/>
				<path class="st0" d="M138.9,133.9c2.1,0.5,4.3,1,6.4,1.6c0,4.5,0,9.1,0,13.6c2.1,0.5,4.2,1.1,6.2,1.7c0,1.8,0,3.7,0,5.5
					c-4.2-1.2-8.4-2.3-12.6-3.3C138.9,146.7,138.9,140.3,138.9,133.9z"/>
			</g>
			<g>
				<path class="st2" d="M24.9,146.8c0-1.5,0.3-3,0.8-4.4c0.5-1.4,1.3-2.7,2.2-3.8c0.9-1.1,2-2.1,3.3-2.9c1.3-0.8,2.6-1.4,4-1.7
					c1.5-0.4,2.8-0.4,4.1-0.2c1.3,0.2,2.4,0.6,3.3,1.2c-1.3,1.9-2.6,3.7-3.9,5.6c-0.4-0.4-0.8-0.6-1.3-0.8c-0.5-0.1-1.1-0.1-1.8,0.1
					c-0.5,0.1-1,0.3-1.5,0.6c-0.5,0.3-0.9,0.7-1.2,1.1c-0.3,0.4-0.6,1-0.8,1.5c-0.2,0.6-0.3,1.2-0.3,1.8c0,0.6,0.1,1.2,0.3,1.6
					c0.2,0.4,0.5,0.8,0.8,1.1c0.3,0.3,0.8,0.4,1.2,0.5c0.5,0.1,1,0,1.5-0.1c0.7-0.2,1.4-0.5,1.9-0.9c0.5-0.4,0.9-0.9,1.2-1.4
					c1.3,1.3,2.6,2.6,3.9,3.9c-0.9,1-1.9,2-3.2,2.7c-1.3,0.8-2.7,1.4-4.3,1.8c-1.4,0.3-2.8,0.4-4,0.3c-1.3-0.2-2.3-0.6-3.3-1.2
					c-0.9-0.6-1.6-1.5-2.2-2.6C25.2,149.6,24.9,148.3,24.9,146.8z"/>
				<path class="st2" d="M44.4,132.5c4.4-0.9,8.8-1.6,13.2-2.2c0,1.8,0,3.6,0,5.3c-2.4,0.3-4.7,0.7-7.1,1.1c0,0.5,0,1.1,0,1.6
					c2.2-0.4,4.5-0.7,6.7-1c0,1.7,0,3.3,0,5c-2.2,0.3-4.5,0.7-6.7,1c0,0.6,0,1.2,0,1.8c2.5-0.4,5-0.8,7.6-1.2c0,1.8,0,3.6,0,5.3
					c-4.6,0.6-9.1,1.4-13.6,2.3C44.4,145.2,44.4,138.8,44.4,132.5z"/>
				<path class="st2" d="M60.7,129.9c2.1-0.3,4.3-0.5,6.4-0.7c1.8,3.1,3.7,6.1,5.5,9.2c0,0,0.1,0,0.1,0c-0.1-3.2-0.2-6.4-0.3-9.7
					c2.1-0.1,4.1-0.3,6.2-0.3c0,6.4,0,12.7,0,19.1c-2.2,0.1-4.4,0.2-6.6,0.4c-1.8-2.9-3.6-5.8-5.3-8.7c0,0-0.1,0-0.1,0
					c0.1,3,0.2,6.1,0.3,9.1c-2,0.2-4.1,0.4-6.1,0.7C60.7,142.6,60.7,136.2,60.7,129.9z"/>
				<path class="st2" d="M91.8,147.3c-2.2,0-4.3,0-6.5,0c0-4.6,0-9.1,0-13.7c-1.6,0-3.2,0.1-4.8,0.1c0-1.8,0-3.6,0-5.4
					c5.3-0.2,10.7-0.2,16,0c0,1.8,0,3.6,0,5.4c-1.6-0.1-3.2-0.1-4.8-0.1C91.8,138.2,91.8,142.7,91.8,147.3z"/>
				<path class="st2" d="M98.6,128.4c2.8,0.1,5.5,0.3,8.3,0.5c0.9,0.1,1.9,0.3,2.8,0.5c0.9,0.3,1.8,0.7,2.5,1.3
					c0.7,0.6,1.3,1.3,1.8,2.1c0.5,0.9,0.7,1.9,0.7,3.1c0,1.2-0.3,2.2-0.9,3c-0.6,0.8-1.4,1.4-2.5,1.8c1.6,2.8,3.3,5.5,4.9,8.3
					c-2.5-0.3-5-0.6-7.4-0.8c-1.2-2.4-2.5-4.8-3.7-7.1c-0.1,0-0.1,0-0.2,0c0,2.3,0,4.6,0,6.8c-2.1-0.2-4.2-0.3-6.3-0.4
					C98.6,141.1,98.6,134.8,98.6,128.4z M104.8,136.8c0.4,0,0.8,0.1,1.3,0.1c0.2,0,0.5,0,0.7,0c0.3,0,0.5-0.1,0.7-0.2
					c0.2-0.1,0.4-0.2,0.6-0.4c0.2-0.2,0.2-0.5,0.2-0.8c0-0.3-0.1-0.6-0.2-0.8c-0.1-0.2-0.3-0.4-0.5-0.5c-0.2-0.1-0.4-0.2-0.6-0.2
					c-0.2,0-0.5-0.1-0.6-0.1c-0.5,0-1-0.1-1.5-0.1C104.8,134.8,104.8,135.8,104.8,136.8z"/>
				<path class="st2" d="M123.4,130.9c2.3,0.4,4.6,0.8,6.8,1.2c2.5,6.8,5,13.7,7.4,20.7c-2.3-0.5-4.6-1-7-1.4c-0.3-1-0.7-2-1-3
					c-2-0.4-4-0.7-6.1-1c-0.3,0.9-0.6,1.8-0.9,2.7c-2.3-0.4-4.6-0.7-6.8-0.9C118.3,142.9,120.8,136.9,123.4,130.9z M126.7,138.1
					c-0.5,1.5-1,3-1.6,4.5c1,0.2,2.1,0.4,3.1,0.5C127.7,141.5,127.2,139.8,126.7,138.1z"/>
				<path class="st2" d="M138.9,133.9c2.1,0.5,4.3,1,6.4,1.6c0,4.5,0,9.1,0,13.6c2.1,0.5,4.2,1.1,6.2,1.7c0,1.8,0,3.7,0,5.5
					c-4.2-1.2-8.4-2.3-12.6-3.3C138.9,146.7,138.9,140.3,138.9,133.9z"/>
			</g>
		</g>
	</g>
</g>
</svg>
